<?xml version="1.0" encoding="UTF-8"?>
<svg version="1.1" xmlns="http://www.w3.org/2000/svg" width="1200" height="1200">
<path d="M0 0 C1.35730013 -0.00706814 2.71459993 -0.01420079 4.07189941 -0.02139282 C8.38908435 -0.04091924 12.70621254 -0.04608552 17.0234375 -0.046875 C17.76070824 -0.04716957 18.49797897 -0.04746414 19.25759125 -0.04776764 C42.41715182 -0.04926156 65.39489088 0.261596 88.3984375 3.203125 C89.57653992 3.35231384 89.57653992 3.35231384 90.77844238 3.5045166 C114.55594974 6.54600285 138.07307794 10.6758027 161.3984375 16.203125 C162.6045166 16.48849121 163.8105957 16.77385742 165.05322266 17.06787109 C198.35543995 25.11322213 231.09062998 36.31377431 262.3984375 50.203125 C263.47770508 50.67878906 264.55697266 51.15445313 265.66894531 51.64453125 C278.52167564 57.33617774 291.09175022 63.41303031 303.3984375 70.203125 C304.15914551 70.61981445 304.91985352 71.03650391 305.70361328 71.46582031 C314.36809628 76.21382225 322.99338444 81.00610746 331.3984375 86.203125 C332.47996094 86.85925781 333.56148437 87.51539062 334.67578125 88.19140625 C352.19159236 98.9002901 369.35975346 110.37648924 385.3984375 123.203125 C386.57402755 124.11520921 387.75118755 125.02527253 388.9296875 125.93359375 C396.02654107 131.41894713 402.79160634 137.12947671 409.3984375 143.203125 C410.7276613 144.37447165 412.06082157 145.54137093 413.3984375 146.703125 C418.11391233 150.8162238 422.76491918 154.99802587 427.3984375 159.203125 C428.37683594 160.08742187 429.35523438 160.97171875 430.36328125 161.8828125 C436.64463157 167.59572373 442.75797173 173.46071502 448.7734375 179.453125 C449.75401123 180.4268103 449.75401123 180.4268103 450.75439453 181.42016602 C454.58645191 185.26442118 458.22600478 189.22421695 461.77294922 193.33251953 C464.04788229 195.95050348 466.40944725 198.47770754 468.7734375 201.015625 C473.11114834 205.71220047 477.23326814 210.54052012 481.2421875 215.5234375 C482.62266593 217.23903208 484.01730524 218.94338603 485.4296875 220.6328125 C496.49822006 233.89027128 506.75588892 247.88058489 516.3984375 262.203125 C517.2966743 263.5196682 518.19512277 264.83606701 519.09375 266.15234375 C520.00843712 267.50218112 520.92251039 268.85243467 521.8359375 270.203125 C522.47462769 271.13862183 522.47462769 271.13862183 523.1262207 272.09301758 C525.31661931 275.35843667 527.1089753 278.48270946 528.3984375 282.203125 C529.0584375 282.203125 529.7184375 282.203125 530.3984375 282.203125 C530.66914062 282.92757813 530.93984375 283.65203125 531.21875 284.3984375 C532.37391201 287.14481606 533.71132479 289.5447505 535.2734375 292.078125 C536.06234375 293.37363281 536.06234375 293.37363281 536.8671875 294.6953125 C537.62515625 295.93667969 537.62515625 295.93667969 538.3984375 297.203125 C542.3984375 303.86166159 542.3984375 303.86166159 542.3984375 306.203125 C543.0584375 306.203125 543.7184375 306.203125 544.3984375 306.203125 C544.635625 306.8528125 544.8728125 307.5025 545.1171875 308.171875 C546.80062537 312.15464265 548.85026203 315.89802657 550.8984375 319.703125 C556.04281288 329.35558528 560.75653608 339.18765466 565.39331055 349.09179688 C566.19034424 350.76601291 567.02939815 352.42021489 567.8828125 354.06640625 C570.2496384 358.96475984 572.20581887 364.02291897 574.2109375 369.078125 C574.88177368 370.76639404 574.88177368 370.76639404 575.56616211 372.48876953 C576.84843796 375.72500059 578.12494543 378.96342876 579.3984375 382.203125 C579.69685547 382.95980469 579.99527344 383.71648437 580.30273438 384.49609375 C586.40889294 400.0644675 591.97676571 416.07386881 596.3984375 432.203125 C596.6577002 433.11908447 596.91696289 434.03504395 597.18408203 434.97875977 C605.90357652 465.90243997 612.14598411 497.27928969 616.14129639 529.16015625 C616.38771904 531.11796758 616.64311933 533.07464263 616.89892578 535.03125 C622.3170052 578.24141388 622.03144002 625.03588239 616.3984375 668.203125 C616.29897827 668.9790802 616.19951904 669.7550354 616.0970459 670.55450439 C609.82738477 719.19813533 598.50559966 766.7379617 581.9609375 812.953125 C581.6309375 813.88253906 581.3009375 814.81195312 580.9609375 815.76953125 C580.49880859 817.02830078 580.49880859 817.02830078 580.02734375 818.3125 C579.75994385 819.04436523 579.49254395 819.77623047 579.21704102 820.53027344 C578.3984375 822.203125 578.3984375 822.203125 576.3984375 823.203125 C576.05153311 825.20081578 575.7212952 827.20140723 575.3984375 829.203125 C574.53493281 831.6624738 573.64087198 834.04853446 572.6484375 836.453125 C572.37749268 837.11860352 572.10654785 837.78408203 571.82739258 838.46972656 C570.01680471 842.85767696 568.04124241 847.11506999 565.8515625 851.328125 C564.69029717 853.62568222 563.5866313 855.9292482 562.5078125 858.265625 C555.2155115 874.03840252 547.42174535 889.80158893 537.60546875 904.1796875 C536.39759329 906.20454021 535.83139036 907.8975206 535.3984375 910.203125 C534.7384375 910.203125 534.0784375 910.203125 533.3984375 910.203125 C533.13289063 910.92371094 532.86734375 911.64429688 532.59375 912.38671875 C531.38139036 915.24329163 529.96073469 917.66404817 528.2734375 920.265625 C527.64566406 921.23371094 527.01789063 922.20179688 526.37109375 923.19921875 C525.72011719 924.19050781 525.06914063 925.18179688 524.3984375 926.203125 C523.49931641 927.58177734 523.49931641 927.58177734 522.58203125 928.98828125 C511.35063453 946.03468087 499.24084767 962.33897126 486.3984375 978.203125 C485.67914062 979.09773437 484.95984375 979.99234375 484.21875 980.9140625 C479.79155653 986.38294856 475.23432262 991.68913877 470.49609375 996.890625 C468.70336304 998.86696872 466.95048523 1000.8676923 465.2109375 1002.890625 C453.11699469 1016.73610435 440.40101547 1030.66841553 426.33984375 1042.54296875 C423.86398753 1044.66014962 421.48182482 1046.87094329 419.0859375 1049.078125 C414.68111472 1053.09127407 410.17398103 1056.92130318 405.53515625 1060.66015625 C403.14077799 1062.59024629 400.77595637 1064.55296821 398.41796875 1066.52734375 C390.24261552 1073.3584964 381.9752747 1079.87273595 373.21582031 1085.93603516 C371.28296773 1087.2836312 369.36705304 1088.65301514 367.453125 1090.02734375 C352.96408962 1100.40770145 338.1746016 1110.38275595 322.55957031 1118.99951172 C319.88818536 1120.48730293 317.23379859 1122.00387683 314.578125 1123.51953125 C303.32394464 1129.91958988 292.07876088 1136.06866045 280.26025391 1141.36035156 C277.30482232 1142.69816297 274.3876527 1144.11632009 271.4609375 1145.515625 C260.26617021 1150.76930965 248.82852585 1155.49025338 237.3984375 1160.203125 C236.52509766 1160.5655127 235.65175781 1160.92790039 234.75195312 1161.30126953 C185.81539724 1181.41635586 131.92470149 1192.94738784 79.3984375 1198.203125 C78.56063751 1198.28926056 77.72283752 1198.37539612 76.85964966 1198.46414185 C58.97417359 1200.25247221 41.145027 1200.56666336 23.18973923 1200.52118301 C20.92720214 1200.51554087 18.66467254 1200.51272162 16.40213013 1200.51010132 C-5.07733722 1200.4739328 -26.27371583 1200.04998564 -47.6015625 1197.203125 C-49.00096472 1197.02838119 -50.40054938 1196.85509348 -51.80029297 1196.68310547 C-73.64440738 1193.98173699 -95.113061 1189.93448245 -116.6015625 1185.203125 C-118.24215242 1184.85139882 -119.88277079 1184.49980531 -121.5234375 1184.1484375 C-165.64867594 1174.46330822 -207.98963145 1157.67835044 -248.6015625 1138.203125 C-250.09260498 1137.4915625 -250.09260498 1137.4915625 -251.61376953 1136.765625 C-269.62660878 1128.12584382 -286.92329538 1118.20528022 -303.6015625 1107.203125 C-304.13700684 1106.8525 -304.67245117 1106.501875 -305.22412109 1106.140625 C-326.85987654 1091.96031254 -348.07441235 1076.94217534 -367.53515625 1059.8671875 C-370.38424437 1057.36898989 -373.32426534 1055.00078701 -376.2890625 1052.640625 C-381.12493354 1048.72214715 -385.48463389 1044.44709772 -389.80078125 1039.9765625 C-391.94184493 1037.85640181 -394.08837519 1035.88755122 -396.3671875 1033.92578125 C-401.00680903 1029.90852798 -405.33703927 1025.61466871 -409.6640625 1021.265625 C-410.8097168 1020.12577148 -410.8097168 1020.12577148 -411.97851562 1018.96289062 C-416.15963857 1014.77461434 -420.17046461 1010.49959987 -424.03100586 1006.0144043 C-426.23622312 1003.47118856 -428.54694657 1001.03119779 -430.8515625 998.578125 C-436.3316019 992.6636286 -441.26758281 986.39599155 -446.18798828 980.01513672 C-448.08693631 977.58094116 -450.03578975 975.18900274 -451.98339844 972.79370117 C-462.54269358 959.77759162 -472.1691344 946.05035497 -481.6015625 932.203125 C-481.98248047 931.64802246 -482.36339844 931.09291992 -482.75585938 930.52099609 C-483.89712793 928.85609226 -485.03071249 927.1859293 -486.1640625 925.515625 C-486.82535156 924.54238281 -487.48664063 923.56914063 -488.16796875 922.56640625 C-489.6015625 920.203125 -489.6015625 920.203125 -489.6015625 918.203125 C-490.2615625 917.873125 -490.9215625 917.543125 -491.6015625 917.203125 C-492.95699222 915.0144874 -494.23324118 912.829045 -495.4765625 910.578125 C-495.81558594 909.97355469 -496.15460938 909.36898437 -496.50390625 908.74609375 C-497.19022017 907.52221076 -497.87348002 906.29661026 -498.55371094 905.06933594 C-499.27266232 903.78889223 -500.00590318 902.51639856 -500.75097656 901.25097656 C-503.6015625 896.40623623 -503.6015625 896.40623623 -503.6015625 894.203125 C-504.2615625 893.873125 -504.9215625 893.543125 -505.6015625 893.203125 C-506.70694346 891.2164268 -507.73480455 889.18641408 -508.7265625 887.140625 C-509.35662497 885.85409522 -509.98683901 884.56763966 -510.6171875 883.28125 C-510.94396484 882.60900391 -511.27074219 881.93675781 -511.60742188 881.24414062 C-513.21178568 877.95030924 -514.84214097 874.66962227 -516.4765625 871.390625 C-516.80591797 870.72667725 -517.13527344 870.06272949 -517.47460938 869.37866211 C-519.22312008 865.87534807 -521.01870191 862.40751763 -522.8984375 858.97265625 C-527.40260048 850.72933053 -531.18745991 842.58066274 -534.33203125 833.7265625 C-535.60635262 830.18983059 -537.05222109 826.79728523 -538.61889648 823.3840332 C-542.70829964 814.30809821 -545.79839017 804.89187818 -548.92041016 795.45239258 C-549.72861872 793.00940965 -550.54167775 790.56808146 -551.35546875 788.12695312 C-551.87788806 786.55478181 -552.40003305 784.9825193 -552.921875 783.41015625 C-553.16148956 782.69019974 -553.40110413 781.97024323 -553.64797974 781.22846985 C-555.07294166 776.91356842 -556.37956926 772.58100714 -557.6015625 768.203125 C-557.88217529 767.21538086 -558.16278809 766.22763672 -558.4519043 765.20996094 C-567.30821406 733.67670962 -573.57950357 701.70705104 -577.6015625 669.203125 C-577.8493042 667.24366943 -577.8493042 667.24366943 -578.10205078 665.24462891 C-583.32125973 621.82318528 -582.90360542 575.58812308 -577.6015625 532.203125 C-577.51670593 531.49095825 -577.43184937 530.7787915 -577.34442139 530.04504395 C-570.60773308 473.65832156 -556.43553768 417.2476334 -533.6015625 365.203125 C-533.23063477 364.35234375 -532.85970703 363.5015625 -532.47753906 362.625 C-529.92241373 356.78471351 -527.2838181 350.98600861 -524.6015625 345.203125 C-524.15586914 344.23793945 -523.71017578 343.27275391 -523.25097656 342.27832031 C-516.44096895 327.5973087 -508.99970714 313.4374041 -500.86669922 299.44775391 C-499.7932299 297.54318484 -498.81342655 295.58630025 -497.85546875 293.62109375 C-496.6015625 291.203125 -496.6015625 291.203125 -494.6015625 290.203125 C-493.92514582 288.5403915 -493.2606466 286.87280472 -492.6015625 285.203125 C-478.410785 261.2379218 -461.41152374 238.57051037 -443.6015625 217.203125 C-443.12090332 216.62336914 -442.64024414 216.04361328 -442.14501953 215.44628906 C-436.62001265 208.7903436 -430.95660491 202.29575866 -425.04052734 195.98339844 C-422.52513611 193.30806778 -422.52513611 193.30806778 -420.6015625 190.203125 C-419.9415625 190.203125 -419.2815625 190.203125 -418.6015625 190.203125 C-418.25955811 189.37325073 -418.25955811 189.37325073 -417.91064453 188.52661133 C-416.22270736 185.530696 -414.09370714 183.45369978 -411.65625 181.02734375 C-411.16754425 180.53909622 -410.6788385 180.05084869 -410.17532349 179.54780579 C-409.14040583 178.51590302 -408.10306499 177.48642556 -407.06347656 176.45922852 C-405.49755581 174.91137608 -403.93959892 173.3558615 -402.3828125 171.79882812 C-397.48989844 166.92346997 -392.54563166 162.14899963 -387.29589844 157.65454102 C-384.90448255 155.60598663 -382.60183605 153.46465298 -380.2890625 151.328125 C-375.79792237 147.23235346 -371.18562156 143.3439092 -366.453125 139.53125 C-363.98693384 137.51775694 -361.57304468 135.45615848 -359.16894531 133.36938477 C-334.57216342 112.124968 -306.52200038 94.68509086 -278.6015625 78.203125 C-277.91433105 77.79271973 -277.22709961 77.38231445 -276.51904297 76.95947266 C-271.8331309 74.203125 -271.8331309 74.203125 -269.6015625 74.203125 C-269.2715625 73.543125 -268.9415625 72.883125 -268.6015625 72.203125 C-266.9485819 71.26454289 -265.25150987 70.40323423 -263.5390625 69.578125 C-262.44851563 69.04703125 -261.35796875 68.5159375 -260.234375 67.96875 C-259.64430664 67.68322266 -259.05423828 67.39769531 -258.44628906 67.10351562 C-255.91947534 65.8702058 -253.41197589 64.59982932 -250.90283203 63.33105469 C-247.47790887 61.60387763 -244.04076313 59.90165575 -240.6015625 58.203125 C-239.62606445 57.71972656 -239.62606445 57.71972656 -238.63085938 57.2265625 C-221.65142142 48.86431678 -203.95286344 42.07970235 -186.19921875 35.5546875 C-183.37782522 34.4947503 -180.6014776 33.3792357 -177.81640625 32.23046875 C-172.66830031 30.16128964 -167.44837295 28.60566686 -162.1015625 27.140625 C-160.34095834 26.65041247 -158.5805409 26.15952883 -156.8203125 25.66796875 C-155.95792969 25.42804199 -155.09554688 25.18811523 -154.20703125 24.94091797 C-150.82702526 23.98379858 -147.46439351 22.97343104 -144.10351562 21.95141602 C-97.90390359 8.1339091 -48.22610641 0.16995265 0 0 Z M-4.6015625 209.203125 C-7.8969732 215.96579298 -9.46572 223.10476611 -11.2265625 230.390625 C-11.69449219 232.29618164 -11.69449219 232.29618164 -12.171875 234.24023438 C-12.74830316 236.58942759 -13.32230726 238.93921793 -13.89306641 241.28979492 C-14.45405979 243.59659506 -15.02220427 245.90090127 -15.6015625 248.203125 C-15.84060303 249.15405029 -16.07964355 250.10497559 -16.32592773 251.0847168 C-16.60122314 252.17953369 -16.87651855 253.27435059 -17.16015625 254.40234375 C-17.78650402 256.89842604 -18.41280423 259.39452026 -19.0390625 261.890625 C-19.35166016 263.13263672 -19.66425781 264.37464844 -19.98632812 265.65429688 C-21.87696014 273.17435262 -21.87696014 273.17435262 -23.59765625 280.734375 C-25.20002723 288.11694136 -27.25815313 295.39753999 -29.2109375 302.69335938 C-29.51773437 303.85802734 -29.82453125 305.02269531 -30.140625 306.22265625 C-30.56142334 307.80203979 -30.56142334 307.80203979 -30.99072266 309.41333008 C-31.74415456 312.37838289 -31.74415456 312.37838289 -31.6015625 316.203125 C-35.18643671 315.48141612 -38.76909886 314.74919793 -42.3515625 314.015625 C-43.81722656 313.72075195 -43.81722656 313.72075195 -45.3125 313.41992188 C-55.48858168 311.32674052 -65.53638272 308.76700465 -75.6015625 306.203125 C-76.7970874 305.8989566 -77.9926123 305.59478821 -79.22436523 305.28140259 C-83.29557365 304.24553515 -87.3665603 303.20879793 -91.4375 302.171875 C-92.49658821 301.90211884 -92.49658821 301.90211884 -93.57707214 301.62691307 C-95.75191489 301.07293952 -97.9267406 300.51889915 -100.1015625 299.96484375 C-100.83012703 299.77926312 -101.55869156 299.5936825 -102.3093338 299.40247822 C-106.01157748 298.45926848 -109.71355462 297.5150328 -113.41503906 296.56884766 C-130.42863235 292.22074182 -147.44504508 287.95979082 -164.6015625 284.203125 C-166.53927069 289.18190165 -168.17512691 294.0314295 -169.4296875 299.234375 C-169.67467987 300.24002502 -169.67467987 300.24002502 -169.92462158 301.26599121 C-170.28775854 302.75789872 -170.64880259 304.25031678 -171.00805664 305.74316406 C-171.64923485 308.40071719 -172.29936103 311.05597268 -172.95117188 313.7109375 C-174.42300458 319.70710719 -175.88761029 325.70502726 -177.3515625 331.703125 C-177.86324167 333.79818675 -178.37496016 335.8932389 -178.88671875 337.98828125 C-180.12545235 343.05978548 -181.36365731 348.1314185 -182.6015625 353.203125 C-179.0392659 356.47540628 -175.09003027 357.26770419 -170.49609375 358.25390625 C-169.29988655 358.52584053 -169.29988655 358.52584053 -168.07951355 358.80326843 C-164.68947314 359.5736637 -161.29456694 360.32146774 -157.8996582 361.07006836 C-117.81703039 369.96640859 -117.81703039 369.96640859 -108.6015625 384.203125 C-100.47532202 399.03967012 -107.3829672 418.5409335 -111.24536133 433.59472656 C-111.85294243 436.02053013 -112.45885871 438.44675119 -113.06324768 440.87335205 C-114.36166909 446.07066272 -115.67145874 451.26489588 -116.99201393 456.45661163 C-118.90452783 463.9756949 -120.79581013 471.49999526 -122.68222853 479.02566215 C-125.74875275 491.25684802 -128.83201454 503.48374844 -131.92602539 515.70800781 C-134.92148259 527.54304141 -137.90905785 539.38001808 -140.88598633 551.21972656 C-141.06948384 551.94951305 -141.25298136 552.67929954 -141.44203941 553.43120077 C-142.36311038 557.09459361 -143.28402375 560.75802603 -144.20485651 564.42147875 C-145.99864074 571.55771189 -147.79346993 578.69368214 -149.58879089 585.82952881 C-149.8493329 586.86510338 -149.8493329 586.86510338 -150.11513837 587.92159864 C-154.49629164 605.33382491 -158.89304101 622.74210817 -163.29370117 640.14941406 C-166.96501342 654.67190267 -166.96501342 654.67190267 -170.6015625 669.203125 C-170.77738263 669.90215061 -170.95320276 670.60117622 -171.13435078 671.32138443 C-171.79822626 673.9952074 -172.40319657 676.68202738 -173.01953125 679.3671875 C-173.60872891 681.85431981 -174.19859927 684.34129284 -174.7890625 686.828125 C-175.20768555 688.67857422 -175.20768555 688.67857422 -175.63476562 690.56640625 C-177.68266921 699.07447368 -180.22140011 708.48925022 -187.7890625 713.765625 C-203.00021802 721.5402156 -224.09582941 712.79023906 -239.36328125 708.65625 C-240.23315674 708.42123779 -241.10303223 708.18622559 -241.99926758 707.9440918 C-243.6076717 707.50359164 -245.21323218 707.0525222 -246.81518555 706.58911133 C-251.75307357 705.15368014 -251.75307357 705.15368014 -256.6015625 706.203125 C-257.95312043 707.97649437 -257.95312043 707.97649437 -258.93359375 710.30859375 C-259.35463379 711.21399902 -259.77567383 712.1194043 -260.20947266 713.05224609 C-260.89855713 714.61193115 -260.89855713 714.61193115 -261.6015625 716.203125 C-262.12411621 717.37568848 -262.64666992 718.54825195 -263.18505859 719.75634766 C-264.91315062 723.66466982 -266.60206199 727.5894369 -268.2890625 731.515625 C-268.87540442 732.87315342 -269.46199154 734.23057596 -270.04882812 735.58789062 C-272.89810992 742.14673353 -272.89810992 742.14673353 -275.61572266 748.76049805 C-276.73929444 751.54438505 -277.98001265 754.25875524 -279.23828125 756.984375 C-279.73263672 758.07363281 -280.22699219 759.16289063 -280.73632812 760.28515625 C-281.7734985 762.56823569 -282.82043013 764.84690527 -283.87695312 767.12109375 C-284.36744141 768.21035156 -284.85792969 769.29960938 -285.36328125 770.421875 C-286.043302 771.9059082 -286.043302 771.9059082 -286.73706055 773.41992188 C-287.69207251 776.49451559 -287.51364722 778.15472279 -286.6015625 781.203125 C-282.95645752 782.16424284 -279.31034971 783.12150298 -275.6640625 784.078125 C-274.13168945 784.48224609 -274.13168945 784.48224609 -272.56835938 784.89453125 C-264.11280944 787.10972324 -255.65205788 789.04449236 -247.05859375 790.640625 C-244.6015625 791.203125 -244.6015625 791.203125 -241.82177734 792.15161133 C-238.76586384 793.14947482 -235.75954511 793.90213928 -232.62109375 794.58984375 C-225.45615977 796.20877982 -218.37776848 798.09367401 -211.2890625 800.015625 C-201.74893593 802.58779403 -192.19536997 805.08722259 -182.6015625 807.453125 C-174.21009127 809.52306287 -165.88225104 811.72474991 -157.6015625 814.203125 C-158.14871364 820.28874315 -159.14884552 825.8272378 -160.88964844 831.6730957 C-161.34515923 833.25751677 -161.79884951 834.84246219 -162.25085449 836.42788696 C-162.59215645 837.62198874 -162.59215645 837.62198874 -162.94035339 838.84021378 C-163.9615047 842.48942226 -164.89145206 846.15942392 -165.80566406 849.83666992 C-165.98330166 850.55098332 -166.16093925 851.26529673 -166.34395981 852.00125599 C-166.89551319 854.2281784 -167.44405331 856.45582748 -167.9921875 858.68359375 C-168.38608071 860.27780806 -168.78010625 861.87198968 -169.17425537 863.46614075 C-169.98934353 866.76549029 -170.80249503 870.0653093 -171.61425781 873.36547852 C-172.65122505 877.58028832 -173.69375782 881.79369969 -174.73776627 886.00677013 C-175.54832237 889.28077618 -176.35567685 892.55556539 -177.16210175 895.8305912 C-177.54538066 897.38528595 -177.92970501 898.93972338 -178.31513214 900.49388695 C-178.8517354 902.65943395 -179.38392838 904.82602025 -179.91503906 906.99291992 C-180.21750549 908.21992111 -180.51997192 909.4469223 -180.831604 910.71110535 C-181.60650868 914.22555757 -182.3026651 917.61441067 -182.6015625 921.203125 C-180.25515139 924.72274166 -179.57614914 924.76958852 -175.625 925.74609375 C-174.05214233 926.14429321 -174.05214233 926.14429321 -172.44750977 926.55053711 C-171.30209717 926.82776611 -170.15668457 927.10499512 -168.9765625 927.390625 C-167.20720337 927.83257202 -167.20720337 927.83257202 -165.40209961 928.28344727 C-162.84152275 928.92213272 -160.2802093 929.55648175 -157.71728516 930.18554688 C-153.41573326 931.24443017 -149.12387304 932.34004179 -144.83203125 933.4375 C-142.6548277 933.99166728 -140.47741412 934.54499822 -138.29986572 935.09780884 C-136.87995208 935.45868107 -135.46031265 935.82063404 -134.04095459 936.1836853 C-132.04278989 936.69360697 -130.04313675 937.19722105 -128.04296875 937.69921875 C-126.32122437 938.13512329 -126.32122437 938.13512329 -124.56469727 938.57983398 C-121.45383584 939.34035425 -121.45383584 939.34035425 -117.6015625 939.203125 C-114.36651124 931.43900197 -112.56103266 923.35875757 -110.6015625 915.203125 C-110.30958984 914.07777344 -110.30958984 914.07777344 -110.01171875 912.9296875 C-109.50848944 910.94459064 -109.50848944 910.94459064 -109.1640625 907.828125 C-108.627947 904.37315848 -107.72349079 901.50658051 -106.6015625 898.203125 C-105.8509531 895.36600018 -105.15079974 892.51856908 -104.453125 889.66796875 C-103.85647775 887.24032603 -103.24591041 884.81608186 -102.625 882.39453125 C-100.55310514 874.30867585 -98.74657303 866.22583505 -97.21484375 858.01953125 C-96.6015625 855.203125 -96.6015625 855.203125 -95.6015625 854.203125 C-95.4365625 853.048125 -95.2715625 851.893125 -95.1015625 850.703125 C-94.6015625 847.203125 -94.6015625 847.203125 -93.6015625 846.203125 C-93.06719666 843.98932367 -92.63871638 841.76176447 -92.19921875 839.52734375 C-91.59957142 837.19538191 -90.70650085 835.33201585 -89.6015625 833.203125 C-82.55131739 833.66511223 -76.16121916 834.95759974 -69.4140625 837.015625 C-67.57839365 837.5569015 -65.74245383 838.09725987 -63.90625 838.63671875 C-62.56385254 839.03479736 -62.56385254 839.03479736 -61.19433594 839.44091797 C-57.48751993 840.53062414 -53.76842876 841.56862656 -50.0390625 842.578125 C-48.88277344 842.89523437 -47.72648438 843.21234375 -46.53515625 843.5390625 C-43.4526491 844.35031102 -43.4526491 844.35031102 -39.6015625 844.203125 C-40.27216445 851.14385518 -41.86217924 857.70891256 -43.6015625 864.453125 C-43.87484375 865.52820313 -44.148125 866.60328125 -44.4296875 867.7109375 C-44.93532734 869.6987961 -45.44290873 871.68616266 -45.953125 873.67285156 C-46.51049866 875.84778403 -47.05920453 878.02441325 -47.6015625 880.203125 C-54.6015625 908.203125 -54.6015625 908.203125 -55.15625 910.40820312 C-55.84020104 913.16500577 -56.46659671 915.93467416 -57.1015625 918.703125 C-58.26364288 923.76979546 -59.49156073 928.80501581 -60.828125 933.828125 C-61.29457389 935.61971279 -61.76070937 937.4113822 -62.2265625 939.203125 C-62.59007812 940.55664062 -62.59007812 940.55664062 -62.9609375 941.9375 C-63.18523437 942.80890625 -63.40953125 943.6803125 -63.640625 944.578125 C-63.95314209 945.76535156 -63.95314209 945.76535156 -64.27197266 946.9765625 C-64.62651501 949.37169303 -64.34888986 950.92009529 -63.6015625 953.203125 C-47.68877223 957.65986268 -31.7555608 962.07413844 -15.69512939 965.97213745 C-13.74755183 966.4479966 -11.80414753 966.94083126 -9.86083984 967.43383789 C-8.68473145 967.71348389 -7.50862305 967.99312988 -6.296875 968.28125 C-5.26578613 968.53293945 -4.23469727 968.78462891 -3.17236328 969.04394531 C-0.60926735 969.48628792 -0.60926735 969.48628792 0.97669983 967.98262024 C2.61199258 965.9358322 3.10840259 964.43058708 3.71704102 961.89038086 C3.93058731 961.02195053 4.14413361 960.1535202 4.364151 959.2587738 C4.58300461 958.32130814 4.80185822 957.38384247 5.02734375 956.41796875 C5.26251205 955.44710831 5.49768036 954.47624786 5.73997498 953.47596741 C6.49032878 950.36649937 7.22555688 947.25366414 7.9609375 944.140625 C8.45934867 942.0707375 8.95868741 940.00107313 9.45898438 937.93164062 C11.41908443 929.77899584 13.36874666 921.64585206 14.91822815 913.40341187 C15.38431505 911.26783312 16.00078725 909.27209189 16.734375 907.21484375 C19.10269405 900.43906805 20.6927081 893.43410435 22.41503906 886.47290039 C23.02480819 884.01008888 23.64090223 881.54892195 24.2578125 879.08789062 C24.65141534 877.50790554 25.04465712 875.92783046 25.4375 874.34765625 C25.61979156 873.6194014 25.80208313 872.89114655 25.98989868 872.14082336 C26.96651171 868.1797495 27.7872183 864.23693453 28.3984375 860.203125 C29.15350586 860.34935303 29.90857422 860.49558105 30.68652344 860.64624023 C34.17261401 861.31752303 37.66047967 861.97911576 41.1484375 862.640625 C42.33566406 862.87072266 43.52289062 863.10082031 44.74609375 863.33789062 C51.440916 864.60002925 58.02547205 865.52869068 64.82128906 866.00805664 C68.86221973 866.31392095 72.81507113 867.01673939 76.8046875 867.703125 C88.76359548 869.36697307 100.72215539 869.44530895 112.7734375 869.453125 C113.70907532 869.45379974 114.64471313 869.45447449 115.60870361 869.45516968 C129.41426092 869.43935626 142.84346547 869.05456783 156.3984375 866.203125 C157.21747559 866.04215332 158.03651367 865.88118164 158.88037109 865.71533203 C181.23712281 861.22326901 200.97782267 851.91386641 218.3984375 837.203125 C219.21054687 836.53796875 220.02265625 835.8728125 220.859375 835.1875 C236.54551327 821.82706677 246.80295045 803.66443263 255.3984375 785.203125 C255.86080811 784.2138501 255.86080811 784.2138501 256.33251953 783.20458984 C262.76344977 769.1981544 267.74480131 753.83640912 269.13647461 738.43920898 C269.41862124 736.03083904 269.91121467 733.72887755 270.44140625 731.36328125 C271.60045194 725.77506375 271.74322471 720.33424423 271.7109375 714.640625 C271.70529785 713.59068359 271.6996582 712.54074219 271.69384766 711.45898438 C271.27892892 684.55910403 261.51154707 661.93528347 243.3984375 642.203125 C242.68042969 641.40261719 241.96242188 640.60210938 241.22265625 639.77734375 C230.91197278 628.84530082 217.58491176 620.27666417 204.3984375 613.203125 C203.7384375 613.203125 203.0784375 613.203125 202.3984375 613.203125 C205.03194564 609.90183444 207.91823854 609.27844275 211.8984375 608.140625 C226.16198693 603.7066907 239.48663477 596.42269317 250.3984375 586.203125 C251.16027344 585.53152344 251.92210937 584.85992188 252.70703125 584.16796875 C275.28822788 563.23046408 284.31200915 530.2551018 285.71484375 500.46875 C286.62547441 469.71368271 276.52892996 443.45019942 255.390625 420.9765625 C244.6259611 409.77802513 232.8392592 401.021843 219.3984375 393.203125 C218.51212646 392.67984619 218.51212646 392.67984619 217.60791016 392.14599609 C201.47419892 382.64327858 184.62383572 374.92014027 167.2109375 368.078125 C166.58554077 367.8319342 165.96014404 367.58574341 165.3157959 367.33209229 C159.0322759 364.46832549 159.0322759 364.46832549 152.3984375 363.203125 C152.873065 360.8896891 153.35326029 358.57739481 153.8359375 356.265625 C154.10277344 354.97785156 154.36960937 353.69007813 154.64453125 352.36328125 C155.3984375 349.203125 155.3984375 349.203125 156.3984375 348.203125 C156.75683972 345.87351057 157.08692462 343.53947157 157.3984375 341.203125 C157.81651066 338.63496131 158.1740947 336.62376775 159.3984375 334.328125 C160.57353728 332.1057205 160.57353728 332.1057205 160.8359375 329.015625 C161.2880833 325.95108126 161.88288246 323.58298398 162.8984375 320.703125 C163.87174532 317.93294119 164.47866908 315.64150397 164.8984375 312.703125 C165.29544879 309.92404596 165.79232674 307.86426186 166.7109375 305.265625 C168.87254766 299.07460562 170.32613402 292.70250757 171.87353516 286.33789062 C172.39384295 284.22181092 172.9302482 282.11051417 173.47265625 280 C174.48081358 276.07527175 175.44588126 272.14173799 176.3984375 268.203125 C176.67429687 267.11128906 176.95015625 266.01945312 177.234375 264.89453125 C177.45351563 263.92386719 177.67265625 262.95320313 177.8984375 261.953125 C178.19234375 260.70789063 178.19234375 260.70789063 178.4921875 259.4375 C178.61561877 257.05572806 178.61561877 257.05572806 176.74302673 255.17218018 C174.06478846 252.9229167 172.1747431 252.28464241 168.79125977 251.46386719 C167.66651749 251.18387878 166.54177521 250.90389038 165.38294983 250.61541748 C164.17247482 250.32982971 162.96199982 250.04424194 161.71484375 249.75 C160.46718735 249.44491516 159.21953094 249.13983032 157.93406677 248.82550049 C155.29750915 248.18154394 152.65892045 247.54705068 150.01831055 246.91992188 C146.64126892 246.11767612 143.26876997 245.29803032 139.89747715 244.47199631 C136.67158053 243.68279728 133.44323685 242.90392745 130.21484375 242.125 C129.00639297 241.83131531 127.7979422 241.53763062 126.5528717 241.23504639 C125.42497726 240.96766663 124.29708282 240.70028687 123.13500977 240.42480469 C122.14557877 240.18816101 121.15614777 239.95151733 120.13673401 239.70770264 C117.48655236 239.21936166 115.08568995 239.10730967 112.3984375 239.203125 C110.41355108 247.22844989 108.43092095 255.25432787 106.45088768 263.28085136 C105.53062805 267.01105799 104.60969597 270.74109543 103.68701172 274.47070312 C102.61730208 278.79504043 101.55012683 283.11999819 100.484375 287.4453125 C100.30869743 288.15754723 100.13301987 288.86978195 99.95201874 289.60359955 C97.32783767 300.25442531 94.80046619 310.92350274 92.4571228 321.64035034 C90.88452459 328.66413996 88.78486592 335.41398806 86.3984375 342.203125 C80.01892003 341.52923231 73.89194214 340.28578605 67.6484375 338.828125 C66.67849854 338.60479492 65.70855957 338.38146484 64.70922852 338.15136719 C58.70147565 336.76120989 52.70846062 335.32541669 46.73828125 333.78125 C45.09435763 333.37507188 43.43885846 333.01435535 41.77734375 332.6875 C39.3984375 332.203125 39.3984375 332.203125 36.3984375 331.203125 C36.34290301 329.87029725 36.30497561 328.53673635 36.2734375 327.203125 C36.25023437 326.460625 36.22703125 325.718125 36.203125 324.953125 C36.46682427 321.24023924 37.44786584 317.7857176 38.3984375 314.203125 C38.91845942 312.11274664 39.435087 310.02152235 39.94921875 307.9296875 C42.73341761 296.69173466 45.53050993 285.46862373 48.68798828 274.32910156 C50.76104855 266.99472153 52.58357766 259.6052171 54.3984375 252.203125 C55.32236304 248.47912567 56.25510998 244.75791907 57.21484375 241.04296875 C57.58416016 239.60630859 57.58416016 239.60630859 57.9609375 238.140625 C58.33412109 236.70009766 58.33412109 236.70009766 58.71484375 235.23046875 C59.4660612 231.90364864 59.9553079 228.58357078 60.3984375 225.203125 C45.70819378 221.35379974 31.00130895 217.57347621 16.27185059 213.87716675 C14.64689293 213.46921728 13.02213692 213.06046374 11.39758301 212.65090942 C9.10550013 212.07343783 6.81264694 211.49913592 4.51953125 210.92578125 C3.82800461 210.75111328 3.13647797 210.57644531 2.42399597 210.39648438 C-1.0469486 209.50472761 -1.0469486 209.50472761 -4.6015625 209.203125 Z " fill="#FEFEFE" transform="translate(580.6015625,-0.203125)"/>
<path d="M0 0 C9.04626869 -0.6681903 17.33346735 1.80145152 26 4.0625 C27.62080768 4.47834549 29.24174006 4.89370525 30.86279297 5.30859375 C34.85869494 6.3357521 38.85023731 7.37869239 42.83972168 8.43048096 C44.7926202 8.945328 46.74635911 9.45698471 48.70019531 9.96826172 C86.3424978 19.88729182 137.7449993 33.53425435 159.52807617 69.3762207 C168.45426235 85.0060001 170.50197506 101.8744106 165.83398438 119.265625 C161.28520729 134.76516173 151.74382383 147.57142365 137.4453125 155.3984375 C86.12556412 179.94266499 18.72347476 159.80835678 -33 145 C-33.66 144.67 -34.32 144.34 -35 144 C-36.9116568 138.20907868 -34.9449596 133.37984743 -33.1875 127.8125 C-31.22090949 121.30603221 -29.47422285 114.96275042 -28.41796875 108.23828125 C-28.0045269 106.02424219 -27.38964398 104.0534196 -26.625 101.9375 C-23.42454851 92.97297006 -21.82784327 83.32573099 -20 74 C-19.34 74 -18.68 74 -18 74 C-17.87496094 72.71480469 -17.74992188 71.42960938 -17.62109375 70.10546875 C-17.06378808 65.10147109 -16.12352117 60.2310628 -15.0625 55.3125 C-14.89298828 54.49716797 -14.72347656 53.68183594 -14.54882812 52.84179688 C-13.61307878 48.44057278 -12.43066843 44.26947508 -11 40 C-10.29193794 37.11735461 -9.67849971 34.21601802 -9.0625 31.3125 C-7.57873055 24.47621584 -5.93611396 17.72422811 -4 11 C-3.81566406 10.31421875 -3.63132812 9.6284375 -3.44140625 8.921875 C-2.57797955 5.73589741 -1.52096529 2.92202045 0 0 Z " fill="#FEFEFE" transform="translate(548,608)"/>
<path d="M0 0 C5.7467598 0.08040104 11.18771859 1.45403939 16.75390625 2.78515625 C17.89279297 3.05328125 19.03167969 3.32140625 20.20507812 3.59765625 C31.52232481 6.32182988 42.62045686 9.63853594 53.69140625 13.22265625 C54.54299316 13.4964209 55.39458008 13.77018555 56.27197266 14.05224609 C64.85252019 16.82086703 73.42967744 19.59378562 81.69140625 23.22265625 C82.29774902 23.48240234 82.9040918 23.74214844 83.52880859 24.00976562 C104.51344693 33.06960948 124.97457309 46.81539673 133.73828125 68.85546875 C139.37294859 86.66314385 136.30558296 103.40605066 127.96264648 119.69287109 C122.72450863 129.24820798 115.28126081 135.26028706 105.69140625 140.22265625 C104.96179688 140.60164062 104.2321875 140.980625 103.48046875 141.37109375 C80.11917458 152.58788842 49.46565649 149.73275388 24.69140625 145.22265625 C23.4686499 145.00585205 23.4686499 145.00585205 22.22119141 144.78466797 C7.91368243 142.20743266 -6.20981929 138.74673204 -20.30859375 135.22265625 C-21.11312988 135.02639648 -21.91766602 134.83013672 -22.74658203 134.62792969 C-24.75088452 134.13567621 -26.74888766 133.61795404 -28.74609375 133.09765625 C-29.79667969 132.82695313 -30.84726562 132.55625 -31.9296875 132.27734375 C-34.30859375 131.22265625 -34.30859375 131.22265625 -35.70703125 129.25 C-36.56491723 126.35881284 -35.51347631 124.94949574 -34.30859375 122.22265625 C-33.95895195 119.89171091 -33.62304888 117.55860863 -33.30859375 115.22265625 C-32.81359375 114.72765625 -32.81359375 114.72765625 -32.30859375 114.22265625 C-31.95019153 111.89304182 -31.62010663 109.55900282 -31.30859375 107.22265625 C-30.89052059 104.65449256 -30.53293655 102.643299 -29.30859375 100.34765625 C-28.13349397 98.12525175 -28.13349397 98.12525175 -27.87109375 95.03515625 C-27.42759021 92.02918778 -26.87602464 89.78143808 -25.87109375 86.97265625 C-24.68206893 83.58939239 -23.90219928 80.32184802 -23.30859375 76.78515625 C-22.55546428 72.30994892 -21.45670587 68.09245334 -20.1015625 63.765625 C-18.33883946 58.11275456 -16.61861384 52.47030188 -15.80859375 46.59765625 C-15.40705658 43.88728034 -14.89223992 41.82982799 -13.99609375 39.28515625 C-12.47918787 34.94366701 -11.3035065 30.55428482 -10.18359375 26.09765625 C-10.01303467 25.42871338 -9.84247559 24.75977051 -9.66674805 24.07055664 C-8.61016814 19.80798438 -7.87152553 15.57599537 -7.30859375 11.22265625 C-5.49983753 0.37011894 -5.49983753 0.37011894 0 0 Z " fill="#FDFDFD" transform="translate(600.30859375,409.77734375)"/>
<path d="" fill="#000000" transform="translate(0,0)"/>
<path d="" fill="#000000" transform="translate(0,0)"/>
<path d="" fill="#000000" transform="translate(0,0)"/>
<path d="" fill="#000000" transform="translate(0,0)"/>
<path d="" fill="#000000" transform="translate(0,0)"/>
<path d="" fill="#000000" transform="translate(0,0)"/>
<path d="" fill="#000000" transform="translate(0,0)"/>
</svg>
