<?xml version="1.0" encoding="UTF-8"?>
<svg version="1.1" xmlns="http://www.w3.org/2000/svg" width="512" height="512">
<path d="M0 0 C0.9369873 0.16097168 1.87397461 0.32194336 2.83935547 0.48779297 C25.38300016 4.51662286 47.45641453 11.89467549 68 22 C68.74588379 22.3614209 69.49176758 22.7228418 70.26025391 23.09521484 C103.09879064 39.15191262 133.42968402 63.1952261 156 92 C156.77859375 92.96164063 157.5571875 93.92328125 158.359375 94.9140625 C186.34020155 130.11287297 202.74911406 171.9224366 210 216 C210.20133545 217.20197021 210.20133545 217.20197021 210.40673828 218.42822266 C218.35750721 268.46998206 208.09837515 321.89444207 186 367 C185.64325195 367.7326709 185.28650391 368.4653418 184.91894531 369.22021484 C176.82746746 385.64376802 166.55894744 400.82137435 155 415 C154.55221191 415.55075195 154.10442383 416.10150391 153.64306641 416.66894531 C142.68752497 430.03493434 130.69401046 442.4236461 117 453 C115.56527344 454.16015625 115.56527344 454.16015625 114.1015625 455.34375 C78.91584715 483.35051587 37.07469824 499.7388458 -7 507 C-7.79599609 507.13422363 -8.59199219 507.26844727 -9.41210938 507.40673828 C-34.76935329 511.47098545 -62.81215817 510.3603584 -88 506 C-89.38372803 505.76651855 -89.38372803 505.76651855 -90.79541016 505.52832031 C-150.11729398 495.11294838 -206.99740984 461.69222732 -244 414 C-244.64839844 413.21882813 -245.29679687 412.43765625 -245.96484375 411.6328125 C-279.00317556 371.72512458 -299.91462217 316.52767409 -300.203125 264.6796875 C-300.21018463 263.82649933 -300.21724426 262.97331116 -300.22451782 262.0942688 C-300.62474035 199.47970391 -283.79933899 141.14648958 -244 92 C-243.55994629 91.45553223 -243.11989258 90.91106445 -242.66650391 90.35009766 C-231.20689965 76.30112269 -218.45819936 62.98035715 -204 52 C-203.09636719 51.29101562 -202.19273437 50.58203125 -201.26171875 49.8515625 C-166.4480399 22.99933389 -125.39233412 5.75089661 -82 -1 C-80.93990723 -1.17571533 -80.93990723 -1.17571533 -79.85839844 -1.35498047 C-54.11642052 -5.47394175 -25.57438501 -4.47185374 0 0 Z M-49 87 C-50.01855456 88.56724599 -50.98384086 90.16908143 -51.9296875 91.78125 C-52.55045166 92.8345752 -53.17121582 93.88790039 -53.81079102 94.97314453 C-54.14587677 95.54566956 -54.48096252 96.11819458 -54.82620239 96.70806885 C-55.88862886 98.5232857 -56.9553051 100.33594078 -58.02319336 102.14794922 C-59.55406187 104.74596635 -61.08337917 107.3448878 -62.61181641 109.94433594 C-66.57649673 116.68240445 -70.57039932 123.40315576 -74.5625 130.125 C-75.16251831 131.13587677 -75.16251831 131.13587677 -75.7746582 132.16717529 C-81.72908014 142.19869059 -87.71771738 152.20897772 -93.7277832 162.20727539 C-98.11927614 169.51814334 -102.47141215 176.8513421 -106.80395508 184.19726562 C-111.29673696 191.81413136 -115.80361172 199.42254924 -120.31735229 207.02700806 C-121.14384707 208.41959736 -121.97012262 209.81231678 -122.7961731 211.20516968 C-126.80143178 217.95851831 -130.81268257 224.70733449 -134.8828125 231.421875 C-135.7325061 232.82542236 -135.7325061 232.82542236 -136.59936523 234.25732422 C-137.6287735 235.95406755 -138.66191326 237.64855483 -139.69946289 239.34033203 C-142.12422481 242.91289124 -142.12422481 242.91289124 -143 247 C-138.10239482 246.32413292 -133.94117138 244.35586922 -129.4765625 242.34375 C-128.21310249 241.78198814 -128.21310249 241.78198814 -126.92411804 241.20887756 C-124.15572347 239.97706846 -121.39041643 238.73847863 -118.625 237.5 C-114.73666841 235.76730109 -110.84680537 234.03805138 -106.95703125 232.30859375 C-105.47220497 231.64753883 -105.47220497 231.64753883 -103.9573822 230.97312927 C-97.23840315 227.98463103 -90.50616983 225.02819314 -83.76171875 222.09765625 C-82.87343384 221.71165253 -81.98514893 221.3256488 -81.06994629 220.927948 C-77.65381511 219.44455308 -74.23713255 217.96245365 -70.81890869 216.48388672 C-68.4787558 215.47150894 -66.13971708 214.45659191 -63.80078125 213.44140625 C-63.12544846 213.15048599 -62.45011566 212.85956573 -61.75431824 212.55982971 C-57.06829822 210.52348757 -52.58693618 208.29346809 -48 206 C-48 166.73 -48 127.46 -48 87 C-48.33 87 -48.66 87 -49 87 Z M-40 87 C-40 126.27 -40 165.54 -40 206 C-29.94943723 211.03995766 -29.94943723 211.03995766 -19.73828125 215.671875 C-18.63112511 216.15240326 -18.63112511 216.15240326 -17.50160217 216.64263916 C-15.10655307 217.68150068 -12.7095809 218.71583644 -10.3125 219.75 C-6.86263482 221.24330154 -3.41369522 222.73873399 0.03515625 224.234375 C0.92205139 224.61863647 1.80894653 225.00289795 2.72271729 225.39880371 C9.32650955 228.26353072 15.91411295 231.16367576 22.49609375 234.078125 C24.37604145 234.90921698 26.25600545 235.74027212 28.13598633 236.57128906 C30.86716378 237.77876524 33.59759092 238.98780112 36.32577515 240.20202637 C38.85325284 241.3266513 41.38336475 242.44514407 43.9140625 243.5625 C45.03493507 244.06441864 45.03493507 244.06441864 46.17845154 244.57647705 C49.77263717 246.15690463 53.07861849 247.43939124 57 248 C52.31134706 239.20378113 47.29003573 230.62182402 42.1875 222.0625 C41.34372861 220.64389293 40.49997901 219.2252729 39.65625 217.80664062 C33.97821763 208.27004917 28.23819878 198.77248311 22.46102905 189.29568481 C16.73745443 179.90470035 11.10189571 170.46401245 5.5 161 C-2.51801495 147.45714707 -10.6488538 133.98781577 -18.84130859 120.54980469 C-21.16089759 116.73986076 -23.46528319 112.92079683 -25.76953125 109.1015625 C-26.94508126 107.15567488 -28.1208938 105.20994618 -29.29681396 103.26428223 C-30.0514124 102.01446469 -30.80504958 100.76406623 -31.55767822 99.51306152 C-32.59704424 97.78578281 -33.64022763 96.06080288 -34.68359375 94.3359375 C-35.27712646 93.35157715 -35.87065918 92.3672168 -36.48217773 91.35302734 C-37.92553601 88.93385458 -37.92553601 88.93385458 -40 87 Z M-56.265625 217.24609375 C-57.36334229 217.7450415 -58.46105957 218.24398926 -59.59204102 218.75805664 C-60.18493927 219.03038116 -60.77783752 219.30270569 -61.38870239 219.58328247 C-64.64246408 221.07655268 -67.90556284 222.54917202 -71.16796875 224.0234375 C-71.86989853 224.34105545 -72.57182831 224.6586734 -73.29502869 224.98591614 C-82.01607913 228.92402834 -90.7882586 232.74474203 -99.5625 236.5625 C-100.79790024 237.1003714 -100.79790024 237.1003714 -102.05825806 237.64910889 C-117.0136456 244.15827883 -131.99568278 250.60444029 -147 257 C-145.67991189 260.96026434 -144.16003835 261.32774538 -140.55078125 263.3359375 C-139.40424072 263.98103271 -138.2577002 264.62612793 -137.07641602 265.29077148 C-136.4633963 265.63018768 -135.85037659 265.96960388 -135.21878052 266.31930542 C-132.63851814 267.74824989 -130.06973403 269.19725936 -127.50022888 270.64543152 C-126.19427987 271.38129857 -124.88776756 272.11616681 -123.58070374 272.85005188 C-118.02902529 275.96989011 -112.53470454 279.18023539 -107.0625 282.4375 C-105.29960188 283.48458164 -103.53657778 284.53145118 -101.7734375 285.578125 C-100.86045898 286.12017578 -99.94748047 286.66222656 -99.00683594 287.22070312 C-91.83494946 291.46467103 -84.63917716 295.66822169 -77.44628906 299.87646484 C-72.10310477 303.00333497 -66.76264915 306.13394295 -61.4453125 309.3046875 C-60.24805542 310.01685425 -60.24805542 310.01685425 -59.02661133 310.7434082 C-57.59716127 311.59502565 -56.16975607 312.45008924 -54.74487305 313.30932617 C-51.59170877 315.34085861 -51.59170877 315.34085861 -48 316 C-48 282.67 -48 249.34 -48 215 C-51.43907717 215 -53.15033352 215.81644838 -56.265625 217.24609375 Z M-40 215 C-40 248.33 -40 281.66 -40 316 C-36.67813679 314.67125471 -33.90901125 313.4841726 -30.8671875 311.7421875 C-30.07546143 311.28996826 -29.28373535 310.83774902 -28.46801758 310.37182617 C-27.61232178 309.87787354 -26.75662598 309.3839209 -25.875 308.875 C-24.96194092 308.35075439 -24.04888184 307.82650879 -23.1081543 307.28637695 C-14.4858583 302.31738826 -5.93199799 297.23392721 2.61987305 292.14501953 C10.52148747 287.44701515 18.46533698 282.82762935 26.4375 278.25 C37.37484651 271.96911477 48.21695847 265.54195847 59 259 C55.91362115 255.65129472 52.30502143 254.16577351 48.1796875 252.40234375 C47.38468338 252.05568665 46.58967926 251.70902954 45.77058411 251.35186768 C43.14152081 250.20718159 40.50830141 249.07239831 37.875 247.9375 C36.04110544 247.14111064 34.20753226 246.34398082 32.37426758 245.54614258 C28.53895834 243.87759513 24.7022562 242.21230692 20.86474609 240.54882812 C15.09593869 238.04522733 9.33750333 235.5184584 3.58203125 232.984375 C2.66228516 232.57953384 1.74253906 232.17469269 0.79492188 231.75758362 C-2.77340724 230.18663718 -6.34154015 228.61524582 -9.90948486 227.04342651 C-24.57581556 219.17666416 -24.57581556 219.17666416 -40 215 Z M-146 282 C-141.81953735 288.86280728 -137.3244907 295.37399436 -132.53955078 301.82104492 C-128.62439743 307.11117067 -124.82730918 312.47701907 -121.0625 317.875 C-120.46953125 318.72489502 -119.8765625 319.57479004 -119.265625 320.45043945 C-118.07954485 322.15105955 -116.89367011 323.85182292 -115.70800781 325.55273438 C-113.12741675 329.25025364 -110.53573131 332.93985918 -107.9375 336.625 C-107.45216797 337.31335938 -106.96683594 338.00171875 -106.46679688 338.7109375 C-102.87248643 343.79533956 -99.2222458 348.8375897 -95.5625 353.875 C-90.53785272 360.79484981 -85.68103691 367.81507836 -80.87744141 374.88964844 C-76.63463861 381.11923137 -72.26194806 387.24448748 -67.82666016 393.33813477 C-63.43352745 399.37685341 -59.12627021 405.47270957 -54.86889648 411.60791016 C-54.40427002 412.27226074 -53.93964355 412.93661133 -53.4609375 413.62109375 C-53.05665527 414.2030249 -52.65237305 414.78495605 -52.23583984 415.38452148 C-50.94245428 417.07522324 -49.51608981 418.50919407 -48 420 C-47.79131275 409.54292344 -47.631478 399.08634338 -47.53369045 388.62760735 C-47.48675175 383.770846 -47.4231107 378.91551077 -47.32104492 374.05957031 C-47.22312773 369.37157354 -47.16941738 364.68494654 -47.14610481 359.99600601 C-47.12949651 358.20886795 -47.09706093 356.42180355 -47.04842949 354.63525009 C-46.41502003 345.07452051 -46.41502003 345.07452051 -49.90447998 336.62979126 C-52.23079472 335.0496207 -54.38661091 334.01875068 -57 333 C-58.5196365 332.13769996 -60.02920832 331.25717588 -61.5234375 330.3515625 C-63.13918261 329.44014654 -64.75644753 328.5314211 -66.375 327.625 C-74.70693732 322.91264406 -82.96308806 318.08495728 -91.1875 313.1875 C-101.46092686 307.07187575 -111.78910212 301.06337468 -122.16088867 295.11572266 C-128.8228901 291.28624882 -135.40271339 287.36456793 -141.875 283.22265625 C-143.88031705 281.83376314 -143.88031705 281.83376314 -146 282 Z M56 282 C55.27337158 282.42595459 54.54674316 282.85190918 53.7980957 283.29077148 C51.5867513 284.58707682 49.3754069 285.88338216 47.1640625 287.1796875 C46.22481934 287.73027832 46.22481934 287.73027832 45.26660156 288.29199219 C37.92692057 292.5945638 30.58723958 296.89713542 23.24755859 301.19970703 C22.64822006 301.55104706 22.04888153 301.90238708 21.43138123 302.26437378 C20.23531864 302.96550655 19.03924321 303.6666174 17.84315491 304.3677063 C14.87047602 306.11018248 11.89802351 307.85304259 8.92602539 309.59667969 C3.30464946 312.89414738 -2.31880202 316.18790956 -7.94970703 319.46908569 C-10.58390971 321.00435301 -13.2169234 322.54165312 -15.84985352 324.07910156 C-17.0951945 324.80553714 -18.3411057 325.53099626 -19.58764648 326.25537109 C-21.32553765 327.26535844 -23.0612386 328.27911155 -24.796875 329.29296875 C-26.27172363 330.15184692 -26.27172363 330.15184692 -27.77636719 331.02807617 C-28.84016602 331.67881104 -29.90396484 332.3295459 -31 333 C-31.77794418 333.30444031 -32.55588837 333.60888062 -33.35740662 333.92254639 C-36.31566214 335.31493695 -37.96006308 336.42110966 -40 339 C-41.29749565 345.09653456 -41.04778164 351.10078098 -40.87890625 357.3046875 C-40.86210935 359.11211982 -40.84930328 360.91959327 -40.84031677 362.7270813 C-40.80603609 367.47271893 -40.71770762 372.21585691 -40.61798096 376.96051025 C-40.52572838 381.80666283 -40.48476975 386.65322148 -40.43945312 391.5 C-40.34307824 401.00109525 -40.18958052 410.50033937 -40 420 C-36.95159351 416.20853942 -34.00067422 412.36113881 -31.125 408.4375 C-30.41815063 407.47336182 -30.41815063 407.47336182 -29.69702148 406.48974609 C-23.91424867 398.56246194 -18.32300555 390.50111712 -12.71240234 382.45166016 C-10.11266786 378.72959946 -7.49533588 375.02007456 -4.875 371.3125 C-4.14422241 370.27826904 -4.14422241 370.27826904 -3.39868164 369.22314453 C-2.42182597 367.84090269 -1.44485714 366.45874081 -0.46777344 365.07666016 C2.02320986 361.55232484 4.51144903 358.02605299 7 354.5 C7.99998722 353.08332432 8.99998722 351.66665764 10 350.25 C10.495 349.54875 10.99 348.8475 11.5 348.125 C17 340.33333333 22.5 332.54166667 28 324.75 C28.49532227 324.0482666 28.99064453 323.3465332 29.50097656 322.62353516 C30.49761905 321.21167908 31.49436329 319.79989482 32.49121094 318.38818359 C35.04343446 314.77350731 37.59369476 311.15747082 40.140625 307.5390625 C45.69881117 299.64647282 51.28606752 291.78103159 57 284 C56.505 283.01 56.505 283.01 56 282 Z " fill="#FFFFFF" transform="translate(300,3)"/>
</svg>
