<?xml version="1.0" encoding="UTF-8"?>
<svg version="1.1" xmlns="http://www.w3.org/2000/svg" width="1335" height="1353">
<path d="M0 0 C1.37879463 -0.00698459 2.75758898 -0.0140255 4.13638306 -0.02111816 C8.5141033 -0.04036688 12.89177328 -0.04529395 17.26953125 -0.046875 C18.01581661 -0.04746414 18.76210197 -0.04805328 19.53100204 -0.04866028 C42.84334027 -0.06164371 65.9101899 0.433382 89.08203125 3.203125 C90.35933105 3.34766113 91.63663086 3.49219727 92.95263672 3.64111328 C101.6929108 4.64358597 110.38989971 5.84690589 119.08203125 7.203125 C120.33209961 7.39712891 121.58216797 7.59113281 122.87011719 7.79101562 C171.29588272 15.50875716 218.87416894 29.23931657 264.08203125 48.203125 C265.59482666 48.83154297 265.59482666 48.83154297 267.13818359 49.47265625 C293.8056781 60.62114449 319.81243778 73.64428888 344.51855469 88.64794922 C346.92920519 90.11041052 349.35094235 91.55215299 351.77734375 92.98828125 C379.93026605 109.76578911 406.5387013 129.42727387 431.39941406 150.76318359 C433.18105293 152.28786526 434.97076535 153.80268005 436.76171875 155.31640625 C447.54701298 164.45682258 447.54701298 164.45682258 452.41186523 169.53393555 C454.05166844 171.17277995 455.75334327 172.65996536 457.5234375 174.15625 C462.7666226 178.71582844 467.6544333 183.6254722 472.55493164 188.5456543 C474.14163071 190.13771466 475.73360867 191.7243549 477.32617188 193.31054688 C482.78960447 198.77041006 488.06171884 204.32980977 493.08203125 210.203125 C494.70170942 211.97882721 496.32614843 213.75020807 497.95703125 215.515625 C501.99605278 219.94943811 505.85710003 224.48367084 509.62109375 229.15234375 C511.41483361 231.37601174 513.22075508 233.58510978 515.04296875 235.78515625 C541.75336218 268.14211619 563.93227424 303.48293408 584.08203125 340.203125 C584.40043976 340.78277008 584.71884827 341.36241516 585.04690552 341.95962524 C590.23076765 351.43034799 594.95310855 361.05132303 599.39453125 370.890625 C599.71429932 371.59568176 600.03406738 372.30073853 600.36352539 373.02716064 C606.35308129 386.2589779 611.82389728 399.64262358 616.95654297 413.23193359 C617.94064284 415.82987186 618.9455033 418.4181105 619.9609375 421.00390625 C637.75823023 466.92193559 647.90715393 516.21242518 653.81060791 564.96307373 C653.98528098 566.404647 654.16214755 567.84595707 654.34173584 569.28692627 C660.06523838 615.39268565 659.90758609 665.11968111 654.08203125 711.203125 C653.93284241 712.41509552 653.93284241 712.41509552 653.78063965 713.65155029 C646.80667596 770.24546719 633.30834932 825.22816999 612.08203125 878.203125 C611.65341797 879.2765918 611.22480469 880.35005859 610.78320312 881.45605469 C600.24721151 907.6190934 587.98003249 933.1891935 573.671875 957.50146484 C572.01450044 960.31788175 570.37574008 963.14462048 568.73828125 965.97265625 C562.90636361 975.99751133 556.90084345 985.84523979 550.32226562 995.39794922 C549.01814597 997.29611078 547.72904663 999.20390794 546.44140625 1001.11328125 C534.20394585 1019.18585123 520.89551121 1036.51644423 506.7109375 1053.1015625 C504.21476075 1056.027611 501.80276491 1059.01669252 499.39453125 1062.015625 C496.2003483 1065.94429922 492.87148857 1069.57401772 489.19921875 1073.05859375 C487.4370197 1074.84355183 485.83374741 1076.65446127 484.2109375 1078.5625 C479.10308369 1084.44400348 473.54520552 1089.88900351 468.03051758 1095.38500977 C466.14874851 1097.26141975 464.27238387 1099.14311469 462.39648438 1101.02539062 C456.45897014 1106.96620006 450.49009647 1112.76618393 444.08203125 1118.203125 C442.30632904 1119.82280317 440.53494818 1121.44724218 438.76953125 1123.078125 C433.36711668 1127.9988428 427.78034266 1132.63105053 422.08203125 1137.203125 C420.96182609 1138.11537789 419.8420542 1139.02816303 418.72265625 1139.94140625 C403.50004684 1152.31263818 387.63617641 1163.62318129 371.33203125 1174.515625 C370.63909973 1174.97966736 369.94616821 1175.44370972 369.23223877 1175.92181396 C359.68021885 1182.30801834 349.99121048 1188.38705214 340.08203125 1194.203125 C339.12989746 1194.76314209 338.17776367 1195.32315918 337.19677734 1195.90014648 C326.62730558 1202.07637886 315.96895533 1207.94619554 304.953125 1213.28515625 C303.11984979 1214.18457102 301.30267641 1215.11003044 299.48828125 1216.046875 C275.48014017 1228.40607663 250.52226996 1238.25588817 225.08203125 1247.203125 C224.42180969 1247.43557922 223.76158813 1247.66803345 223.08135986 1247.90753174 C171.77916454 1265.89442909 117.32815206 1276.72673208 63.08203125 1280.203125 C61.84855957 1280.28925049 60.61508789 1280.37537598 59.34423828 1280.46411133 C46.01203748 1281.34185426 32.68907826 1281.4033597 19.33203125 1281.390625 C18.15884338 1281.39002075 16.98565552 1281.3894165 15.7769165 1281.38879395 C-2.211819 1281.36368071 -20.0070747 1280.99178416 -37.91796875 1279.203125 C-39.27634508 1279.07268627 -40.6347445 1278.94248773 -41.99316406 1278.8125 C-138.02777857 1269.49383284 -231.41351632 1238.41779888 -426.33984375 1099.69677734 C-428.05308071 1097.99093223 -428.05308071 1097.99093223 -430.91796875 1096.203125 C-430.91796875 1095.543125 -430.91796875 1094.883125 -430.91796875 1094.203125 C-431.90796875 1093.873125 -432.89796875 1093.543125 -433.91796875 1093.203125 C-435.28515625 1091.8125 -435.28515625 1091.8125 -436.79296875 1089.953125 C-440.14373718 1085.98923724 -443.72653383 1082.3442579 -447.41796875 1078.703125 C-452.13443468 1074.02907214 -456.6362842 1069.28202697 -460.91796875 1064.203125 C-461.85175681 1063.1201376 -462.78676954 1062.03820557 -463.72265625 1060.95703125 C-469.60452746 1054.15265944 -475.37180209 1047.28559914 -480.91796875 1040.203125 C-481.66385254 1039.26025635 -481.66385254 1039.26025635 -482.42480469 1038.29833984 C-490.95741367 1027.51178716 -499.15105929 1016.55416384 -506.91796875 1005.203125 C-507.40475098 1004.49220703 -507.8915332 1003.78128906 -508.39306641 1003.04882812 C-522.01064964 983.07338148 -534.35741517 962.43115783 -545.91796875 941.203125 C-546.43746094 940.25211914 -546.95695313 939.30111328 -547.4921875 938.32128906 C-560.09592013 915.11454485 -570.73006032 890.95257246 -579.91796875 866.203125 C-580.31580566 865.13835938 -580.71364258 864.07359375 -581.12353516 862.9765625 C-612.73236421 777.92994325 -626.20515403 686.3480842 -618.91796875 584.203125 C-618.85480469 583.50672913 -618.79164063 582.81033325 -618.7265625 582.09283447 C-615.7607485 549.75146878 -610.63080238 517.76315665 -602.91796875 486.203125 C-602.63759766 485.05166992 -602.35722656 483.90021484 -602.06835938 482.71386719 C-591.51538077 440.00109395 -576.08589654 398.77043962 -556.91796875 359.203125 C-556.41942383 358.16365723 -555.92087891 357.12418945 -555.40722656 356.05322266 C-547.99565898 340.64136375 -539.73190047 325.85320355 -530.91796875 311.203125 C-530.41346191 310.35959473 -529.90895508 309.51606445 -529.38916016 308.64697266 C-508.59705215 273.92352285 -484.3133233 240.99620263 -456.78125 211.3125 C-454.88102171 209.34337026 -454.88102171 209.34337026 -453.91796875 207.203125 C-453.25796875 207.203125 -452.59796875 207.203125 -451.91796875 207.203125 C-451.65629913 206.61646561 -451.39462952 206.02980621 -451.12503052 205.42536926 C-449.84906166 203.07626457 -448.49353965 201.53123918 -446.60498047 199.6472168 C-445.93022675 198.96938644 -445.25547302 198.29155609 -444.56027222 197.59318542 C-443.46502731 196.5087188 -443.46502731 196.5087188 -442.34765625 195.40234375 C-441.59259796 194.64774368 -440.83753967 193.89314362 -440.05960083 193.11567688 C-438.45974124 191.51883761 -436.8574527 189.92442873 -435.25292969 188.33227539 C-432.81785526 185.91532627 -430.39074724 183.49060335 -427.96484375 181.06445312 C-426.40541635 179.50994661 -424.84553464 177.95589568 -423.28515625 176.40234375 C-422.56713837 175.68543869 -421.84912048 174.96853363 -421.10934448 174.22990417 C-416.53296771 169.69561765 -411.80722101 165.39665518 -406.91796875 161.203125 C-405.69182614 160.13382325 -404.46644392 159.06364826 -403.2421875 157.9921875 C-384.91890722 142.02983442 -365.97511985 126.93583154 -345.91796875 113.203125 C-345.14710938 112.67283691 -344.37625 112.14254883 -343.58203125 111.59619141 C-321.972184 96.78313066 -299.70222617 83.25003112 -276.31591797 71.43310547 C-274.22519081 70.36070846 -272.16244552 69.25560369 -270.109375 68.11328125 C-204.56007986 31.7300743 -126.89402571 11.39005436 0 0 Z M-43.91796875 104.203125 C-45.12453125 104.34234375 -46.33109375 104.4815625 -47.57421875 104.625 C-142.30797857 115.94275007 -233.21221077 153.53603404 -326.91796875 226.203125 C-327.46549805 226.6671875 -328.01302734 227.13125 -328.57714844 227.609375 C-341.87217071 238.90834243 -354.55640893 250.76677654 -366.91796875 263.078125 C-368.10181152 264.2549585 -368.10181152 264.2549585 -369.30957031 265.45556641 C-373.5049662 269.66256165 -377.53645638 273.95315907 -381.41210938 278.45654297 C-383.28242391 280.62584099 -385.22469052 282.72418204 -387.16796875 284.828125 C-391.72038721 289.87352955 -395.89290142 295.16211507 -400.05078125 300.53125 C-401.90768518 302.92537936 -403.79465098 305.28777998 -405.72265625 307.625 C-425.17595058 331.27156 -441.04148844 357.51264861 -455.91796875 384.203125 C-456.3037207 384.88665039 -456.68947266 385.57017578 -457.08691406 386.27441406 C-496.18062596 455.80161648 -516.69492304 538.05306189 -519.48046875 617.515625 C-519.52220215 618.70349609 -519.56393555 619.89136719 -519.60693359 621.11523438 C-519.89807335 629.81853063 -520.11060755 638.49510304 -519.91796875 647.203125 C-519.90008301 648.11835937 -519.88219727 649.03359375 -519.86376953 649.9765625 C-517.95072058 737.78132022 -495.15100198 825.66612613 -442.91796875 916.203125 C-442.39219238 917.06067383 -441.86641602 917.91822266 -441.32470703 918.80175781 C-428.78618471 939.18225604 -415.04774865 958.65991915 -399.91796875 977.203125 C-399.20125 978.09386719 -398.48453125 978.98460937 -397.74609375 979.90234375 C-393.39381125 985.28266539 -388.92331959 990.51336383 -384.25390625 995.62109375 C-382.34747962 997.72836466 -380.47388447 999.8559319 -378.609375 1002 C-367.97189034 1014.17764454 -356.67702447 1025.61224811 -344.75048828 1036.5234375 C-343.03585502 1038.09507044 -341.33239765 1039.67775211 -339.6328125 1041.265625 C-334.22438218 1046.30295591 -328.69813774 1051.14185179 -322.9375 1055.7734375 C-320.71129715 1057.56476761 -318.50308759 1059.37050803 -316.3046875 1061.1953125 C-269.06588604 1100.27371204 -214.57851343 1130.49010912 -157.48046875 1152.453125 C-156.74137268 1152.73828979 -156.00227661 1153.02345459 -155.24078369 1153.31726074 C-153.13723619 1154.12525367 -151.03043939 1154.92395318 -148.921875 1155.71875 C-147.71345947 1156.17540039 -146.50504395 1156.63205078 -145.26000977 1157.10253906 C-142.12486287 1158.13499156 -139.17113772 1158.70052792 -135.91796875 1159.203125 C-135.9146586 1158.64857478 -135.91134846 1158.09402456 -135.907938 1157.52266979 C-135.82620135 1143.93827789 -135.73383354 1130.35399263 -135.63044167 1116.76974773 C-135.58075094 1110.20011646 -135.53442116 1103.63049919 -135.49609375 1097.06079102 C-135.45889375 1090.70644761 -135.41244557 1084.35222979 -135.35990524 1077.99799538 C-135.34154386 1075.58826744 -135.32637062 1073.17851278 -135.31462479 1070.76874352 C-135.22836895 1053.66541559 -134.90406031 1036.48836538 -131.23046875 1019.703125 C-131.06313232 1018.93379639 -130.8957959 1018.16446777 -130.72338867 1017.37182617 C-124.4779859 990.30658402 -109.75769049 963.56650123 -85.91796875 948.203125 C-89.76173713 945.80084935 -93.93553856 945.48871872 -98.3359375 944.94140625 C-100.06607776 944.71177165 -101.79613629 944.48152064 -103.52612305 944.25073242 C-104.89019791 944.07192032 -104.89019791 944.07192032 -106.28182983 943.88949585 C-172.42026882 935.1322733 -240.50332244 916.5361571 -290.26171875 869.6484375 C-292.86180649 867.19566467 -292.86180649 867.19566467 -295.56640625 865.09765625 C-298.37007177 862.83888918 -300.53707716 860.36181552 -302.859375 857.625 C-304.32111448 855.9053065 -305.81127577 854.20959329 -307.3203125 852.53125 C-356.74475121 796.98318355 -371.11533478 718.47413257 -371.16796875 646.328125 C-371.16864349 645.48306396 -371.16931824 644.63800293 -371.17001343 643.76733398 C-371.0984413 586.83605158 -354.21651417 525.97199849 -313.78125 483.984375 C-313.12511719 483.2934375 -312.46898437 482.6025 -311.79296875 481.890625 C-311.21289062 481.31699219 -310.6328125 480.74335937 -310.03515625 480.15234375 C-308.33374541 477.18379826 -309.0802216 475.49318652 -309.91796875 472.203125 C-310.58473402 469.85230881 -311.27733089 467.51141447 -311.98754883 465.17333984 C-326.17389234 418.36141638 -321.53900025 366.65059791 -304.61914062 321.14550781 C-304.03275066 319.52109326 -303.54827517 317.86037 -303.08984375 316.1953125 C-301.91796875 314.203125 -301.91796875 314.203125 -299.3046875 313.40625 C-240.99432038 309.90897308 -186.34694436 342.17320362 -139.12426758 372.79956055 C-138.39618896 373.26273682 -137.66811035 373.72591309 -136.91796875 374.203125 C-136.13083496 374.78288086 -135.34370117 375.36263672 -134.53271484 375.95996094 C-131.00606855 377.63668203 -129.34713252 377.01694734 -125.625 375.95703125 C-124.37275635 375.61704102 -123.1205127 375.27705078 -121.83032227 374.92675781 C-120.83103195 374.64282166 -120.83103195 374.64282166 -119.81155396 374.35314941 C-116.22047993 373.33933044 -112.60896047 372.40530629 -108.99609375 371.47265625 C-108.24662979 371.27864227 -107.49716583 371.0846283 -106.72499084 370.88473511 C-82.62761999 364.74311172 -57.62531065 361.68005151 -32.91796875 359.203125 C-31.74041016 359.08453125 -30.56285156 358.9659375 -29.34960938 358.84375 C5.12043525 355.56274858 40.63526791 355.80097553 75.08203125 359.203125 C76.17918457 359.30496094 77.27633789 359.40679687 78.40673828 359.51171875 C109.00462394 362.3873431 140.63019658 367.06462975 170.19165039 375.82855225 C174.23473343 377.05269647 174.23473343 377.05269647 178.32519531 376.51904297 C178.91010742 376.08221191 179.49501953 375.64538086 180.09765625 375.1953125 C180.78085937 374.7091748 181.4640625 374.22303711 182.16796875 373.72216797 C183.23917969 372.9083667 183.23917969 372.9083667 184.33203125 372.078125 C185.91759939 370.94893799 187.50625576 369.82407732 189.09765625 368.703125 C189.91556641 368.12046875 190.73347656 367.5378125 191.57617188 366.9375 C198.79965485 361.93792644 206.49392824 357.61989667 214.08203125 353.203125 C214.80793457 352.77821777 215.53383789 352.35331055 216.28173828 351.91552734 C253.09479624 330.49007285 295.50038372 310.84736027 339.08203125 313.203125 C340.01402344 313.23277344 340.94601562 313.26242187 341.90625 313.29296875 C344.08203125 314.203125 344.08203125 314.203125 345.671875 317.09765625 C346.14427591 318.39544038 346.59169322 319.70247577 347.01953125 321.015625 C347.26695068 321.73065186 347.51437012 322.44567871 347.76928711 323.18237305 C348.56415986 325.51532081 349.32373049 327.85806309 350.08203125 330.203125 C350.46343262 331.33234375 350.46343262 331.33234375 350.85253906 332.484375 C357.60827648 352.53698313 362.17066529 374.1289808 362.28515625 395.34765625 C362.29085632 396.19752609 362.2965564 397.04739594 362.3024292 397.92301941 C362.31181693 399.71551292 362.31838817 401.50802321 362.32226562 403.30053711 C362.33187027 405.97086983 362.36291138 408.64039733 362.39453125 411.31054688 C362.52429762 432.46161078 359.37426426 454.01178255 351.62109375 473.78515625 C350.87770933 476.16270577 350.87770933 476.16270577 351.7421875 478.26953125 C353.29135526 480.50521067 355.0036787 482.37061902 356.89453125 484.328125 C386.68671572 516.90283234 404.97434507 560.83570642 411.08203125 604.203125 C411.35696411 606.15303345 411.35696411 606.15303345 411.63745117 608.14233398 C413.27569871 620.67460022 413.43917943 633.14119812 413.39453125 645.765625 C413.39179703 647.37360458 413.39179703 647.37360458 413.38900757 649.0140686 C413.17932467 722.60047069 397.20720391 798.92002461 347.08203125 855.203125 C346.62441406 855.72245605 346.16679688 856.24178711 345.6953125 856.77685547 C294.50611904 914.72316585 213.72478958 937.40050177 139.23632812 945.2668457 C138.34236328 945.36441162 137.44839844 945.46197754 136.52734375 945.5625 C135.75922363 945.63952148 134.99110352 945.71654297 134.19970703 945.79589844 C131.88595871 946.24082952 130.13213777 947.06036645 128.08203125 948.203125 C128.65050781 948.63882813 129.21898437 949.07453125 129.8046875 949.5234375 C132.2414942 951.40291111 134.66315793 953.30064037 137.08203125 955.203125 C137.68917969 955.66976562 138.29632812 956.13640625 138.921875 956.6171875 C162.54927631 975.63029632 173.60479684 1008.12226592 177.08203125 1037.203125 C177.30188444 1039.88177393 177.49479292 1042.54394336 177.63647461 1045.22607422 C177.67744987 1045.98906263 177.71842512 1046.75205105 177.76064205 1047.53816032 C178.28669343 1058.25513507 178.31670413 1068.98340072 178.3984375 1079.7109375 C178.41906406 1082.0169202 178.44006176 1084.32289961 178.46141052 1086.62887573 C178.51604356 1092.63573503 178.56570658 1098.64262502 178.61425781 1104.64953613 C178.66490799 1110.80414492 178.72036456 1116.95871031 178.77539062 1123.11328125 C178.88225093 1135.14319191 178.98384942 1147.1731406 179.08203125 1159.203125 C185.24157821 1158.03367088 190.82025662 1155.74377926 196.64453125 1153.453125 C197.25651367 1153.21280548 197.86849609 1152.97248596 198.49902344 1152.72488403 C212.64148287 1147.14961448 226.38515021 1140.79586768 240.08203125 1134.203125 C240.99919922 1133.76645508 241.91636719 1133.32978516 242.86132812 1132.87988281 C257.06082255 1126.10260709 270.60191907 1118.30552094 284.08203125 1110.203125 C285.00193848 1109.65221191 285.9218457 1109.10129883 286.86962891 1108.53369141 C311.56101852 1093.69028687 335.0833087 1076.81742869 357.08203125 1058.203125 C357.60780762 1057.76081543 358.13358398 1057.31850586 358.67529297 1056.86279297 C370.62295823 1046.79927418 382.13039153 1036.34727401 393.08203125 1025.203125 C396.05801725 1022.21669694 399.04828912 1019.24499686 402.04296875 1016.27734375 C403.51438009 1014.8151617 404.98573285 1013.3529207 406.45703125 1011.890625 C407.18664063 1011.16939453 407.91625 1010.44816406 408.66796875 1009.70507812 C413.35450374 1005.03946517 417.79313381 1000.23552843 422.08203125 995.203125 C422.54335449 994.66872803 423.00467773 994.13433105 423.47998047 993.58374023 C445.76061552 967.7480394 466.18700868 939.86204936 483.08203125 910.203125 C483.45956543 909.54280273 483.83709961 908.88248047 484.22607422 908.20214844 C487.24234281 902.90366436 490.17261169 897.56085655 493.08203125 892.203125 C493.5394873 891.3687793 493.99694336 890.53443359 494.46826172 889.67480469 C508.52569383 863.93421324 519.84895632 837.0281303 529.08203125 809.203125 C529.65945068 807.47860107 529.65945068 807.47860107 530.24853516 805.71923828 C543.53799135 765.67271193 551.59176215 724.22724581 555.08203125 682.203125 C555.17629395 681.22053711 555.27055664 680.23794922 555.36767578 679.22558594 C562.85534117 592.77586783 546.48686873 504.17041618 435.93359375 299.3671875 C434.14681883 297.24579337 432.33945104 295.14325433 430.5234375 293.046875 C428.14185078 290.27280279 425.85943793 287.43793726 423.58203125 284.578125 C419.57071725 279.63946422 415.1787785 275.20155226 410.640625 270.7578125 C408.49493871 268.61540207 406.48616104 266.44505238 404.51953125 264.140625 C398.67369136 257.31581671 392.22564187 251.07243771 385.3984375 245.23828125 C382.91351527 243.05506965 380.50346445 240.80423202 378.09277344 238.53979492 C371.63219113 232.47456426 365.03848917 226.70065911 358.08203125 221.203125 C357.0401517 220.36875535 355.99849442 219.53410808 354.95703125 218.69921875 C338.95753177 205.93541434 322.43684427 194.05711573 305.08203125 183.203125 C304.28748535 182.70603027 303.49293945 182.20893555 302.67431641 181.69677734 C235.50475197 139.96502135 159.6610745 113.26993768 81.08203125 104.203125 C79.81101562 104.05359375 78.54 103.9040625 77.23046875 103.75 C37.16947205 99.16473666 -3.88714999 99.49361691 -43.91796875 104.203125 Z " fill="#FFFFFF" transform="translate(645.91796875,35.796875)"/>
</svg>
