<?xml version="1.0" encoding="UTF-8"?>
<svg version="1.1" xmlns="http://www.w3.org/2000/svg" width="310" height="321">
<path d="M0 0 C2.41611855 1.47424183 3.99171947 2.94151246 6 5 C6 5.66 6 6.32 6 7 C6.46148437 6.66226562 6.92296875 6.32453125 7.3984375 5.9765625 C12.61250295 2.4112134 17.59267331 0.10219022 24 0 C31.28859286 1.54964677 35.00892476 7.18263392 39 13 C39.87865909 14.2644947 40.7575851 15.52880394 41.63671875 16.79296875 C43.55157695 19.5571911 45.45043335 22.33161286 47.33984375 25.11328125 C49.52560197 28.32534134 51.78263378 31.47887981 54.0625 34.625 C57.95985531 40.24205166 59.76456274 44.85311204 58.69921875 51.71484375 C55.55735278 61.9829532 42.04660156 68.7378008 33.1328125 73.546875 C29.54085333 75.5489506 27.47755239 76.82305351 25.8984375 80.71484375 C25.12873591 83.79753748 24.54698773 86.8709084 24 90 C22.14904213 97.33772583 19.84698263 101.3752055 13.41796875 105.76171875 C12.49628906 106.41785156 11.57460937 107.07398437 10.625 107.75 C9.73039063 108.34296875 8.83578125 108.9359375 7.9140625 109.546875 C5.59411953 112.00291499 5.59411953 112.00291499 5.9921875 115.96875 C7.20638808 123.13062475 9.42489855 130.09724566 11.47265625 137.0546875 C14.37239756 147.31904378 17.5014894 159.13399568 12 169 C6.60118534 177.21687726 -1.59368502 182.11024845 -9.63330078 187.41113281 C-12.22125708 189.14853942 -14.76673235 190.93804892 -17.30859375 192.7421875 C-18.20223633 193.37616455 -19.09587891 194.0101416 -20.01660156 194.66333008 C-21.76666559 195.90773118 -23.51478893 197.15486713 -25.26074219 198.4050293 C-26.06543945 198.97390869 -26.87013672 199.54278809 -27.69921875 200.12890625 C-28.76402466 200.88796265 -28.76402466 200.88796265 -29.8503418 201.66235352 C-32.15522984 203.09659333 -34.45636863 204.06454261 -37 205 C-35.61527762 211.01654335 -33.75164936 216.66739506 -31.55859375 222.43359375 C-30.88572414 224.23489774 -30.2132089 226.03633414 -29.54101562 227.83789062 C-28.4896814 230.64136673 -27.43520675 233.44355196 -26.37426758 236.2434082 C-25.34316789 238.97011532 -24.32509885 241.70141814 -23.30859375 244.43359375 C-22.99192245 245.2588707 -22.67525116 246.08414764 -22.34898376 246.93443298 C-19.94860777 253.4247834 -17.7287764 260.24524478 -20.1875 267 C-24.97025173 275.29560042 -35.29051133 280.31786182 -43.203125 285.24609375 C-49.62164959 289.27111825 -55.94433525 293.46801965 -62.0625 297.9375 C-65.74252302 300.52134595 -68.41003963 301.18401037 -72.8125 301.3125 C-73.64394531 301.34988281 -74.47539062 301.38726562 -75.33203125 301.42578125 C-79.04195663 300.8337141 -81.09323797 299.35065152 -84 297 C-91.946421 285.73084986 -95.68897192 270.73872549 -100.30877686 257.91473389 C-102.22507577 252.60645898 -104.16416687 247.30645823 -106.10290527 242.00634766 C-106.79060302 240.12248409 -107.4739864 238.23704732 -108.15722656 236.3515625 C-110.90410387 228.81467601 -113.77504913 221.34702572 -117 214 C-117.32331299 213.25500244 -117.64662598 212.51000488 -117.97973633 211.74243164 C-118.94101286 209.72652411 -118.94101286 209.72652411 -121.625 208.75 C-129.28801524 207.04710772 -133.13857109 207.82630683 -140 211.5 C-145.29583722 214.32425991 -148.96382153 216.18567791 -155 215 C-163.39990403 210.88576129 -168.53538004 202.42968135 -173.48828125 194.8203125 C-177.42756154 188.78019414 -181.55063843 182.8614292 -185.6328125 176.91748047 C-187.43359068 174.28604188 -189.21898899 171.64484387 -191 169 C-191.50974365 168.26144775 -192.0194873 167.52289551 -192.54467773 166.76196289 C-195.20148221 162.77509834 -196.70742371 159.8719388 -196.6875 154.9375 C-196.71199219 153.97714844 -196.73648438 153.01679688 -196.76171875 152.02734375 C-195.00801102 145.05747968 -188.95563031 140.87221254 -183.1875 137.125 C-181.76551485 136.17334165 -180.34364803 135.22150647 -178.921875 134.26953125 C-178.14134766 133.75213379 -177.36082031 133.23473633 -176.55664062 132.70166016 C-171.65892693 129.44181825 -166.80170731 126.12203182 -161.9375 122.8125 C-160.87724609 122.09280029 -159.81699219 121.37310059 -158.72460938 120.6315918 C-150.36344743 114.94975638 -142.05948088 109.18898129 -133.77148438 103.40112305 C-128.14290425 99.47502077 -122.47644308 95.62743855 -116.74609375 91.8515625 C-112.84007618 89.21791765 -109.02728484 86.45947971 -105.2043457 83.70727539 C-100.59510493 80.39919874 -95.90222313 77.2363594 -91.16796875 74.109375 C-86.88962347 71.26066174 -82.65947682 68.34429282 -78.42773438 65.42700195 C-73.00290018 61.68748463 -67.5655884 57.96655224 -62.125 54.25 C-57.40128091 51.02160575 -52.67891877 47.79317628 -48 44.5 C-43.17435062 41.10417266 -38.30650808 37.77069663 -33.4375 34.4375 C-32.64537109 33.89480469 -31.85324219 33.35210937 -31.03710938 32.79296875 C-25.71765013 29.15542981 -20.3696772 25.56296702 -15 22 C-15.2165625 20.700625 -15.2165625 20.700625 -15.4375 19.375 C-15.623125 18.26125 -15.80875 17.1475 -16 16 C-16.2475 15.030625 -16.495 14.06125 -16.75 13.0625 C-17.09155338 8.87847113 -16.07934613 6.62208681 -14 3 C-9.48812222 -1.19709561 -5.70922385 -1.99369722 0 0 Z M-5.0625 52.8125 C-6.38001461 53.72163497 -7.69774279 54.63046048 -9.015625 55.5390625 C-9.77810547 56.07047852 -10.54058594 56.60189453 -11.32617188 57.14941406 C-14.48876865 59.33828217 -17.67245174 61.4952468 -20.859375 63.6484375 C-22.09628349 64.48460331 -23.33318116 65.32078512 -24.57006836 66.15698242 C-25.18961395 66.57579681 -25.80915955 66.99461121 -26.44747925 67.42611694 C-34.23170212 72.69087705 -41.99923847 77.97530774 -49.68725586 83.38012695 C-53.4780694 86.0352571 -57.30181954 88.64179445 -61.125 91.25 C-62.7904626 92.38787739 -64.4558256 93.52590056 -66.12109375 94.6640625 C-67.35255127 95.50565918 -67.35255127 95.50565918 -68.60888672 96.36425781 C-72.13883439 98.77906784 -75.66378631 101.20110546 -79.1875 103.625 C-79.83759033 104.07214355 -80.48768066 104.51928711 -81.1574707 104.97998047 C-83.10510172 106.31981085 -85.05258085 107.65986168 -87 109 C-95.43067705 114.80166491 -103.86594909 120.59646196 -112.3125 126.375 C-113.10398438 126.91664795 -113.89546875 127.4582959 -114.7109375 128.01635742 C-118.78367392 130.80277145 -122.85871011 133.58573505 -126.9375 136.36328125 C-134.36558037 141.42502442 -141.78385145 146.50016345 -149.125 151.6875 C-149.71128174 152.09766357 -150.29756348 152.50782715 -150.90161133 152.93041992 C-153.93617912 155.02184028 -153.93617912 155.02184028 -156 158 C-156.39346021 162.62365191 -156.39346021 162.62365191 -155 166.9375 C-151.79247384 168.64149827 -148.51370023 168.47631772 -145 168 C-142.4589078 166.71763486 -140.49939771 165.54020025 -138.25 163.875 C-137.610625 163.42616455 -136.97125 162.9773291 -136.3125 162.51489258 C-134.9207715 161.53533749 -133.53487725 160.5474517 -132.15429688 159.55224609 C-129.24955598 157.45927889 -126.31642016 155.40804099 -123.38305664 153.35546875 C-121.76603595 152.22367023 -120.15069155 151.08947371 -118.53686523 149.953125 C-109.85340554 143.85276588 -101.05470583 137.92558063 -92.25900269 131.98901367 C-84.16439147 126.52376191 -76.1123173 121.01604016 -68.16870117 115.33251953 C-61.10689713 110.30899874 -53.87063387 105.54543205 -46.63305664 100.7800293 C-40.85440449 96.96141053 -35.20839356 93.00982717 -29.62548828 88.91064453 C-25.68337091 86.04185054 -21.65905602 83.29974295 -17.625 80.5625 C-15.97901505 79.44032652 -14.33318238 78.31792966 -12.6875 77.1953125 C-11.8934375 76.65422852 -11.099375 76.11314453 -10.28125 75.55566406 C-7.05728812 73.35713184 -3.83820301 71.1517234 -0.625 68.9375 C0.35210937 68.26589844 1.32921875 67.59429687 2.3359375 66.90234375 C7.35860136 63.6384972 7.35860136 63.6384972 10.9375 59.0625 C11.04460619 55.52799575 9.7279235 53.0052277 7.6875 50.1875 C3.00032465 46.88911735 -0.98449068 49.95935164 -5.0625 52.8125 Z M-22 129.6875 C-27.11041199 133.37751807 -32.29039815 136.95129115 -37.5 140.5 C-44.02981193 144.95842144 -50.5435697 149.43568552 -57 154 C-56.42098044 158.13585402 -55.47957878 161.74133771 -53.93359375 165.6171875 C-53.53076172 166.63554687 -53.12792969 167.65390625 -52.71289062 168.703125 C-52.29201172 169.74984375 -51.87113281 170.7965625 -51.4375 171.875 C-50.80038086 173.47988281 -50.80038086 173.47988281 -50.15039062 175.1171875 C-49.10553151 177.74694526 -48.05526218 180.37440342 -47 183 C-43.38818944 181.90581896 -40.47956841 180.90640655 -37.5625 178.5 C-33.68773641 175.45980088 -29.66569788 172.71772882 -25.5625 170 C-24.9120874 169.56598877 -24.2616748 169.13197754 -23.59155273 168.68481445 C-20.77412618 166.81019538 -17.95093098 164.96987907 -15.06640625 163.19921875 C-14.26074219 162.70035156 -13.45507812 162.20148438 -12.625 161.6875 C-11.93664062 161.27886719 -11.24828125 160.87023437 -10.5390625 160.44921875 C-8.37238124 158.40901888 -8.32922719 156.94334734 -8 154 C-8.4935861 150.88177329 -8.4935861 150.88177329 -9.43359375 147.60546875 C-9.75263672 146.40341797 -10.07167969 145.20136719 -10.40039062 143.96289062 C-10.91375977 142.09407227 -10.91375977 142.09407227 -11.4375 140.1875 C-11.77587891 138.92228516 -12.11425781 137.65707031 -12.46289062 136.35351562 C-13.29896796 133.23294528 -14.14497856 130.11542295 -15 127 C-18.54502039 127 -19.20463176 127.62591592 -22 129.6875 Z " fill="#FFFFFF" transform="translate(220,6)"/>
</svg>
