<?xml version="1.0" encoding="UTF-8"?>
<svg version="1.1" xmlns="http://www.w3.org/2000/svg" width="1000" height="1000">
<path d="M0 0 C2.039796 -0.00302887 4.07959086 -0.00692199 6.11938375 -0.01159257 C11.66586917 -0.02178686 17.21228933 -0.01971284 22.75877988 -0.01541197 C28.76377948 -0.01292898 34.76876399 -0.02197838 40.77375793 -0.02944946 C52.51636941 -0.04215564 64.25896276 -0.04400092 76.00157917 -0.0416492 C85.55464861 -0.03980983 95.10771135 -0.04158959 104.66077995 -0.04587364 C106.03784914 -0.04647607 107.41491833 -0.04707727 108.79198752 -0.04767724 C110.86763424 -0.04858459 112.94328096 -0.04949327 115.01892768 -0.0504096 C134.29533138 -0.05882833 153.57173257 -0.06318237 172.84813786 -0.05900288 C173.57345247 -0.0588465 174.29876708 -0.05869012 175.04606092 -0.05852901 C178.7214413 -0.05772334 182.39682167 -0.05687757 186.07220203 -0.05601571 C186.80201804 -0.05584462 187.53183405 -0.05567353 188.2837657 -0.05549726 C189.75962844 -0.0551506 191.23549119 -0.05480207 192.71135393 -0.05445167 C215.66072882 -0.049098 238.61006526 -0.05701926 261.55943298 -0.07548523 C287.40168911 -0.09625507 313.24392142 -0.10691837 339.08618635 -0.10290974 C341.84794867 -0.10251446 344.60971099 -0.1021529 347.37147331 -0.10181236 C348.3913369 -0.10167627 348.3913369 -0.10167627 349.4318038 -0.10153742 C359.64424386 -0.10037706 369.85665969 -0.10697679 380.0690937 -0.11762428 C391.70083115 -0.12973991 403.33251659 -0.13088753 414.96425522 -0.11883412 C420.88763028 -0.11297986 426.81090215 -0.11174925 432.7342701 -0.12383652 C501.75414343 -0.25485422 564.30782828 10.09327464 615.23448181 60.19819641 C630.39777246 75.463674 641.98047784 93.79518754 650.98448181 113.26069641 C651.51686462 114.38604797 652.04924744 115.51139954 652.59776306 116.67085266 C663.39567686 140.52670872 669.16077865 168.19524346 669.1214962 194.36574554 C669.12414803 195.24082103 669.12679985 196.11589651 669.12953204 197.01748943 C669.13717198 199.94040702 669.13778217 202.86328223 669.13838196 205.78620911 C669.14240014 207.90710515 669.14683895 210.02800042 669.15166152 212.14889479 C669.16359423 217.97086505 669.16926785 223.79282704 669.17384267 229.61480713 C669.17981171 235.89755289 669.19141867 242.18028883 669.20213318 248.46302795 C669.22663341 263.63791864 669.24128506 278.81281169 669.25419325 293.98771596 C669.25786763 298.27877466 669.26187016 302.56983301 669.26594591 306.86089134 C669.29122056 333.54276323 669.31324871 360.2246358 669.32567406 386.90651703 C669.32859495 393.08447268 669.33156257 399.26242831 669.33457947 405.44038391 C669.33495038 406.2078514 669.33532129 406.97531889 669.33570343 407.76604297 C669.34783476 432.59920497 669.37873954 457.4322957 669.42050099 482.26542429 C669.4634254 507.83715967 669.48993262 533.40885746 669.49514877 558.98062982 C669.49588904 562.60372477 669.4967997 566.22681966 669.49780655 569.84991455 C669.49799716 570.56284304 669.49818778 571.27577152 669.49838417 572.0103039 C669.50187749 583.41517501 669.52208136 594.81995599 669.54860319 606.22479417 C669.57494102 617.72547264 669.58198504 629.22600998 669.5715019 640.72672158 C669.56635628 646.94044816 669.56893149 653.1538921 669.59396744 659.3675766 C669.82926227 721.20718882 660.55905656 779.94095071 615.98448181 826.26069641 C615.50930115 826.76165833 615.03412048 827.26262024 614.54454041 827.77876282 C576.52091462 867.72095691 523.31819397 885.90990667 468.92664135 887.44770682 C463.60746322 887.54146055 458.28876603 887.53277666 452.96896362 887.52139282 C450.92916763 887.52442169 448.88937277 887.52831481 446.84957987 887.53298539 C441.30309446 887.54317968 435.7566743 887.54110566 430.21018374 887.5368048 C424.20518414 887.5343218 418.20019963 887.5433712 412.19520569 887.55084229 C400.45259421 887.56354846 388.71000086 887.56539374 376.96738445 887.56304202 C367.41431502 887.56120265 357.86125227 887.56298242 348.30818367 887.56726646 C346.93111448 887.56786889 345.55404529 887.56847009 344.1769761 887.56907007 C342.10132938 887.56997742 340.02568266 887.57088609 337.95003595 887.57180242 C318.67363225 887.58022115 299.39723105 887.58457519 280.12082577 887.5803957 C279.39551116 887.58023932 278.67019655 887.58008295 277.9229027 887.57992183 C274.24752232 887.57911616 270.57214196 887.57827039 266.89676159 887.57740853 C266.16694558 887.57723744 265.43712957 887.57706635 264.68519792 887.57689008 C263.20933518 887.57654342 261.73347244 887.57619489 260.25760969 887.5758445 C237.3082348 887.57049082 214.35889836 887.57841208 191.40953064 887.59687805 C165.56727452 887.61764789 139.7250422 887.62831119 113.88277727 887.62430257 C111.12101496 887.62390728 108.35925264 887.62354573 105.59749031 887.62320518 C104.57762672 887.62306909 104.57762672 887.62306909 103.53715983 887.62293024 C93.32471976 887.62176988 83.11230394 887.62836961 72.89986992 887.63901711 C61.26813248 887.65113273 49.63644704 887.65228035 38.0047084 887.64022694 C32.08133334 887.63437269 26.15806148 887.63314208 20.23469353 887.64522934 C-25.77628508 887.73267463 -25.77628508 887.73267463 -48.01551819 884.26069641 C-49.4997483 884.03636348 -49.4997483 884.03636348 -51.01396286 883.80749857 C-90.78395192 877.73997911 -126.75823878 861.05295741 -156.01551819 833.26069641 C-156.54258362 832.76617981 -157.06964905 832.27166321 -157.61268616 831.76216125 C-170.63031929 819.47990369 -181.13076877 805.79503815 -190.01551819 790.26069641 C-190.50979309 789.40556458 -190.50979309 789.40556458 -191.01405334 788.53315735 C-196.76142053 778.511684 -201.24488539 768.17533171 -205.01551819 757.26069641 C-205.28106506 756.49644348 -205.54661194 755.73219055 -205.82020569 754.94477844 C-214.85856192 728.18207142 -217.1703038 699.26673227 -217.15596008 671.20721436 C-217.15854732 669.17432365 -217.16156147 667.14143344 -217.16496348 665.10854393 C-217.17299497 659.54400112 -217.1748209 653.97947123 -217.17556095 648.41492331 C-217.1774183 642.40433321 -217.18496916 636.39374971 -217.19169617 630.38316345 C-217.20596026 616.56370511 -217.21180311 602.74424859 -217.21638811 588.9247847 C-217.21872917 582.0844239 -217.22233243 575.24406394 -217.22608349 568.4037038 C-217.23891662 544.95383401 -217.24963471 521.50396467 -217.25308609 498.05409145 C-217.25330772 496.58363293 -217.2535295 495.1131744 -217.25375144 493.64271588 C-217.25397208 492.16885259 -217.25419256 490.69498931 -217.25441289 489.22112602 C-217.25485542 486.26467097 -217.25530254 483.30821592 -217.25575256 480.35176086 C-217.25586195 479.61873886 -217.25597135 478.88571686 -217.25608405 478.13048207 C-217.25971033 454.39099293 -217.27561538 430.65153441 -217.29894293 406.91205699 C-217.32360369 381.76948783 -217.33726187 356.62693615 -217.33845401 331.48435456 C-217.33862544 328.71797406 -217.33884086 325.95159358 -217.33908844 323.18521309 C-217.33917209 322.1635915 -217.33917209 322.1635915 -217.33925744 321.12133108 C-217.34040262 310.21478718 -217.35137913 299.30827498 -217.3659755 288.40174174 C-217.38042552 277.41349498 -217.38327989 266.42528307 -217.37553552 255.43702858 C-217.37165331 249.4975042 -217.37243839 243.55808526 -217.38659286 237.61857414 C-217.49015337 191.48673404 -217.49015337 191.48673404 -214.01551819 169.26069641 C-213.86598521 168.27148441 -213.71645223 167.28227241 -213.56238794 166.26308429 C-207.49421724 126.48085849 -190.81902625 90.51827067 -163.01551819 61.26069641 C-162.53743713 60.75538391 -162.05935608 60.25007141 -161.56678772 59.72944641 C-119.12824451 15.16161056 -59.98433024 -0.12836041 0 0 Z M-45.48817444 166.78022766 C-46.95521423 168.20224321 -48.43719809 169.60702931 -49.92176819 171.01069641 C-67.29698412 187.8002309 -79.73807755 208.65272961 -88.01551819 231.26069641 C-88.29089417 232.01109192 -88.56627014 232.76148743 -88.84999084 233.53462219 C-102.44208117 271.47613532 -102.84443244 312.41300391 -103.56629944 352.23335266 C-103.58739147 353.37055441 -103.60848351 354.50775616 -103.63021469 355.67941856 C-104.1671956 385.40141834 -104.16805853 415.12351352 -104.14408749 444.84928966 C-104.14029478 450.09995711 -104.14169878 455.35060579 -104.14588928 460.60127258 C-104.1742818 497.1491297 -104.16131821 533.68224171 -102.60877991 570.20454407 C-102.57663989 570.96062895 -102.54449987 571.71671383 -102.51138592 572.49571037 C-100.28054939 623.12555992 -89.56539388 674.16130486 -54.01551819 712.26069641 C-53.41997131 712.90538879 -52.82442444 713.55008118 -52.21083069 714.21430969 C-10.2695652 759.19022588 47.34222439 770.14698659 106.42588806 772.37397766 C108.06368823 772.43696769 108.06368823 772.43696769 109.73457527 772.50123024 C144.59459606 773.79235493 179.49051591 773.525297 214.36828387 773.46129334 C221.99840824 773.44794394 229.62850384 773.44559354 237.25863832 773.44624251 C246.60012482 773.44692838 255.94159507 773.43994327 265.28307652 773.43079591 C267.88984891 773.42871269 270.49661851 773.4279616 273.10339165 773.42755699 C291.17609394 773.42209655 309.23603399 773.28012967 327.30308533 772.80488586 C328.45386906 772.77505696 328.45386906 772.77505696 329.62790096 772.74462545 C389.74354852 771.15004249 450.74443196 765.15113632 495.98448181 721.26069641 C496.83574646 720.44810364 496.83574646 720.44810364 497.70420837 719.61909485 C536.30928001 682.70075491 549.9541329 633.05375132 553.10948181 581.01069641 C553.18513367 579.77231018 553.26078552 578.53392395 553.33872986 577.25801086 C554.88385112 549.00760732 555.14732989 520.71538206 555.15173888 492.43005967 C555.15246581 489.78730146 555.15462976 487.144548 555.1572361 484.501791 C555.16640698 475.16515666 555.17058218 465.82853628 555.16978455 456.49189758 C555.16925401 448.91700611 555.17627404 441.3421665 555.19029236 433.76728821 C555.31784673 380.36182372 555.31784673 380.36182372 554.05870056 326.97554016 C554.01708487 325.85434092 553.97546917 324.73314167 553.93259239 323.57796669 C551.8024078 268.17400506 542.46559614 214.82298576 502.98448181 173.26069641 C502.48996521 172.73363098 501.99544861 172.20656555 501.48594666 171.66352844 C457.75578044 125.31510613 396.84957128 116.88580465 336.05210781 115.0336504 C331.84627614 114.91436153 327.64015 114.8125406 323.43370056 114.71772766 C322.48543648 114.69632343 321.53717239 114.6749192 320.56017303 114.65286636 C290.57013396 114.00299804 260.57022025 114.10998868 230.57482427 114.13212723 C224.86029659 114.13590525 219.14578621 114.13453059 213.43125916 114.13032532 C80.259161 107.895669 80.259161 107.895669 -45.48817444 166.78022766 Z " fill="#FFFFFF" transform="translate(261.01551818847656,50.73930358886719)"/>
<path d="M0 0 C5.59225269 0.00377412 11.18448767 0.00240742 16.77673972 -0.00180173 C198.48085532 -0.13494702 198.48085532 -0.13494702 239.12708151 38.12856936 C240.03200339 38.93681155 240.03200339 38.93681155 240.95520651 39.76138186 C271.8314593 68.47341133 274.6971866 114.99546018 276.20883071 154.25152397 C276.38759703 159.26198102 276.53263491 164.27324962 276.66736472 169.28506351 C276.68874774 170.07231755 276.71013077 170.8595716 276.73216176 171.67068183 C277.2033637 189.38824974 277.29153477 207.10103503 277.29433858 224.82399893 C277.29506652 227.43291539 277.29723209 230.04182706 277.2998358 232.65074229 C277.30899682 241.86837083 277.31318288 251.08598525 277.31238425 260.30361819 C277.31185308 267.78150471 277.31889513 275.25933875 277.33289206 282.73721194 C277.4635126 354.3243606 277.4635126 354.3243606 276.30286276 386.78872561 C276.26818585 387.82687348 276.23350893 388.86502135 276.19778121 389.93462825 C274.67747881 433.55100601 268.28904999 475.99746983 235.31067526 507.28091311 C204.81205841 535.11927325 162.51831713 538.77849191 123.12708151 540.12856936 C121.3877384 540.19135829 121.3877384 540.19135829 119.61325705 540.25541568 C84.54248752 541.47367608 49.45075692 541.28170604 14.36421329 541.25713819 C8.34815196 541.25336653 2.33210709 541.25472881 -3.68395364 541.25894046 C-166.27994121 541.369781 -166.27994121 541.369781 -203.87291849 520.12856936 C-205.34631692 519.3145264 -205.34631692 519.3145264 -206.84948099 518.48403811 C-232.30601893 503.40819215 -248.26158013 477.37982683 -255.81432474 449.39810061 C-264.52528384 415.24585686 -263.06597133 378.8468663 -263.40554941 343.87825656 C-263.43573634 340.78348301 -263.46706303 337.6887226 -263.49858987 334.59396243 C-265.7745949 109.03281926 -265.7745949 109.03281926 -225.96276224 38.19497561 C-197.41574006 9.52278641 -158.92564582 3.43575866 -120.07702005 1.62490726 C-119.15490197 1.58181115 -118.23278389 1.53871505 -117.28272283 1.494313 C-108.21208802 1.08178546 -99.14180228 0.78331401 -90.06432474 0.57388186 C-89.16721843 0.55294593 -88.27011213 0.53200999 -87.34582078 0.51043963 C-58.23644951 -0.14242968 -29.11494036 -0.0219284 0 0 Z M149.73645651 71.83169436 C142.78207255 81.75688313 141.65580602 92.3526738 143.12708151 104.12856936 C144.01841823 107.79345639 145.25435204 110.86429785 147.12708151 114.12856936 C147.70458151 115.15981936 148.28208151 116.19106936 148.87708151 117.25356936 C156.25443843 126.68019209 164.44975511 132.94645033 176.49426901 134.90981936 C188.72254472 135.92581853 199.41290002 132.55411184 208.83411276 124.70669436 C215.89754026 118.24342737 220.728767 109.81877665 221.40051901 100.22231936 C221.79391481 87.75344229 220.19217647 78.61571298 211.93958151 68.75356936 C204.77858975 61.34235992 196.70863849 56.71088819 186.33020651 55.79263186 C171.10546746 55.64218978 159.63123519 59.75824882 149.73645651 71.83169436 Z M-29.87291849 105.12856936 C-30.70355814 105.32724612 -31.53419778 105.52592288 -32.39000833 105.73062015 C-61.90538557 112.98849979 -88.58265283 127.54588789 -110.39293802 148.6954639 C-111.76898128 150.02792414 -113.16209938 151.34268878 -114.55651224 152.65591311 C-141.82973063 178.90798137 -160.4329145 218.99392946 -162.0340513 256.94814944 C-162.56213744 282.22272723 -162.56213744 282.22272723 -158.87291849 307.12856936 C-158.67424173 307.95920901 -158.47556497 308.78984866 -158.27086771 309.64565921 C-155.12770579 322.427851 -150.69340621 334.3339655 -144.87291849 346.12856936 C-144.00666849 347.88620608 -144.00666849 347.88620608 -143.12291849 349.67935061 C-122.78385596 388.99212193 -86.6242655 418.31456773 -44.79821146 432.05947757 C-31.31379581 436.30168454 -17.54355136 439.24995636 -3.37682474 439.33169436 C-2.58501306 439.33739444 -1.79320138 439.34309451 -0.97739542 439.34896731 C0.69242668 439.35835807 2.36226681 439.36492752 4.03211081 439.36880374 C6.52700879 439.37842448 9.02105095 439.40946898 11.51575339 439.44106936 C25.91963713 439.53688946 39.52289006 437.54084695 53.37708151 433.50356936 C54.24566794 433.25051028 55.11425436 432.9974512 56.00916159 432.73672366 C86.23395021 423.57662635 115.0810952 405.82958598 135.12708151 381.12856936 C135.52894675 380.64436526 135.93081198 380.16016116 136.34485495 379.66128421 C143.53619677 370.97546704 149.68351284 362.00212884 155.12708151 352.12856936 C155.47367819 351.50788577 155.82027487 350.88720218 156.17737448 350.24770999 C177.48951579 311.60756651 181.02008377 265.71615842 169.37708151 223.56606936 C166.71231288 214.3640564 163.33919149 205.72349287 159.12708151 197.12856936 C158.79869284 196.44343265 158.47030417 195.75829593 158.13196433 195.05239749 C150.72308213 179.72804287 140.91408663 166.39864846 129.12708151 154.12856936 C128.43823874 153.39307864 128.43823874 153.39307864 127.73547995 152.64272952 C115.00239279 139.07994873 100.6706069 128.59772403 84.12708151 120.12856936 C83.51010397 119.81049319 82.89312644 119.49241702 82.25745261 119.16470218 C48.86574345 102.18045256 6.75246499 96.14772517 -29.87291849 105.12856936 Z " fill="#FFFFFF" transform="translate(479.87291848659515,223.87143063545227)"/>
<path d="M0 0 C24.34479939 18.34125467 40.95001601 43.91639151 45.2890625 74.390625 C45.73912551 78.05392859 46.06463786 81.70677665 46.2890625 85.390625 C46.35287109 86.42896484 46.35287109 86.42896484 46.41796875 87.48828125 C47.22318568 115.34878703 36.49965183 143.28266198 17.7890625 163.765625 C-1.58221087 184.27718119 -27.80063584 198.79263891 -56.49609375 199.7265625 C-85.46604018 200.08414299 -112.4762346 194.0138695 -134.7109375 174.390625 C-135.95617187 173.34261719 -135.95617187 173.34261719 -137.2265625 172.2734375 C-157.14362795 155.10566022 -170.90520326 129.67453156 -173.7109375 103.390625 C-174.33104876 89.24600877 -174.69598724 75.0811991 -170.7109375 61.390625 C-170.370625 60.16859375 -170.0303125 58.9465625 -169.6796875 57.6875 C-161.11696437 29.56936866 -141.36519996 6.09027671 -115.6484375 -7.921875 C-79.48560056 -26.85938272 -33.16827691 -23.98510654 0 0 Z " fill="#FFFFFF" transform="translate(550.7109375,404.609375)"/>
</svg>
