<?xml version="1.0" encoding="UTF-8"?>
<svg version="1.1" xmlns="http://www.w3.org/2000/svg" width="2000" height="2000">
<path d="M0 0 C4.74808967 0.01709007 9.49567417 0.006886 14.24374676 -0.01032352 C52.80838784 -0.12837081 91.31175616 2.06575726 129.58837891 6.88330078 C130.51201233 6.99874237 131.43564575 7.11418396 132.38726807 7.23312378 C189.51429202 14.51336294 246.33153791 26.32432509 301.24499512 43.77319336 C303.31506297 44.4282339 305.3874729 45.07541672 307.46044922 45.72119141 C351.63396654 59.50128413 394.38927186 76.57666682 436.19775391 96.39111328 C437.37853516 96.94798828 438.55931641 97.50486328 439.77587891 98.07861328 C454.91371897 105.22519861 469.84149615 112.65386203 484.44482422 120.85058594 C487.33123199 122.46580703 490.22837257 124.06045857 493.12744141 125.65283203 C544.35060037 153.89619823 593.13314198 187.09626203 638.19775391 224.39111328 C639.96843509 225.82880069 641.73927283 227.2662953 643.51025391 228.70361328 C653.06554909 236.52777795 662.41908687 244.57410973 671.50244141 252.94189453 C673.61804823 254.86433725 675.75341464 256.75003587 677.91137695 258.62402344 C690.88211478 269.96527483 703.09303547 282.12496324 715.25561523 294.31860352 C717.78530694 296.85372004 720.32038924 299.38335965 722.85595703 301.91259766 C724.49234593 303.54964645 726.12842508 305.18700494 727.76416016 306.82470703 C728.5090419 307.56756454 729.25392365 308.31042206 730.02137756 309.07579041 C734.05513825 313.12749459 737.92614547 317.26521948 741.64942932 321.60467529 C744.20374912 324.55181827 746.89695269 327.36723122 749.57275391 330.20361328 C754.29522823 335.24542971 758.76427541 340.41475896 763.08447266 345.80908203 C765.23394417 348.43533096 767.47235479 350.94744781 769.76025391 353.45361328 C773.33540966 357.38628461 776.70666656 361.42346793 779.99462891 365.59814453 C781.59618548 367.62848664 783.20893174 369.64516198 784.83837891 371.65283203 C797.89447196 387.77152039 810.17214283 404.49400799 822.19775391 421.39111328 C822.77412598 422.20080566 823.35049805 423.01049805 823.94433594 423.84472656 C831.99049018 435.17699785 839.79377837 446.62869656 847.19775391 458.39111328 C847.70129395 459.19097656 848.20483398 459.99083984 848.72363281 460.81494141 C875.27073853 503.11392868 899.23682064 546.77067201 919.35717773 592.48468018 C920.16278949 594.31181371 920.9740895 596.13643601 921.78564453 597.9609375 C930.7412146 618.12821451 938.65818878 638.65931424 946.19775391 659.39111328 C946.47403625 660.15016968 946.7503186 660.90922607 947.03497314 661.69128418 C974.99052019 738.73014922 992.48198098 819.37901733 1000.51025391 900.89111328 C1000.62342957 902.02614792 1000.62342957 902.02614792 1000.7388916 903.18411255 C1001.30046447 908.91440778 1001.76386912 914.64985908 1002.19775391 920.39111328 C1002.28388947 921.49555786 1002.37002502 922.60000244 1002.45877075 923.73791504 C1004.19423066 946.58887186 1004.5428607 969.37746328 1004.51342773 992.28808594 C1004.50882013 996.16873847 1004.51565359 1000.0490757 1004.53393555 1003.9296875 C1004.9730977 1098.15784023 991.38111042 1192.48405015 957.86450195 1304.33477783 C957.19236268 1306.4077405 956.52718997 1308.4828257 955.86376953 1310.55859375 C941.10944608 1356.64323941 922.64585608 1401.40799931 901.03662109 1444.69873047 C899.26128753 1448.25616032 897.51325425 1451.82660214 895.76806641 1455.39892578 C888.74897308 1469.70286876 881.20259185 1483.61738972 873.19775391 1497.39111328 C872.5141937 1498.57339895 871.83093746 1499.75586039 871.14794922 1500.93847656 C863.26654981 1514.57717129 855.36122261 1528.18124644 846.60498047 1541.28320312 C845.03001044 1543.64237926 843.46925502 1546.01066584 841.90869141 1548.37939453 C823.15773994 1576.76446459 803.23819947 1604.24674607 781.68603516 1630.57080078 C780.38366012 1632.16373193 779.08709359 1633.76140848 777.79150391 1635.35986328 C769.53294144 1645.53345472 761.00431427 1655.47332713 752.19775391 1665.17626953 C750.40171862 1667.1652383 748.63822087 1669.17674523 746.88525391 1671.20361328 C739.61569187 1679.53577951 732.072271 1687.59783929 724.19775391 1695.35986328 C722.33843107 1697.24823804 720.60387306 1699.18754081 718.88525391 1701.20361328 C712.2801204 1708.88400107 704.96905794 1715.99306058 697.25634766 1722.55126953 C694.63275289 1724.89607624 692.1680692 1727.38761966 689.69775391 1729.89111328 C686.03783387 1733.5952112 682.30831595 1737.14399097 678.34619141 1740.52392578 C676.16568688 1742.41898244 674.04392859 1744.3706342 671.92675781 1746.3359375 C666.81887175 1751.07492967 661.59770164 1755.58368407 656.16650391 1759.95361328 C652.67492746 1762.82038131 649.28265844 1765.78904646 645.88525391 1768.76611328 C639.45690878 1774.37632013 632.8589418 1779.7057941 626.10351562 1784.91503906 C624.04448105 1786.50982807 621.99746501 1788.11923619 619.95166016 1789.73095703 C610.26276391 1797.34775359 600.41802399 1804.70110485 590.37402344 1811.84277344 C588.28915993 1813.32608108 586.2098787 1814.81691978 584.13134766 1816.30908203 C558.98462404 1834.28882232 532.93676176 1850.8923835 506.19775391 1866.39111328 C505.28010254 1866.92349609 504.36245117 1867.45587891 503.41699219 1868.00439453 C489.06500729 1876.29923129 474.47568205 1884.07869919 459.70458984 1891.59960938 C456.24883979 1893.36501552 452.80515997 1895.15243653 449.36181641 1896.94189453 C417.32937182 1913.43649595 383.95257839 1927.29040175 350.13635254 1939.67871094 C348.2325986 1940.37830844 346.33152715 1941.08473762 344.43115234 1941.79345703 C266.20243139 1970.86925434 183.66798223 1988.51476228 100.69775391 1996.70361328 C99.94061096 1996.77915436 99.18346802 1996.85469543 98.40338135 1996.93252563 C92.67355552 1997.49401235 86.93861304 1997.958231 81.19775391 1998.39111328 C80.08533325 1998.47724884 78.9729126 1998.5633844 77.82678223 1998.65213013 C54.49165513 2000.41055674 31.2200237 2000.75507873 7.82524109 2000.7091713 C4.9032282 2000.70352728 1.98122112 2000.70070914 -0.9407959 2000.6980896 C-28.13896566 2000.66264557 -55.22823456 2000.4346413 -82.30926514 1997.64758301 C-84.94574539 1997.37635054 -87.58313179 1997.11537596 -90.22070312 1996.85498047 C-161.3487699 1989.74780547 -231.71487914 1976.15750063 -299.76208496 1954.0513916 C-301.80247274 1953.39103993 -303.84532777 1952.73896075 -305.88916016 1952.08935547 C-339.26476236 1941.46662182 -371.8601891 1928.74496845 -403.80224609 1914.39111328 C-404.85460449 1913.92205566 -405.90696289 1913.45299805 -406.99121094 1912.96972656 C-434.67810577 1900.59620631 -462.08438699 1887.17968155 -488.26806641 1871.86328125 C-490.83699883 1870.37092455 -493.42159961 1868.91014253 -496.01318359 1867.45751953 C-541.85637501 1841.7159573 -585.32495211 1811.16628574 -625.98193359 1777.87939453 C-627.57486474 1776.5770195 -629.17254129 1775.28045296 -630.77099609 1773.98486328 C-640.94458754 1765.72630082 -650.88445995 1757.19767364 -660.58740234 1748.39111328 C-662.57637111 1746.59507799 -664.58787804 1744.83158025 -666.61474609 1743.07861328 C-674.94691232 1735.80905125 -683.0089721 1728.26563038 -690.77099609 1720.39111328 C-692.65937085 1718.53179044 -694.59867362 1716.79723244 -696.61474609 1715.07861328 C-704.29513389 1708.47347978 -711.40419339 1701.16241731 -717.96240234 1693.44970703 C-720.30720905 1690.82611227 -722.79875247 1688.36142858 -725.30224609 1685.89111328 C-729.00634402 1682.23119325 -732.55512378 1678.50167533 -735.93505859 1674.53955078 C-737.83011525 1672.35904626 -739.78176702 1670.23728797 -741.74707031 1668.12011719 C-746.48606248 1663.01223112 -750.99481689 1657.79106101 -755.36474609 1652.35986328 C-758.23151412 1648.86828683 -761.20017928 1645.47601782 -764.17724609 1642.07861328 C-769.78745294 1635.65026816 -775.11692692 1629.05230117 -780.32617188 1622.296875 C-781.92096089 1620.23784043 -783.530369 1618.19082439 -785.14208984 1616.14501953 C-793.31062307 1605.75429026 -801.14450628 1595.16257081 -808.80224609 1584.39111328 C-809.82171165 1582.96528506 -810.8412421 1581.53950323 -811.86083984 1580.11376953 C-819.05909682 1570.015227 -825.98700966 1559.75120308 -832.80224609 1549.39111328 C-833.45628418 1548.40353027 -833.45628418 1548.40353027 -834.12353516 1547.39599609 C-854.05607626 1517.27672536 -871.72330007 1485.85511168 -888.12011719 1453.68798828 C-889.22012026 1451.53204612 -890.32443928 1449.37829919 -891.43359375 1447.22705078 C-934.57258434 1363.54448745 -964.37908826 1271.55768017 -992.11474609 1097.39111328 C-992.19028717 1096.65788849 -992.26582825 1095.9246637 -992.34365845 1095.16921997 C-992.90943594 1089.58229616 -993.37343925 1083.99009704 -993.80224609 1078.39111328 C-993.88838165 1077.29109985 -993.97451721 1076.19108643 -994.06326294 1075.05773926 C-995.85984024 1051.40363155 -996.16568315 1027.80597979 -996.12030411 1004.09107208 C-996.11466311 1001.09707078 -996.11184312 998.10307515 -996.10922241 995.10906982 C-996.07423107 967.61571724 -995.88739407 940.22763273 -993.05548096 912.8536377 C-992.78848274 910.25727471 -992.53455714 907.65983913 -992.28222656 905.06201172 C-983.75423091 818.21387678 -964.31848729 732.84856611 -892.64111328 556.08349609 C-890.86577972 552.52606624 -889.11774644 548.95562443 -887.37255859 545.38330078 C-880.35346526 531.0793578 -872.80708404 517.16483684 -864.80224609 503.39111328 C-864.11868589 502.20882762 -863.43542964 501.02636617 -862.75244141 499.84375 C-854.87104199 486.20505527 -846.9657148 472.60098012 -838.20947266 459.49902344 C-836.63450263 457.1398473 -835.07374721 454.77156072 -833.51318359 452.40283203 C-814.76339701 424.01952536 -794.84503888 396.53882603 -773.29492188 370.21582031 C-771.98038407 368.60887632 -770.67026308 366.99832138 -769.36083984 365.38720703 C-761.17107678 355.32214939 -752.83575944 345.42350635 -744.06005859 335.86376953 C-742.15043458 333.77243389 -740.27893357 331.65852464 -738.42724609 329.51611328 C-731.18590872 321.19882248 -723.65539753 313.16332684 -715.80224609 305.42236328 C-713.94292326 303.53398852 -712.20836525 301.59468575 -710.48974609 299.57861328 C-703.88461259 291.89822549 -696.57355012 284.78916598 -688.86083984 278.23095703 C-686.23724508 275.88615032 -683.77256139 273.3946069 -681.30224609 270.89111328 C-677.64232606 267.18701536 -673.91280814 263.6382356 -669.95068359 260.25830078 C-667.77017907 258.36324412 -665.64842078 256.41159236 -663.53125 254.44628906 C-658.42336394 249.70729689 -653.20219382 245.19854249 -647.77099609 240.82861328 C-644.27941965 237.96184525 -640.88715063 234.9931801 -637.48974609 232.01611328 C-631.06140097 226.40590643 -624.46343398 221.07643246 -617.70800781 215.8671875 C-615.64897324 214.27239849 -613.6019572 212.66299037 -611.55615234 211.05126953 C-601.8672561 203.43447297 -592.02251618 196.08112171 -581.97851562 188.93945312 C-579.89365212 187.45614548 -577.81437089 185.96530678 -575.73583984 184.47314453 C-550.58836724 166.49286872 -524.53892134 149.8951385 -497.80224609 134.39111328 C-496.89522949 133.86404785 -495.98821289 133.33698242 -495.05371094 132.79394531 C-480.06750411 124.11631459 -464.79057613 116.05325374 -449.35986328 108.20361328 C-446.02568879 106.50495068 -442.69880638 104.79272797 -439.37255859 103.07861328 C-357.40389577 61.13506051 -267.61817723 32.54215988 0 0 Z M-48.97802734 322.65673828 C-54.57207463 331.04181987 -56.75775402 341.51878618 -59.56396484 351.09814453 C-60.02683476 352.66507296 -60.49012383 354.23187762 -60.95379639 355.79856873 C-62.20841145 360.04225459 -63.45703284 364.28768266 -64.70454025 368.53346252 C-66.03649432 373.0628712 -67.37396353 377.59065131 -68.71069336 382.11865234 C-71.52363711 391.65092821 -74.3296791 401.18522588 -77.1340332 410.72003174 C-78.74557264 416.19911654 -80.35864664 421.67774856 -81.97216797 427.15625 C-87.68456058 446.55291344 -93.38957366 465.9517373 -99.08940125 485.35209656 C-102.74298068 497.78756698 -106.3986923 510.22240865 -110.05615234 522.65673828 C-110.3138484 523.53283501 -110.57154446 524.40893173 -110.83704948 525.31157684 C-112.13825305 529.73527421 -113.43949458 534.15896042 -114.74075317 538.5826416 C-117.08436198 546.54990153 -119.42763399 554.51726051 -121.77093315 562.48461151 C-123.07302384 566.91178278 -124.37513605 571.33894771 -125.67724609 575.76611328 C-126.19807953 577.53694658 -126.71891286 579.30777992 -127.23974609 581.07861328 C-128.28141276 584.62027995 -129.32307943 588.16194661 -130.36474609 591.70361328 C-130.62255828 592.58017484 -130.88037046 593.45673639 -131.14599514 594.35986042 C-131.66683138 596.13070337 -132.18766789 597.90154624 -132.70850468 599.67238903 C-134.01054584 604.09932455 -135.31258223 608.52626147 -136.61460876 612.95320129 C-138.95885714 620.9237179 -141.30313908 628.89422463 -143.64760113 636.86467838 C-144.95047534 641.29405593 -146.25332131 645.72344178 -147.55615234 650.15283203 C-147.81408632 651.02975897 -148.0720203 651.90668591 -148.33777046 652.81018639 C-151.97341176 665.17088765 -155.60747348 677.53205242 -159.24053955 689.89351082 C-161.57324869 697.83031738 -163.90639626 705.76699505 -166.23974609 713.70361328 C-166.49699715 714.57863873 -166.7542482 715.45366417 -167.01929474 716.35520554 C-175.48305019 745.1431242 -183.97905193 773.92142092 -192.48820496 802.69594955 C-202.03863422 834.99266664 -211.54109585 867.30327819 -221.01219463 899.62334633 C-222.40022186 904.35983218 -223.78860667 909.09621313 -225.17724609 913.83251953 C-225.45017298 914.7634203 -225.72309986 915.69432106 -226.00429726 916.65343094 C-229.90945148 929.97015413 -233.83488727 943.28076706 -237.77612877 956.58685303 C-238.60421593 959.38290179 -239.43181003 962.17909599 -240.25923157 964.9753418 C-240.7961057 966.78955266 -241.33298612 968.60376167 -241.86987305 970.41796875 C-242.1311691 971.30095013 -242.39246515 972.1839315 -242.66167927 973.09366989 C-244.19327714 978.26777485 -245.72861287 983.4407526 -247.26672173 988.61292553 C-248.20267108 991.76308484 -249.13536576 994.91420084 -250.06718445 998.06558418 C-250.49806447 999.52010629 -250.93038673 1000.97420203 -251.36424255 1002.42783928 C-251.95299863 1004.40093043 -252.53679907 1006.37542154 -253.11938477 1008.3503418 C-253.44653976 1009.45185074 -253.77369476 1010.55335968 -254.11076355 1011.68824768 C-254.92617143 1014.41052643 -254.92617143 1014.41052643 -254.80224609 1017.39111328 C-255.97408447 1017.62781738 -257.14592285 1017.86452148 -258.35327148 1018.10839844 C-265.33680833 1019.66489579 -272.14751492 1021.82702321 -278.98583984 1023.91455078 C-280.49761152 1024.37333168 -282.00947512 1024.83180979 -283.52142334 1025.29000854 C-287.58541277 1026.52248624 -291.64816463 1027.75899694 -295.71068954 1028.99629211 C-299.95249561 1030.28745822 -304.19540348 1031.5749929 -308.43823242 1032.86279297 C-313.66779762 1034.45035405 -318.89723334 1036.03833732 -324.12614441 1037.62805176 C-335.03346701 1040.94412136 -345.94312907 1044.25233273 -356.85554314 1047.55160904 C-359.16803065 1048.25079027 -361.48045754 1048.95017162 -363.79286194 1049.64962769 C-364.53963164 1049.87550882 -365.28640135 1050.10138996 -366.05580044 1050.33411598 C-367.53747814 1050.78229477 -369.01915552 1051.23047464 -370.50083256 1051.67865562 C-374.08415743 1052.76249135 -377.66757482 1053.84601917 -381.25119019 1054.92889404 C-385.22046826 1056.12840265 -389.18911385 1057.32999147 -393.15771484 1058.53173828 C-394.31374207 1058.88074188 -395.46976929 1059.22974548 -396.66082764 1059.58932495 C-398.76686638 1060.22765979 -400.86998524 1060.87574929 -402.96932983 1061.5357666 C-404.78920511 1062.08524429 -406.62587401 1062.58321451 -408.47720337 1063.01501465 C-409.27838593 1063.21872681 -410.07956848 1063.42243896 -410.9050293 1063.63232422 C-411.59143997 1063.78312439 -412.27785065 1063.93392456 -412.98506165 1064.08929443 C-416.0740517 1066.30222636 -416.70426452 1069.90490513 -417.80224609 1073.39111328 C-418.2647698 1074.75183375 -418.72813685 1076.11226785 -419.19235229 1077.47241211 C-419.67449465 1078.93044057 -420.15489036 1080.38904746 -420.63378906 1081.84814453 C-420.89929565 1082.65266556 -421.16480225 1083.45718658 -421.43835449 1084.28608704 C-422.30867226 1086.92473013 -423.17661767 1089.56414641 -424.04443359 1092.20361328 C-424.65582612 1094.05960607 -425.26732912 1095.91556247 -425.87893677 1097.77148438 C-427.15926745 1101.65786033 -428.43845637 1105.54460961 -429.71679688 1109.43164062 C-431.34083507 1114.36961921 -432.96738992 1119.30676417 -434.59478569 1124.24363708 C-435.85864924 1128.07848965 -437.12129435 1131.91374254 -438.38357925 1135.74911499 C-438.98198477 1137.56695453 -439.58071687 1139.38468659 -440.17980576 1141.20230103 C-441.81158934 1146.15446881 -443.43476081 1151.10928659 -445.04506683 1156.06848145 C-445.55447311 1157.63107473 -446.06746309 1159.1925038 -446.58383942 1160.75280762 C-447.32119228 1162.98124011 -448.04751764 1165.21298985 -448.77148438 1167.44580078 C-448.99338377 1168.10750275 -449.21528316 1168.76920471 -449.44390678 1169.45095825 C-450.48359371 1172.6980972 -450.91047063 1174.06643967 -449.80224609 1177.39111328 C-414.6267491 1166.87084216 -379.46105684 1156.31923629 -344.33657455 1145.62969589 C-342.13630394 1144.96017314 -339.93591656 1144.29103534 -337.73550415 1143.62197876 C-322.39915546 1138.95796077 -307.0718325 1134.27030433 -291.80224609 1129.39111328 C-291.99109375 1129.98158447 -292.17994141 1130.57205566 -292.37451172 1131.18041992 C-297.73609376 1148.02953678 -302.75714975 1164.97099211 -307.67724609 1181.95361328 C-309.06487175 1186.74279043 -310.45275389 1191.5318929 -311.84130859 1196.32080078 C-312.12143799 1197.2869311 -312.12143799 1197.2869311 -312.40722656 1198.27257919 C-317.95080563 1217.38573164 -323.56292896 1236.47884986 -329.16983795 1255.57349777 C-330.05599589 1258.59138353 -330.9420412 1261.60930234 -331.82806396 1264.62722778 C-339.53942112 1290.89240602 -347.25943297 1317.15503489 -354.98641968 1343.4156189 C-363.43731712 1372.13670753 -371.86890343 1400.86345583 -380.29760742 1429.59106445 C-380.58241691 1430.56178107 -380.86722639 1431.53249769 -381.16066647 1432.53262997 C-382.89811879 1438.45440103 -382.89811879 1438.45440103 -384.63554192 1444.37618065 C-389.07672917 1459.51337434 -393.5208062 1474.64971761 -397.96630859 1489.78564453 C-403.84649304 1509.8066554 -409.72183407 1529.82908237 -415.59197044 1549.85304165 C-417.23780586 1555.46696078 -418.88496145 1561.08049121 -420.53271484 1566.69384766 C-422.50805277 1573.42364065 -424.47907064 1580.15468401 -426.44644165 1586.8868103 C-427.13350407 1589.23570884 -427.82192573 1591.58421029 -428.5118103 1593.93228149 C-429.42878932 1597.05419321 -430.34085645 1600.17749478 -431.25146484 1603.30126953 C-431.51560181 1604.19634216 -431.77973877 1605.09141479 -432.05187988 1606.01361084 C-432.28620728 1606.82147034 -432.52053467 1607.62932983 -432.76196289 1608.46166992 C-433.06616402 1609.50104454 -433.06616402 1609.50104454 -433.37651062 1610.56141663 C-433.91555956 1612.56500842 -433.91555956 1612.56500842 -433.80224609 1615.39111328 C-351.85831501 1615.45965728 -269.91438047 1615.52325712 -187.97042847 1615.56048584 C-186.15182329 1615.56131418 -186.15182329 1615.56131418 -184.29647861 1615.56215926 C-157.94897432 1615.57413032 -131.60146972 1615.58521113 -105.25396467 1615.5953746 C-92.33353497 1615.60036403 -79.41310536 1615.60555024 -66.49267578 1615.61083984 C-64.56404783 1615.6116244 -64.56404783 1615.6116244 -62.5964577 1615.6124248 C-20.90628598 1615.62947637 20.78386408 1615.65952622 62.47402268 1615.69630216 C105.30880915 1615.73401927 148.14358364 1615.75865198 190.97838644 1615.76677324 C197.02568219 1615.7679259 203.07297789 1615.76922844 209.12027359 1615.77062225 C210.90560109 1615.77102679 210.90560109 1615.77102679 212.72699581 1615.7714395 C231.90191675 1615.77617011 251.07680066 1615.79473241 270.25170649 1615.81844142 C289.51945542 1615.84197097 308.78716757 1615.85099007 328.05493037 1615.84511879 C339.50840384 1615.84207181 350.9617429 1615.85022908 362.41519216 1615.87430345 C370.06251172 1615.88928227 377.70974307 1615.88978255 385.35706867 1615.87844054 C389.7167456 1615.87239109 394.076168 1615.87270273 398.43581782 1615.89064601 C402.40347544 1615.90685203 406.37068031 1615.9045747 410.3383311 1615.88767318 C411.76334459 1615.88482067 413.18839151 1615.88864869 414.61336221 1615.90005426 C427.8332711 1615.99914232 437.30391459 1612.99258818 446.88525391 1603.76611328 C455.0802768 1594.91548855 457.36427135 1582.52975292 460.57275391 1571.25048828 C461.0952393 1569.4321283 461.61832514 1567.61394076 462.14196777 1565.7959137 C463.25569383 1561.92470675 464.36543007 1558.05238794 465.47192383 1554.17910767 C467.20566269 1548.11019862 468.94796687 1542.04377115 470.69189453 1535.9777832 C472.46513886 1529.80839783 474.23785807 1523.63886478 476.00744629 1517.46842957 C481.32004139 1498.94463474 486.67896264 1480.4344538 492.05200195 1461.92811584 C493.6986651 1456.25564925 495.34369518 1450.58270879 496.98884583 1444.90980339 C497.52099107 1443.07511699 498.05339801 1441.24050649 498.58581543 1439.40589905 C499.19910994 1437.29194248 499.81138428 1435.1776895 500.4223175 1433.06304932 C500.89438619 1431.43643324 501.37116188 1429.81116096 501.85636902 1428.18841553 C504.32895296 1419.85404752 504.66162022 1409.635293 501.36572266 1401.44970703 C496.56806396 1392.99363301 490.29554167 1388.4237092 481.19775391 1385.39111328 C478.13638918 1385.29071413 475.09765364 1385.24895116 472.03603077 1385.25244808 C471.08201485 1385.24960586 470.12799893 1385.24676365 469.14507344 1385.2438353 C465.91781813 1385.23545035 462.69059853 1385.23421712 459.46333313 1385.2328949 C457.13848049 1385.22833213 454.81362866 1385.22333254 452.48877782 1385.21793133 C446.75002093 1385.20573926 441.01127079 1385.19819619 435.27250402 1385.19256455 C428.40147328 1385.18556012 421.53045643 1385.1727875 414.65943485 1385.15978664 C401.97804779 1385.13595376 389.29665763 1385.11675899 376.61525917 1385.1001873 C364.05505258 1385.0837589 351.49485177 1385.06528146 338.93465233 1385.04405403 C338.15434531 1385.04273642 337.37403829 1385.04141882 336.57008561 1385.04006128 C332.60746715 1385.0333594 328.64484875 1385.02662079 324.68223038 1385.01986802 C296.59878744 1384.9720767 268.51533912 1384.92889981 240.43188477 1384.88842773 C213.14542244 1384.8490937 185.85896458 1384.80767503 158.57250977 1384.76342773 C157.73175087 1384.7620652 156.89099197 1384.76070267 156.02475552 1384.75929886 C147.58168016 1384.74561374 139.13860487 1384.73188618 130.69552963 1384.71812752 C113.4952776 1384.6900993 96.29502511 1384.66235445 79.09477234 1384.63478088 C78.30389394 1384.63351268 77.51301555 1384.63224449 76.69817115 1384.63093786 C23.86470598 1384.54625018 -28.96876935 1384.46818924 -81.80224609 1384.39111328 C-79.31034419 1375.91384175 -76.81811759 1367.43666576 -74.32550904 1358.95960199 C-73.1673134 1355.02068191 -72.00921761 1351.08173254 -70.85137463 1347.14270878 C-64.21269951 1324.55806103 -57.54341505 1301.98292992 -50.81118774 1279.42596436 C-48.19546317 1270.66144546 -45.58498157 1261.89536335 -42.97412109 1253.12939453 C-42.71185038 1252.24893463 -42.44957966 1251.36847473 -42.17936134 1250.46133423 C-36.80064581 1232.40329871 -31.45306182 1214.33612651 -26.11474609 1196.26611328 C-19.37981645 1173.46880349 -12.62194307 1150.67846949 -5.84170532 1127.89459229 C4.14711152 1094.32778852 4.14711152 1094.32778852 14.08282471 1060.74523926 C14.73680563 1058.52938949 15.3916959 1056.31380787 16.04754639 1054.09851074 C16.93099042 1051.11348408 17.81100865 1048.12747085 18.68994141 1045.14111328 C18.94811646 1044.2710968 19.2062915 1043.40108032 19.47229004 1042.50469971 C20.73383673 1038.51570746 20.73383673 1038.51570746 21.19775391 1034.39111328 C22.06924072 1034.18139893 22.94072754 1033.97168457 23.83862305 1033.75561523 C36.51854967 1030.64925538 49.07197717 1027.12339953 61.63525391 1023.57861328 C64.06231863 1022.89536032 66.48940255 1022.21217556 68.91650391 1021.52905273 C76.54808273 1019.37945708 84.17799749 1017.22399876 91.80745697 1015.06689453 C94.30415627 1014.36103136 96.8009098 1013.65536023 99.29766846 1012.94970703 C111.18679513 1009.58919478 123.07440199 1006.2233438 134.96104813 1002.85406876 C137.69067486 1002.08061916 140.42049277 1001.30784772 143.15036011 1000.5352478 C147.48787859 999.30750052 151.824776 998.07758223 156.16122246 996.84605408 C157.76755369 996.39020314 159.37408141 995.93504394 160.98082161 995.4806366 C161.74101538 995.26558975 162.50120914 995.05054291 163.28443909 994.82897949 C164.01767804 994.6218634 164.750917 994.41474731 165.50637531 994.20135498 C167.56230186 993.61279146 169.6103982 993.00138417 171.65911865 992.38830566 C175.19775391 991.39111328 175.19775391 991.39111328 178.05328369 990.91540527 C180.62754481 990.41919555 182.12994503 990.01038685 184.19775391 988.39111328 C186.57699053 984.02365785 187.75795525 979.37249983 188.99462891 974.58642578 C189.39184457 973.16399596 189.7924738 971.74251553 190.19628906 970.32194519 C191.26820998 966.51706165 192.29429176 962.70118661 193.3122406 958.88156509 C194.37087243 954.94121867 195.47169632 951.012738 196.56982422 947.08325195 C198.10484155 941.57725275 199.62737405 936.06812284 201.13204575 930.55375195 C203.47435464 921.97012386 205.89007762 913.41227875 208.38525391 904.87158203 C208.69626038 903.80697754 209.00726685 902.74237305 209.32769775 901.64550781 C209.91909153 899.62456388 210.51104577 897.60378385 211.1036377 895.58319092 C212.42976328 891.05930959 213.74736211 886.5330372 215.05712891 882.00439453 C215.27796143 881.24942184 215.49879395 880.49444916 215.72631836 879.71659851 C216.81902032 876.11270115 216.81902032 876.11270115 217.19775391 872.39111328 C208.33090813 873.86664821 199.83336899 876.4961068 191.26025391 879.13330078 C189.68228119 879.61477689 188.10417293 880.09580899 186.52593994 880.57643127 C183.16329757 881.60142005 179.80156752 882.62932753 176.44055176 883.65963745 C171.1614698 885.27791672 165.88048512 886.88991877 160.59912109 888.50073242 C155.18229741 890.15314004 149.76558284 891.80589898 144.34954834 893.46089172 C132.37126028 897.12085437 120.3884392 900.76554322 108.40087891 904.39501953 C107.24154594 904.74604988 107.24154594 904.74604988 106.05879211 905.10417175 C101.57603631 906.46135915 97.09310794 907.81797574 92.61010742 909.17435455 C87.71670206 910.65494186 82.82339189 912.13584307 77.93035889 913.61766052 C75.48129926 914.35931352 73.03212816 915.10059856 70.58282471 915.84144592 C69.51376892 916.16519699 68.44471313 916.48894806 67.34326172 916.82250977 C66.41572083 917.10319809 65.48817993 917.38388641 64.53253174 917.67308044 C62.74686936 918.22223943 60.97008264 918.80033704 59.19775391 919.39111328 C61.92063342 908.09481457 65.00572919 896.94683217 68.32666016 885.81298828 C68.82967234 884.11692321 69.33234763 882.4207582 69.8347168 880.72450256 C70.90986974 877.09627216 71.98698893 873.468634 73.06570435 869.84146118 C75.69865158 860.98734847 78.32054631 852.12995901 80.94370842 843.2729435 C81.86036351 840.17823645 82.77740498 837.08364407 83.69447327 833.98905945 C89.80611252 813.36072657 95.86704915 792.71760653 101.91939163 772.07181168 C104.17671397 764.37203908 106.43510149 756.67257877 108.69328499 748.9730587 C109.25552436 747.05601273 109.8177434 745.13896079 110.37994194 743.22190285 C116.51677481 722.29597052 122.66799155 701.37427813 128.82275391 680.45361328 C129.34009941 678.69503824 129.85744356 676.9364628 130.37478638 675.17788696 C132.43693171 668.16822465 134.49916676 661.15858874 136.56156921 654.14900208 C140.18838605 641.82235744 143.81444393 629.49548978 147.43994141 617.16845703 C147.69798679 616.29107943 147.95603218 615.41370182 148.22189713 614.50973701 C149.52568831 610.07671532 150.82946686 605.64368992 152.13323975 601.21066284 C154.47763143 593.23939505 156.82213504 585.26816017 159.16662979 577.29692268 C160.46867571 572.86998755 161.77071444 568.44305031 163.07275391 564.01611328 C163.59358721 562.24527994 164.11442054 560.4744466 164.63525391 558.70361328 C164.89306641 557.82705078 165.15087891 556.95048828 165.41650391 556.04736328 C166.19775391 553.39111328 166.97900391 550.73486328 167.76025391 548.07861328 C168.14697927 546.76374687 168.14697927 546.76374687 168.54151726 545.4223175 C169.06230581 543.65163668 169.58309464 541.88095593 170.10388374 540.11027527 C171.40665447 535.68085924 172.7094204 531.25144181 174.01217651 526.82202148 C176.34771317 518.88112508 178.68328167 510.94023805 181.01903343 502.99940491 C182.31040183 498.60914811 183.60174158 494.21888289 184.89306641 489.82861328 C185.1491782 488.95788177 185.40528999 488.08715027 185.66916275 487.19003296 C189.19506174 475.20244339 192.71964009 463.21446621 196.2432251 451.22619629 C198.20722164 444.54412678 200.17159047 437.86216673 202.13603592 431.18022919 C203.71403562 425.812639 205.29162105 420.44492741 206.8686409 415.07704926 C207.60790977 412.56144369 208.34786396 410.04604034 209.08782959 407.53063965 C210.04398033 404.27944812 210.99632137 401.02717574 211.94586182 397.77404785 C214.0933538 390.43169262 216.27159568 383.10314924 218.56905937 375.8061142 C219.616126 372.47696746 220.64745884 369.1430249 221.67839432 365.80885315 C222.16488446 364.25238523 222.65933189 362.69837551 223.16282272 361.14732361 C227.22967246 348.61440399 230.40375125 334.94526978 224.38916016 322.43408203 C220.20532584 315.259835 214.62535813 310.6991529 206.63990498 308.34002399 C201.98857906 307.21332233 197.53533741 307.10908537 192.76786804 307.13041687 C191.84999459 307.12659132 190.93212113 307.12276578 189.98643333 307.1188243 C186.92750119 307.10855046 183.86875873 307.11247578 180.80981445 307.11645508 C178.6097598 307.11210547 176.40970666 307.10692149 174.20965576 307.10096741 C168.244688 307.08759219 162.27978367 307.08699717 156.31480384 307.08953071 C151.32986563 307.09060154 146.34494019 307.08571411 141.36000472 307.08092529 C128.92383159 307.06920123 116.48768666 307.07005223 104.05151252 307.07648209 C93.27001684 307.08164861 82.48861159 307.07040082 71.70713379 307.05138388 C60.61800944 307.03197534 49.5289218 307.02404579 38.43977958 307.02750713 C32.22160263 307.02931764 26.00350848 307.02670694 19.78534508 307.01279259 C13.93547435 307.00019194 8.08578418 307.00217965 2.23591614 307.01520348 C0.0942154 307.01756401 -2.04749813 307.01485339 -4.18918419 307.00658035 C-22.76751266 306.94001394 -35.82324757 308.42641047 -48.97802734 322.65673828 Z " fill="#FEFEFE" transform="translate(995.80224609375,-0.39111328125)"/>
</svg>
