<?xml version="1.0" encoding="UTF-8"?>
<svg version="1.1" xmlns="http://www.w3.org/2000/svg" width="1920" height="1920">
<path d="M0 0 C1.78406298 -0.00706141 3.56812568 -0.01419412 5.35218811 -0.02139282 C11.03036914 -0.04094607 16.70850722 -0.04608519 22.38671875 -0.046875 C23.35394112 -0.04716957 24.32116348 -0.04746414 25.31769562 -0.04776764 C54.00569783 -0.04918016 82.52453333 0.08959353 111.07421875 3.203125 C111.98822449 3.30022766 112.90223022 3.39733032 113.84393311 3.49737549 C208.79880937 13.61073461 302.58022642 36.23350974 418.07421875 87.203125 C419.20134277 87.72310059 420.3284668 88.24307617 421.48974609 88.77880859 C431.93300664 93.61467864 442.17974957 98.7438669 452.3125 104.19921875 C455.44755133 105.88298789 458.62046246 107.46571187 461.82421875 109.015625 C477.9610286 117.01807566 493.33402751 126.6754991 508.80761719 135.87109375 C510.74067006 137.00710587 512.68645532 138.11118593 514.64453125 139.203125 C518.91445015 141.69310049 522.98008036 144.43695714 527.07421875 147.203125 C528.47934754 148.13450624 529.88557684 149.06422956 531.29296875 149.9921875 C540.97258133 156.39667575 550.5093967 162.97176237 559.9609375 169.70751953 C562.08258537 171.2090462 564.21668149 172.69097837 566.35546875 174.16796875 C574.29864172 179.6711944 581.94359953 185.39548705 589.39550781 191.54956055 C593.32254419 194.79225164 597.29457679 197.92093218 601.38671875 200.953125 C609.82182176 207.20811343 617.79296767 213.88835667 625.55078125 220.9609375 C628.12504233 223.24828404 630.76711364 225.41860771 633.44921875 227.578125 C638.59985199 231.74525684 643.46441159 236.15903227 648.31640625 240.6640625 C650.47126472 242.64799736 652.64964977 244.56469014 654.88671875 246.453125 C659.65799734 250.57422936 664.03298097 255.11179886 668.44458008 259.61035156 C671.56161901 262.7706198 674.71824342 265.80256889 678.08984375 268.69140625 C682.12782111 272.17474864 685.72806715 275.95914093 689.32421875 279.890625 C693.98250414 284.92736688 698.68902588 289.88590139 703.57421875 294.703125 C707.95732531 299.04144069 712.0820526 303.50459148 716.07421875 308.203125 C717.07160418 309.35010097 718.07044653 310.49581078 719.0703125 311.640625 C724.84383121 318.25720962 730.52570819 324.92092569 736.046875 331.75 C737.91298947 334.00803447 739.84374981 336.1706079 741.82421875 338.328125 C746.83317917 343.89474304 751.26276086 349.90411731 755.77734375 355.87109375 C758.24085404 359.12358542 760.74967815 362.33364641 763.29541016 365.52197266 C769.37493959 373.1418561 774.99577584 381.04348595 780.5625 389.04296875 C782.04277676 391.15819626 783.53936656 393.26067959 785.04296875 395.359375 C792.72349248 406.09541418 799.96575847 417.08144102 807.07421875 428.203125 C807.5954834 429.01604004 808.11674805 429.82895508 808.65380859 430.66650391 C818.51140669 446.05721602 827.79144907 461.71812595 836.6015625 477.73046875 C838.15339371 480.54939705 839.72582899 483.35399998 841.328125 486.14453125 C854.28457599 508.82872226 865.75563933 532.4878545 875.94238281 556.53369141 C876.98176707 558.98507783 878.03669436 561.42898871 879.09765625 563.87109375 C881.14979806 568.62438089 883.12639232 573.40622617 885.07421875 578.203125 C885.48687988 579.21793945 885.89954102 580.23275391 886.32470703 581.27832031 C905.66944933 629.22299151 921.16025387 678.66266173 932.07421875 729.203125 C932.36371636 730.52739097 932.65343558 731.85160852 932.94335938 733.17578125 C951.31572514 817.40564481 957.31638286 903.4319277 853.54199219 1350.29736328 C852.95321289 1351.4470459 852.36443359 1352.59672852 851.7578125 1353.78125 C851.23759521 1354.78575195 850.71737793 1355.79025391 850.18139648 1356.82519531 C848.93352024 1359.06813376 848.93352024 1359.06813376 849.07421875 1361.203125 C848.41421875 1361.203125 847.75421875 1361.203125 847.07421875 1361.203125 C846.76871094 1362.35554688 846.76871094 1362.35554688 846.45703125 1363.53125 C844.51916179 1368.67700505 841.73651456 1373.2257161 838.94921875 1377.953125 C837.83857328 1379.84147645 836.73160162 1381.73199512 835.62890625 1383.625 C835.13890137 1384.45612305 834.64889648 1385.28724609 834.14404297 1386.14355469 C832.9205648 1388.11212299 832.9205648 1388.11212299 833.07421875 1390.203125 C832.41421875 1390.203125 831.75421875 1390.203125 831.07421875 1390.203125 C830.6575293 1391.30237305 830.6575293 1391.30237305 830.23242188 1392.42382812 C829.16141595 1394.99388113 827.96107378 1397.28051968 826.54296875 1399.671875 C826.06214844 1400.49042969 825.58132813 1401.30898437 825.0859375 1402.15234375 C824.078125 1403.85286458 823.0703125 1405.55338542 822.0625 1407.25390625 C821.58167969 1408.07246094 821.10085938 1408.89101562 820.60546875 1409.734375 C820.16783203 1410.47236328 819.73019531 1411.21035156 819.27929688 1411.97070312 C818.00180452 1414.22924181 818.00180452 1414.22924181 817.03027344 1416.8684082 C816.07421875 1419.203125 816.07421875 1419.203125 814.24609375 1421.02734375 C811.27814064 1424.00063491 809.43196325 1427.40251822 807.32421875 1431.015625 C801.04782793 1441.52546041 794.05627527 1451.49746612 786.99169922 1461.48779297 C785.23042185 1463.98192677 783.47998072 1466.48316538 781.734375 1468.98828125 C775.7369248 1477.57799429 769.54959269 1485.96721175 763.07421875 1494.203125 C762.18089628 1495.34367693 761.28766941 1496.48430374 760.39453125 1497.625 C758.552077 1499.97575139 756.70516977 1502.32291637 754.85546875 1504.66796875 C753.01195522 1507.00657152 751.1792764 1509.35303168 749.35546875 1511.70703125 C740.73831331 1522.8057044 731.64362805 1533.4272909 722.1796875 1543.8125 C720.08637381 1546.18932371 718.14789222 1548.64448531 716.19921875 1551.140625 C710.94529041 1557.66145804 704.96311889 1563.44611027 698.98876953 1569.30249023 C694.71423453 1573.50326616 690.63360514 1577.76847136 686.73144531 1582.31665039 C684.04506381 1585.37464536 681.16062723 1588.22319062 678.26171875 1591.078125 C677.69001953 1591.6453125 677.11832031 1592.2125 676.52929688 1592.796875 C675.04629974 1594.26767356 673.5604535 1595.7355981 672.07421875 1597.203125 C671.41421875 1597.863125 670.75421875 1598.523125 670.07421875 1599.203125 C668.07421875 1601.203125 668.07421875 1601.203125 665.07421875 1603.703125 C661.93590549 1606.37166995 659.03145403 1609.21020731 656.13671875 1612.140625 C651.9370196 1616.37810255 647.61764682 1620.34159423 643.07421875 1624.203125 C641.99943655 1625.12955505 640.92527101 1626.05670077 639.8515625 1626.984375 C633.49652111 1632.4661577 627.08331412 1637.8560289 620.5625 1643.140625 C618.2947465 1645.02033276 616.11879228 1646.96192941 613.94921875 1648.953125 C608.25210954 1654.09088167 602.0805214 1658.6286445 595.96484375 1663.25 C590.30893796 1667.47932023 590.30893796 1667.47932023 585.07421875 1672.203125 C579.4877849 1676.63394871 573.59750854 1680.64163328 567.69921875 1684.640625 C566.0258124 1685.78091361 564.3526332 1686.92153566 562.6796875 1688.0625 C561.48931885 1688.87364258 561.48931885 1688.87364258 560.27490234 1689.70117188 C557.51253544 1691.58647043 554.75814174 1693.48216172 552.01171875 1695.390625 C551.27824219 1695.89980469 550.54476563 1696.40898438 549.7890625 1696.93359375 C547.94679313 1698.23216344 547.94679313 1698.23216344 546.07421875 1700.203125 C544.46416883 1701.28315066 542.83316492 1702.33209522 541.19140625 1703.36328125 C540.20237305 1703.98605957 539.21333984 1704.60883789 538.19433594 1705.25048828 C537.16469727 1705.8948584 536.13505859 1706.53922852 535.07421875 1707.203125 C534.10387695 1707.81269043 533.13353516 1708.42225586 532.13378906 1709.05029297 C526.01667705 1712.88854093 519.88721255 1716.70700035 513.75830078 1720.52636719 C511.6701486 1721.83084501 509.58662522 1723.1416788 507.5078125 1724.4609375 C495.44555612 1732.04292722 482.88889559 1738.86404029 470.37695312 1745.67041016 C469.57064453 1746.11046387 468.76433594 1746.55051758 467.93359375 1747.00390625 C467.23202148 1747.38329346 466.53044922 1747.76268066 465.80761719 1748.15356445 C463.90978529 1749.20847525 463.90978529 1749.20847525 462.07421875 1751.203125 C459.42226212 1752.52006255 456.76416245 1753.78074372 454.07421875 1755.015625 C447.2242251 1758.20188387 440.4484462 1761.50557774 433.71118164 1764.92382812 C420.0390337 1771.85762608 406.18108127 1778.20785959 392.07421875 1784.203125 C391.05004852 1784.64043442 391.05004852 1784.64043442 390.00518799 1785.08657837 C344.99859237 1804.29005615 298.60374998 1820.45947992 251.07421875 1832.203125 C249.88424286 1832.4973938 249.88424286 1832.4973938 248.67022705 1832.79760742 C196.24377819 1845.69639035 142.11791845 1855.31237468 88.12915039 1858.03198242 C84.92762387 1858.2113375 81.73564312 1858.45888822 78.5390625 1858.7109375 C70.2831063 1859.31251931 62.02586672 1859.51740256 53.75219727 1859.70581055 C51.14393279 1859.76546002 48.53584747 1859.83057715 45.92773438 1859.89648438 C-46.72305723 1862.16756843 -139.10757408 1850.69866774 -309.96191406 1798.39160156 C-312.98132714 1797.18085174 -316.01053692 1795.99804007 -319.04296875 1794.8203125 C-343.16012263 1785.39963851 -366.67413249 1774.57895249 -389.92578125 1763.203125 C-390.97362793 1762.69281738 -392.02147461 1762.18250977 -393.10107422 1761.65673828 C-407.09201758 1754.82636679 -420.79715769 1747.67246893 -434.22167969 1739.78613281 C-437.12775178 1738.08488945 -440.04528368 1736.40454514 -442.96484375 1734.7265625 C-454.09860512 1728.31021446 -465.02594689 1721.68727704 -475.75732422 1714.62109375 C-479.91457898 1711.90263669 -484.10676155 1709.23937141 -488.30078125 1706.578125 C-489.11651611 1706.05653809 -489.93225098 1705.53495117 -490.77270508 1704.99755859 C-491.91195435 1704.27560303 -491.91195435 1704.27560303 -493.07421875 1703.5390625 C-493.74630371 1703.11157715 -494.41838867 1702.6840918 -495.11083984 1702.24365234 C-497.05223066 1701.05124913 -497.05223066 1701.05124913 -499.92578125 1700.203125 C-501.59944181 1698.5434817 -503.26520391 1696.87585883 -504.92578125 1695.203125 C-506.78803439 1693.82327897 -508.68712459 1692.49226515 -510.61328125 1691.203125 C-511.76797013 1690.41819888 -512.92155301 1689.63164411 -514.07421875 1688.84375 C-515.00186035 1688.21049805 -515.00186035 1688.21049805 -515.94824219 1687.56445312 C-526.38921818 1680.37693681 -536.52771604 1672.86924405 -546.3034668 1664.80004883 C-550.14374396 1661.63274551 -554.03633026 1658.5877418 -558.05078125 1655.640625 C-564.34504925 1650.97946437 -570.22839238 1645.90089511 -576.13037109 1640.76025391 C-577.9249443 1639.20385087 -579.72978746 1637.66037154 -581.5390625 1636.12109375 C-588.08034921 1630.55415472 -594.51838411 1624.90791495 -600.81640625 1619.06640625 C-602.78553599 1617.16617796 -602.78553599 1617.16617796 -604.92578125 1616.203125 C-604.92578125 1615.543125 -604.92578125 1614.883125 -604.92578125 1614.203125 C-605.81789307 1613.80105835 -605.81789307 1613.80105835 -606.72802734 1613.39086914 C-608.94390921 1612.19332801 -610.34657653 1610.99993517 -612.08984375 1609.19921875 C-612.65445312 1608.62365234 -613.2190625 1608.04808594 -613.80078125 1607.45507812 C-614.37828125 1606.85630859 -614.95578125 1606.25753906 -615.55078125 1605.640625 C-616.70738276 1604.44963116 -617.86613903 1603.26072495 -619.02734375 1602.07421875 C-619.53604004 1601.54755615 -620.04473633 1601.02089355 -620.56884766 1600.47827148 C-621.9197823 1599.0867033 -621.9197823 1599.0867033 -623.92578125 1598.203125 C-623.92578125 1597.543125 -623.92578125 1596.883125 -623.92578125 1596.203125 C-624.51061279 1595.94354004 -625.09544434 1595.68395508 -625.69799805 1595.41650391 C-628.08448479 1594.11668592 -629.65880336 1592.71355778 -631.5703125 1590.7890625 C-632.24771484 1590.10972656 -632.92511719 1589.43039062 -633.62304688 1588.73046875 C-634.32107422 1588.02019531 -635.01910156 1587.30992188 -635.73828125 1586.578125 C-636.76791992 1585.54751953 -636.76791992 1585.54751953 -637.81835938 1584.49609375 C-641.80220479 1580.47832722 -645.58523354 1576.34324069 -649.28051758 1572.06005859 C-652.13848566 1568.83440119 -655.2443867 1565.87718488 -658.35742188 1562.8984375 C-659.58257616 1561.70217035 -660.75901 1560.45640189 -661.92578125 1559.203125 C-661.92578125 1558.543125 -661.92578125 1557.883125 -661.92578125 1557.203125 C-662.58578125 1557.203125 -663.24578125 1557.203125 -663.92578125 1557.203125 C-665.31904079 1555.65072159 -666.63958253 1554.03282515 -667.92578125 1552.390625 C-671.14323467 1548.36365206 -674.42616347 1544.49255488 -677.92578125 1540.703125 C-682.05295941 1536.21817288 -685.93058724 1531.58544502 -689.7578125 1526.84375 C-692.48767921 1523.51872316 -695.346012 1520.32246844 -698.21875 1517.12109375 C-701.76402472 1513.13773017 -704.92447344 1508.88376329 -708.109375 1504.61328125 C-709.84076655 1502.31592946 -711.59561957 1500.03793562 -713.35717773 1497.76367188 C-721.73734955 1486.93541488 -729.82468316 1475.91467496 -737.5625 1464.6171875 C-739.24307974 1462.17257769 -740.95894926 1459.75685744 -742.6953125 1457.3515625 C-749.46082088 1447.95508546 -755.68815126 1438.32299708 -761.71484375 1428.4375 C-763.73259625 1425.12911302 -765.78184001 1421.84738354 -767.88671875 1418.59375 C-775.84979194 1406.27505848 -782.96517157 1393.55087655 -790.0012207 1380.68823242 C-791.72563122 1377.56556845 -793.47685285 1374.46047558 -795.23895264 1371.35906982 C-800.01457787 1362.94122087 -804.53819314 1354.4232796 -808.86328125 1345.765625 C-809.21994873 1345.0520282 -809.57661621 1344.3384314 -809.9440918 1343.60321045 C-851.77617095 1259.58333718 -880.67206686 1168.89062872 -906.90686035 927.22515869 C-906.92553151 924.24301308 -906.94825753 921.26092025 -906.97167969 918.27880859 C-907.01160002 912.89943006 -907.03633505 907.52012869 -907.05078125 902.140625 C-907.05364136 901.3321814 -907.05650146 900.52373779 -907.05944824 899.6907959 C-907.06511813 897.45396867 -907.06341293 895.21729506 -907.05859375 892.98046875 C-907.05746582 891.73515381 -907.05633789 890.48983887 -907.05517578 889.20678711 C-906.92578125 886.203125 -906.92578125 886.203125 -905.92578125 883.203125 C-905.76028668 881.84285921 -905.63634239 880.47727661 -905.5402832 879.11035156 C-905.47938004 878.27939468 -905.41847687 877.44843781 -905.35572815 876.59230042 C-905.29247849 875.68527878 -905.22922882 874.77825714 -905.1640625 873.84375 C-905.01739669 871.86476839 -904.8698969 869.88584845 -904.72167969 867.90698242 C-904.64365112 866.85707123 -904.56562256 865.80716003 -904.48522949 864.72543335 C-897.35449004 770.23608596 -876.67230433 678.63094091 -823.94702148 546.68701172 C-822.92119719 544.19197553 -822.36001049 541.85976153 -821.92578125 539.203125 C-821.26578125 539.203125 -820.60578125 539.203125 -819.92578125 539.203125 C-819.75462799 538.6455249 -819.58347473 538.0879248 -819.40713501 537.51342773 C-817.70028931 532.15186347 -815.6269155 527.24033044 -813.01171875 522.265625 C-812.63777985 521.54181641 -812.26384094 520.81800781 -811.87857056 520.07226562 C-810.69203403 517.77934855 -809.49654416 515.49124136 -808.30078125 513.203125 C-807.52285689 511.70212369 -806.74550951 510.2008232 -805.96875 508.69921875 C-803.63442572 504.1935054 -801.2827385 499.69703255 -798.92578125 495.203125 C-798.52718903 494.44204437 -798.1285968 493.68096375 -797.71792603 492.89682007 C-789.41377655 477.05596571 -789.41377655 477.05596571 -784.86328125 469.515625 C-784.01215634 468.08905709 -783.16190656 466.66196672 -782.3125 465.234375 C-781.90563965 464.55117188 -781.4987793 463.86796875 -781.07958984 463.1640625 C-779.39859356 460.30715134 -777.79166467 457.40974457 -776.17578125 454.515625 C-770.97669182 445.37239877 -765.23467192 436.56767458 -759.54443359 427.72509766 C-758.16866333 425.58155214 -756.80307523 423.43231451 -755.4453125 421.27734375 C-750.07463045 412.77595872 -744.32357275 404.57683509 -738.48291016 396.39404297 C-736.92602602 394.2034694 -735.38277602 392.00393098 -733.84375 389.80078125 C-727.75187881 381.08780745 -721.49714741 372.56112905 -714.92578125 364.203125 C-714.03245878 363.06257307 -713.13923191 361.92194626 -712.24609375 360.78125 C-710.40659439 358.43412208 -708.56216282 356.09097677 -706.71484375 353.75 C-704.84212881 351.37465729 -702.98414812 348.98880559 -701.13671875 346.59375 C-696.10231569 340.08644568 -690.91638166 333.87088698 -685.3125 327.8359375 C-682.97527796 325.25772529 -680.78729164 322.607148 -678.61328125 319.890625 C-674.48529724 314.77280469 -670.07924656 309.9735115 -665.58056641 305.18432617 C-662.81609204 302.2412504 -660.09666785 299.28696435 -657.48828125 296.203125 C-653.59161061 291.67165839 -649.28863565 287.53903833 -645.04150391 283.34033203 C-642.02226557 280.34364335 -639.09172993 277.34679284 -636.36328125 274.078125 C-632.32810944 269.30368507 -627.62355717 265.22938604 -623.0078125 261.03125 C-620.64418392 258.87745302 -618.3517449 256.67540169 -616.11328125 254.390625 C-613.17919575 251.39858225 -610.05814895 248.67743755 -606.8828125 245.9453125 C-605.04041445 244.30517371 -603.32589489 242.60204939 -601.61328125 240.828125 C-597.93847193 237.08665247 -593.89824403 233.87427333 -589.81640625 230.58984375 C-586.93340553 228.20942018 -584.17499292 225.73632718 -581.42578125 223.203125 C-576.09597144 218.30993803 -570.57000951 213.72734974 -564.92578125 209.203125 C-563.78235264 208.27889252 -562.63913346 207.35440091 -561.49609375 206.4296875 C-546.33201291 194.19389905 -530.7989262 182.50186706 -514.92578125 171.203125 C-514.1383252 170.63980469 -513.35086914 170.07648438 -512.53955078 169.49609375 C-500.46177453 160.86806734 -488.13001548 152.73830329 -475.55273438 144.85839844 C-473.08768617 143.30514316 -470.63714016 141.73188022 -468.19140625 140.1484375 C-456.32443227 132.49334314 -444.09734165 125.58103666 -431.734375 118.76171875 C-429.32882982 117.42679173 -426.93573783 116.0743619 -424.55078125 114.703125 C-416.26540152 109.94220075 -407.83046278 105.5692791 -399.2512207 101.35864258 C-394.73003721 99.1342017 -390.26189837 96.85082159 -385.84262085 94.42897034 C-376.90694953 89.55373415 -367.70922351 85.4007296 -358.37573242 81.34863281 C-355.75584188 80.210752 -353.14036514 79.06318912 -350.52539062 77.9140625 C-270.21261662 42.75265387 -185.40322132 18.700355 0 0 Z M528.74487305 438.81884766 C517.74542383 438.42560539 506.74809738 438.18989104 495.74272442 438.03991127 C489.11233938 437.94422694 482.49230492 437.79369546 475.86645508 437.51269531 C442.15105261 435.05010443 442.15105261 435.05010443 412.76661777 448.7066021 C406.50789416 454.73273293 401.22356113 461.48002189 396.24405289 468.57692719 C392.33253469 474.01436669 387.58196219 478.82355594 382.82421875 483.515625 C382.36241211 483.97364502 381.90060547 484.43166504 381.42480469 484.90356445 C379.4928231 486.81954417 377.55477091 488.72933665 375.6171875 490.63964844 C368.90373749 497.23936112 368.90373749 497.23936112 362.57421875 504.203125 C357.60533127 510.01199108 352.05643658 515.27695715 346.6171875 520.63964844 C339.90373749 527.23936112 339.90373749 527.23936112 333.57421875 534.203125 C328.60533127 540.01199108 323.05643658 545.27695715 317.6171875 550.63964844 C310.93305628 557.20646784 310.93305628 557.20646784 304.63671875 564.140625 C299.30145715 570.37779987 293.30866696 576.02286534 287.47167969 581.78515625 C282.09781695 587.09641727 276.80654163 592.40437979 271.8984375 598.15625 C267.38997259 603.21499864 262.44150444 607.88323409 257.6171875 612.63964844 C252.52767909 617.66399468 247.5532609 622.71520013 242.90234375 628.15234375 C238.14225955 633.49218179 232.90449836 638.4058055 227.8125 643.42578125 C223.95725971 647.24764283 220.13554863 651.04504352 216.60546875 655.171875 C211.62341386 660.98917404 206.06711 666.26643396 200.6171875 671.63964844 C193.91840476 678.22292071 193.91840476 678.22292071 187.60546875 685.171875 C182.45354131 691.19472351 176.68239742 696.65001927 171.04443359 702.21240234 C164.11055675 709.0192607 164.11055675 709.0192607 157.57421875 716.203125 C152.43571945 722.21757496 146.67162481 727.66064746 141.04443359 733.21240234 C135.81745919 738.37561269 130.69200384 743.5485296 125.91601562 749.13867188 C121.39920588 754.20152225 116.44762117 758.87720345 111.6171875 763.63964844 C104.90557174 770.23730674 104.90557174 770.23730674 98.578125 777.19921875 C94.03022469 782.51615966 88.98991685 787.35713329 84.01171875 792.265625 C78.13552204 798.05984188 72.32264882 803.82181289 67.07421875 810.203125 C63.16329687 806.38600752 59.52309643 802.39867717 55.94921875 798.265625 C55.09662476 797.28154663 55.09662476 797.28154663 54.22680664 796.27758789 C50.06006863 791.43198951 46.08337542 786.46500746 42.17382812 781.41113281 C38.40284403 776.55920626 34.44032561 771.89499763 30.42041016 767.24853516 C25.86745675 761.98348737 21.45656337 756.61095428 17.07421875 751.203125 C12.27679506 745.29926846 7.43967405 739.43573124 2.51171875 733.640625 C-1.28714741 729.17083582 -4.99799864 724.64630903 -8.64453125 720.05078125 C-15.88861832 711.00807667 -23.29359708 702.09081374 -30.80078125 693.265625 C-34.49569459 688.92172991 -38.09980512 684.51800782 -41.64453125 680.05078125 C-48.88861832 671.00807667 -56.29359708 662.09081374 -63.80078125 653.265625 C-67.49992509 648.91675636 -71.10823141 644.50811655 -74.65625 640.03515625 C-79.39403308 634.12312056 -84.24263489 628.30080045 -89.06591797 622.45849609 C-90.89835998 620.23637752 -92.7271646 618.01132149 -94.5546875 615.78515625 C-99.92811105 609.2422574 -105.31464205 602.71448074 -110.80078125 596.265625 C-114.49994175 591.91677226 -118.10823219 587.50811557 -121.65625 583.03515625 C-126.39403308 577.12312056 -131.24263489 571.30080045 -136.06591797 565.45849609 C-137.89835998 563.23637752 -139.7271646 561.01132149 -141.5546875 558.78515625 C-146.92811105 552.2422574 -152.31464205 545.71448074 -157.80078125 539.265625 C-161.49571123 534.92174579 -165.09980589 530.51800686 -168.64453125 526.05078125 C-175.88861832 517.00807667 -183.29359708 508.09081374 -190.80078125 499.265625 C-194.49451289 494.92311917 -198.09794635 490.5212269 -201.640625 486.0546875 C-204.66126457 482.2853424 -207.7292482 478.5560461 -210.80078125 474.828125 C-211.35354736 474.1568457 -211.90631348 473.48556641 -212.47583008 472.79394531 C-213.60650188 471.42297924 -214.75773962 470.06872575 -215.92849922 468.7318306 C-217.92578125 466.203125 -217.92578125 466.203125 -219.55285454 463.1827507 C-222.40426091 458.55697077 -224.98821845 455.01272754 -230.41190195 453.51794147 C-238.32628917 452.38214622 -246.33337695 452.70182012 -254.30517578 452.84082031 C-257.01601684 452.85090209 -259.72673376 452.84282932 -262.43757629 452.83551025 C-268.26304701 452.82923606 -274.08689748 452.86668758 -279.9119606 452.93436432 C-288.33359117 453.03214447 -296.75444316 453.06316675 -305.17657982 453.07822022 C-318.84244722 453.10444467 -332.50745212 453.18419508 -346.17285156 453.29785156 C-359.44266462 453.40810274 -372.71224291 453.49299254 -385.98242188 453.54394531 C-386.80121842 453.54709799 -387.62001497 453.55025068 -388.46362354 453.55349889 C-392.57153532 453.56916003 -396.67944875 453.58432437 -400.78736329 453.59924173 C-434.83412795 453.72352032 -468.87984864 453.93476886 -502.92578125 454.203125 C-500.09861968 458.50877572 -497.10625539 462.4991932 -493.73828125 466.390625 C-492.75709489 467.53714668 -491.77663673 468.68429191 -490.796875 469.83203125 C-490.31202637 470.39937988 -489.82717773 470.96672852 -489.32763672 471.55126953 C-485.79483497 475.71409375 -482.37042126 479.9674013 -478.92578125 484.203125 C-472.50996876 492.0621921 -466.06575249 499.89758709 -459.61328125 507.7265625 C-457.17295108 510.68778942 -454.73558607 513.65141605 -452.30078125 516.6171875 C-446.92565143 523.16104695 -441.53810418 529.6903778 -436.05078125 536.140625 C-432.35585127 540.48450421 -428.75175661 544.88824314 -425.20703125 549.35546875 C-417.52433939 558.94567828 -409.65251228 568.3843895 -401.68823242 577.74145508 C-398.38296464 581.6348706 -395.19055968 585.60660141 -392.01953125 589.609375 C-389.53766862 592.68392125 -386.98722243 595.69484979 -384.42578125 598.703125 C-380.49279103 603.32408618 -376.64833409 608.00088298 -372.875 612.75390625 C-367.48804181 619.52268939 -361.96624229 626.17532407 -356.36328125 632.765625 C-352.45250611 637.36649729 -348.62983672 642.02418292 -344.875 646.75390625 C-339.99597715 652.88446202 -335.02025706 658.9326814 -329.93505859 664.89306641 C-325.67031797 669.89191406 -321.51688998 674.94919355 -317.48828125 680.140625 C-313.23513063 685.6178903 -308.80914148 690.9132297 -304.27246094 696.15722656 C-299.719242 701.42234944 -295.30826981 706.79511809 -290.92578125 712.203125 C-286.12835756 718.10698154 -281.29123655 723.97051876 -276.36328125 729.765625 C-272.56018841 734.24038734 -268.84511623 738.7698137 -265.1953125 743.37109375 C-260.45752942 749.28312944 -255.60892761 755.10544955 -250.78564453 760.94775391 C-248.95320252 763.16987248 -247.1243979 765.39492851 -245.296875 767.62109375 C-239.92345145 774.1639926 -234.53692045 780.69176926 -229.05078125 787.140625 C-225.35585127 791.48450421 -221.75175661 795.88824314 -218.20703125 800.35546875 C-210.96294418 809.39817333 -203.55796542 818.31543626 -196.05078125 827.140625 C-192.35586791 831.48452009 -188.75175738 835.88824218 -185.20703125 840.35546875 C-177.96294418 849.39817333 -170.55796542 858.31543626 -163.05078125 867.140625 C-159.35163741 871.48949364 -155.74333109 875.89813345 -152.1953125 880.37109375 C-147.45752942 886.28312944 -142.60892761 892.10544955 -137.78564453 897.94775391 C-135.95320252 900.16987248 -134.1243979 902.39492851 -132.296875 904.62109375 C-126.9890573 911.08385662 -121.66856091 917.53024892 -116.23828125 923.890625 C-112.0622225 928.78420657 -108.07841294 933.80458766 -104.13354492 938.88549805 C-99.80976738 944.42082846 -95.25438082 949.74230932 -90.65234375 955.046875 C-89.74345653 956.09892978 -88.83460203 957.15101282 -87.92578125 958.203125 C-87.21953613 959.01136719 -87.21953613 959.01136719 -86.49902344 959.8359375 C-84.39056232 962.29051875 -82.9601286 964.10008296 -81.92578125 967.203125 C-82.48354248 967.43563965 -83.04130371 967.6681543 -83.6159668 967.90771484 C-86.52531621 969.53936139 -88.52926616 971.56484626 -90.8828125 973.9296875 C-91.34886398 974.3961972 -91.81491547 974.86270691 -92.29508972 975.34335327 C-93.2799147 976.3311924 -94.26231506 977.32145395 -95.24243164 978.31396484 C-96.71786168 979.80745547 -98.20093865 981.2929825 -99.68554688 982.77734375 C-103.68832061 986.79553642 -107.66109751 990.81444395 -111.34375 995.1328125 C-116.86370636 1001.57152559 -123.07120227 1007.40185185 -129.10107422 1013.35791016 C-136.47644306 1020.5790575 -136.47644306 1020.5790575 -143.42578125 1028.203125 C-148.90295167 1034.62993913 -155.09758267 1040.42790932 -161.10107422 1046.35791016 C-168.47644306 1053.5790575 -168.47644306 1053.5790575 -175.42578125 1061.203125 C-180.90295167 1067.62993913 -187.09758267 1073.42790932 -193.10107422 1079.35791016 C-200.47644306 1086.5790575 -200.47644306 1086.5790575 -207.42578125 1094.203125 C-212.90295167 1100.62993913 -219.09758267 1106.42790932 -225.10107422 1112.35791016 C-230.60125874 1117.79678432 -236.03560736 1123.2197372 -241.05664062 1129.11132812 C-245.94358556 1134.58041697 -251.31019057 1139.6338033 -256.52832031 1144.78515625 C-263.68287654 1151.79921693 -263.68287654 1151.79921693 -270.42578125 1159.203125 C-275.73381593 1165.42367896 -281.71294797 1171.04420366 -287.52832031 1176.78515625 C-294.68287654 1183.79921693 -294.68287654 1183.79921693 -301.42578125 1191.203125 C-306.73381593 1197.42367896 -312.71294797 1203.04420366 -318.52832031 1208.78515625 C-325.66834764 1215.78267203 -325.66834764 1215.78267203 -332.39453125 1223.171875 C-337.88556277 1229.60688531 -344.08672777 1235.4171873 -350.10107422 1241.35791016 C-357.4619835 1248.56245429 -357.4619835 1248.56245429 -364.39453125 1256.171875 C-370.05668103 1262.81574062 -376.46992009 1268.79953931 -382.67382812 1274.93066406 C-388.32531897 1280.52176215 -393.91836048 1286.07140774 -399.07421875 1292.12890625 C-403.95263293 1297.59396517 -409.31637672 1302.63991029 -414.52832031 1307.78515625 C-421.68287654 1314.79921693 -421.68287654 1314.79921693 -428.42578125 1322.203125 C-433.73381593 1328.42367896 -439.71294797 1334.04420366 -445.52832031 1339.78515625 C-452.66834764 1346.78267203 -452.66834764 1346.78267203 -459.39453125 1354.171875 C-464.88556277 1360.60688531 -471.08672777 1366.4171873 -477.10107422 1372.35791016 C-482.72451952 1377.91867111 -488.29887435 1383.4616412 -493.43212891 1389.48681641 C-496.22898513 1392.7005953 -499.30656767 1395.62460981 -502.35742188 1398.59570312 C-503.56339688 1399.78160643 -504.74697483 1400.99021207 -505.92578125 1402.203125 C-505.92578125 1402.533125 -505.92578125 1402.863125 -505.92578125 1403.203125 C-489.9483348 1403.81541012 -473.97413957 1404.27126963 -457.98781776 1404.55024147 C-450.56123676 1404.68333558 -443.14208295 1404.8647369 -435.72021484 1405.16455078 C-399.98520437 1408.28298922 -399.98520437 1408.28298922 -368.37450981 1395.90757561 C-363.46727925 1391.22840343 -359.51821141 1385.95365624 -355.87908936 1380.25384521 C-351.94875705 1374.11536446 -346.84891318 1368.99234867 -341.67578125 1363.890625 C-341.21397461 1363.43260498 -340.75216797 1362.97458496 -340.27636719 1362.50268555 C-338.3443856 1360.58670583 -336.40633341 1358.67691335 -334.46875 1356.76660156 C-329.36895208 1351.73209755 -324.38304437 1346.67087188 -319.72265625 1341.22265625 C-315.17865357 1336.11559237 -310.17638028 1331.420133 -305.30859375 1326.625 C-301.56036187 1322.91094653 -297.86164488 1319.21029148 -294.42578125 1315.203125 C-289.40152644 1309.34345545 -283.80336213 1304.03775692 -278.30859375 1298.625 C-274.57078168 1294.92127132 -270.88103255 1291.23241194 -267.45703125 1287.234375 C-262.22693274 1281.13463482 -256.38163108 1275.61716648 -250.6640625 1269.98046875 C-246.79838362 1266.14825895 -242.96784201 1262.33901413 -239.42578125 1258.203125 C-234.20897838 1252.11172236 -228.37090385 1246.60659098 -222.6640625 1240.98046875 C-218.79838362 1237.14825895 -214.96784201 1233.33901413 -211.42578125 1229.203125 C-206.20897838 1223.11172236 -200.37090385 1217.60659098 -194.6640625 1211.98046875 C-190.17487618 1207.53014985 -185.85115501 1203.04035304 -181.74023438 1198.24023438 C-177.18780484 1193.12916441 -172.18253451 1188.42619537 -167.30859375 1183.625 C-163.56036187 1179.91094653 -159.86164488 1176.21029148 -156.42578125 1172.203125 C-151.40152644 1166.34345545 -145.80336213 1161.03775692 -140.30859375 1155.625 C-136.58120321 1151.93159783 -132.90039567 1148.25454924 -129.48828125 1144.265625 C-124.49310492 1138.439869 -118.92933972 1133.15033311 -113.46875 1127.76660156 C-108.36895208 1122.73209755 -103.38304437 1117.67087188 -98.72265625 1112.22265625 C-94.17865357 1107.11559237 -89.17638028 1102.420133 -84.30859375 1097.625 C-80.58120321 1093.93159783 -76.90039567 1090.25454924 -73.48828125 1086.265625 C-68.49310492 1080.439869 -62.92933972 1075.15033311 -57.46875 1069.76660156 C-52.33899465 1064.70252367 -47.31630207 1059.61342857 -42.62841797 1054.1328125 C-39.41697137 1050.49311162 -35.93960922 1047.11340332 -32.48828125 1043.703125 C-31.75673828 1042.97609375 -31.02519531 1042.2490625 -30.27148438 1041.5 C-28.49188301 1039.73203001 -26.70997207 1037.96646122 -24.92578125 1036.203125 C-21.12188563 1039.9098408 -17.61382608 1043.78175479 -14.17578125 1047.828125 C-13.65137451 1048.44276611 -13.12696777 1049.05740723 -12.58666992 1049.69067383 C-7.95687064 1055.13313939 -3.42438156 1060.65183577 1.07421875 1066.203125 C5.87164144 1072.10698031 10.70871351 1077.97056179 15.63671875 1083.765625 C19.54755164 1088.36644632 23.37016531 1093.02418547 27.125 1097.75390625 C32.51196022 1104.52269193 38.03381315 1111.17527472 43.63671875 1117.765625 C47.43975577 1122.24043651 51.15488188 1126.7698113 54.8046875 1131.37109375 C59.54247058 1137.28312944 64.39107239 1143.10544955 69.21435547 1148.94775391 C71.04679748 1151.16987248 72.8756021 1153.39492851 74.703125 1155.62109375 C80.0109427 1162.08385662 85.33143909 1168.53024892 90.76171875 1174.890625 C94.45909901 1179.22328242 98.01868036 1183.64183568 101.51171875 1188.140625 C105.76503392 1193.61776783 110.19085112 1198.91322114 114.72753906 1204.15722656 C119.28078691 1209.42238287 123.69053892 1214.79604933 128.07421875 1220.203125 C131.06958673 1223.87358538 134.07061589 1227.53940156 137.07421875 1231.203125 C137.85804932 1232.15928711 137.85804932 1232.15928711 138.65771484 1233.13476562 C144.70782864 1240.51033994 150.76721626 1247.87499877 156.94921875 1255.140625 C160.64841914 1259.48944429 164.25667042 1263.89813535 167.8046875 1268.37109375 C172.54247058 1274.28312944 177.39107239 1280.10544955 182.21435547 1285.94775391 C184.04679748 1288.16987248 185.8756021 1290.39492851 187.703125 1292.62109375 C193.52207492 1299.70648362 199.37049109 1306.76121417 205.31323242 1313.74316406 C208.61799309 1317.63602372 211.80990722 1321.60719077 214.98046875 1325.609375 C217.46233222 1328.68392228 220.01280468 1331.69482592 222.57421875 1334.703125 C226.39937572 1339.19812213 230.13639288 1343.74650236 233.8046875 1348.37109375 C238.54247058 1354.28312944 243.39107239 1360.10544955 248.21435547 1365.94775391 C250.04679748 1368.16987248 251.8756021 1370.39492851 253.703125 1372.62109375 C254.2997998 1373.3473999 254.89647461 1374.07370605 255.51123047 1374.82202148 C256.62161262 1376.17383819 257.7313867 1377.52615477 258.84033203 1378.87915039 C259.90474957 1380.17394647 260.99059514 1381.4514042 262.09643078 1382.71101093 C264.07421875 1385.203125 264.07421875 1385.203125 265.90821552 1388.42376232 C268.85888975 1393.24200699 272.01346527 1397.30531026 277.61263442 1398.94772172 C285.51150947 1400.16448104 293.5103599 1399.83018753 301.4753418 1399.67895508 C304.1766093 1399.67528526 306.87741709 1399.67677985 309.57862854 1399.68470764 C315.38019372 1399.69150087 321.17984783 1399.65097074 326.98093224 1399.57761574 C335.36781362 1399.47163265 343.7537778 1399.43807446 352.14125619 1399.42177185 C365.75118788 1399.39337033 379.36010249 1399.30699732 392.96948242 1399.18383789 C406.18394915 1399.06437716 419.39813891 1398.9724242 432.61303711 1398.91723633 C433.83635735 1398.91211322 433.83635735 1398.91211322 435.08439114 1398.90688661 C439.17604795 1398.88992023 443.26770671 1398.87349224 447.35936677 1398.85733187 C481.26505481 1398.72272269 515.16951178 1398.49389349 549.07421875 1398.203125 C547.65642418 1394.46113389 546.26257722 1392.00125946 543.51171875 1389.078125 C538.8137773 1383.95618162 534.44684437 1378.60328014 530.07421875 1373.203125 C525.27712526 1367.29900993 520.43966801 1361.43572413 515.51171875 1355.640625 C511.71285259 1351.17083582 508.00200136 1346.64630903 504.35546875 1342.05078125 C497.11138168 1333.00807667 489.70640292 1324.09081374 482.19921875 1315.265625 C478.50430541 1310.92172991 474.90019488 1306.51800782 471.35546875 1302.05078125 C464.11138168 1293.00807667 456.70640292 1284.09081374 449.19921875 1275.265625 C445.50430541 1270.92172991 441.90019488 1266.51800782 438.35546875 1262.05078125 C431.11138168 1253.00807667 423.70640292 1244.09081374 416.19921875 1235.265625 C412.50007491 1230.91675636 408.89176859 1226.50811655 405.34375 1222.03515625 C400.60140759 1216.11743121 395.74859918 1210.28903633 390.92089844 1204.44091797 C388.54863823 1201.56623037 386.17927738 1198.68916293 383.81030273 1195.81176758 C382.65116594 1194.40388339 381.49182285 1192.99616902 380.33227539 1191.58862305 C377.375024 1187.99882663 374.41998274 1184.4072466 371.46875 1180.8125 C366.08694775 1174.2609631 360.69313057 1167.72361732 355.19921875 1161.265625 C351.50428877 1156.92174579 347.90019411 1152.51800686 344.35546875 1148.05078125 C336.67277689 1138.46057172 328.80094978 1129.0218605 320.83666992 1119.66479492 C317.53140214 1115.7713794 314.33899718 1111.79964859 311.16796875 1107.796875 C308.68610528 1104.72232772 306.13563282 1101.71142408 303.57421875 1098.703125 C299.74906178 1094.20812787 296.01204462 1089.65974764 292.34375 1085.03515625 C287.60596692 1079.12312056 282.75736511 1073.30080045 277.93408203 1067.45849609 C276.10164002 1065.23637752 274.2728354 1063.01132149 272.4453125 1060.78515625 C267.07188895 1054.2422574 261.68535795 1047.71448074 256.19921875 1041.265625 C252.50005825 1036.91677226 248.89176781 1032.50811557 245.34375 1028.03515625 C240.60596692 1022.12312056 235.75736511 1016.30080045 230.93408203 1010.45849609 C229.10164002 1008.23637752 227.2728354 1006.01132149 225.4453125 1003.78515625 C220.07188895 997.2422574 214.68535795 990.71448074 209.19921875 984.265625 C205.50005825 979.91677226 201.89176781 975.50811557 198.34375 971.03515625 C193.60596692 965.12312056 188.75736511 959.30080045 183.93408203 953.45849609 C182.10164002 951.23637752 180.2728354 949.01132149 178.4453125 946.78515625 C173.07188895 940.2422574 167.68535795 933.71448074 162.19921875 927.265625 C158.50547048 922.92313505 154.90205287 918.52122593 151.359375 914.0546875 C142.75205891 903.31393409 133.90351537 892.76166174 125.07421875 882.203125 C126.58263688 878.64832497 128.65055536 876.40752878 131.3984375 873.71875 C132.26275391 872.86539062 133.12707031 872.01203125 134.01757812 871.1328125 C134.92314453 870.24851562 135.82871094 869.36421875 136.76171875 868.453125 C143.85715659 861.5514633 143.85715659 861.5514633 150.53125 854.25 C155.51642043 848.42651122 161.07657491 843.14450174 166.53125 837.76660156 C173.23003274 831.18332929 173.23003274 831.18332929 179.54296875 824.234375 C184.69489619 818.21152649 190.46604008 812.75623073 196.10400391 807.19384766 C203.02328439 800.40347718 203.02328439 800.40347718 209.54296875 793.234375 C214.86464444 787.00552291 220.85057289 781.37272054 226.67675781 775.62109375 C232.05062055 770.30983273 237.34189587 765.00187021 242.25 759.25 C246.75846491 754.19125136 251.70693306 749.52301591 256.53125 744.76660156 C263.20074583 738.21624776 263.20074583 738.21624776 269.48046875 731.296875 C274.99904597 724.84539544 281.21348927 719.01047335 287.24951172 713.04833984 C292.78048087 707.57902421 298.24951634 702.12594431 303.29882812 696.20117188 C308.03317387 690.8730798 313.26246688 685.98217882 318.3359375 680.98046875 C322.18073699 677.16895757 325.99364642 673.38341674 329.51171875 669.265625 C334.67702329 663.23435441 340.45527659 657.76684994 346.10400391 652.19384766 C353.03788075 645.3869893 353.03788075 645.3869893 359.57421875 638.203125 C364.71271805 632.18867504 370.47681269 626.74560254 376.10400391 621.19384766 C383.03788075 614.3869893 383.03788075 614.3869893 389.57421875 607.203125 C394.71271805 601.18867504 400.47681269 595.74560254 406.10400391 590.19384766 C413.03788075 583.3869893 413.03788075 583.3869893 419.57421875 576.203125 C424.71271805 570.18867504 430.47681269 564.74560254 436.10400391 559.19384766 C443.03788075 552.3869893 443.03788075 552.3869893 449.57421875 545.203125 C454.71271805 539.18867504 460.47681269 533.74560254 466.10400391 528.19384766 C471.33097831 523.03063731 476.45643366 517.8577204 481.23242188 512.26757812 C485.74923162 507.20472775 490.70081633 502.52904655 495.53125 497.76660156 C502.23003274 491.18332929 502.23003274 491.18332929 508.54296875 484.234375 C513.69489619 478.21152649 519.46604008 472.75623073 525.10400391 467.19384766 C530.45429806 461.90882194 535.71948421 456.61559126 540.60791016 450.89208984 C542.62888995 448.564228 544.80276652 446.41416145 547.01171875 444.265625 C548.3840902 442.92991121 549.74439084 441.58120063 551.07421875 440.203125 C551.07421875 439.873125 551.07421875 439.543125 551.07421875 439.203125 C550.41159436 439.20758322 549.74896997 439.21204144 549.06626606 439.21663475 C542.2822444 439.24223986 535.52327681 439.07787844 528.74487305 438.81884766 Z " fill="#FEFEFE" transform="translate(934.92578125,27.796875)"/>
<path d="M0 0 C4.93781504 -0.11801306 9.87576777 -0.19854314 14.81445312 -0.27008057 C17.15451988 -0.31204904 19.49435739 -0.37001406 21.83361816 -0.44439697 C39.99440632 -1.00847145 39.99440632 -1.00847145 45.2456665 2.15496826 C47.31111783 4.43605014 48.72658779 6.57628279 50.15264893 9.29168701 C50.93253174 10.22496826 51.71241455 11.15824951 52.51593018 12.11981201 C53.15917236 12.91903076 53.80241455 13.71824951 54.46514893 14.54168701 C57.81320867 18.66769523 61.21093545 22.74401704 64.65264893 26.79168701 C68.77264573 31.63974682 72.82061192 36.54014958 76.83624268 41.47528076 C79.43052158 44.62953893 82.06871158 47.74371681 84.71514893 50.85418701 C88.58506694 55.40453017 92.3522479 60.02001537 96.06280518 64.70184326 C98.98485207 68.3229967 102.00086379 71.8612327 105.01593018 75.40496826 C108.67958636 79.71634267 112.2653352 84.08670575 115.83624268 88.47528076 C118.43052158 91.62953893 121.06871158 94.74371681 123.71514893 97.85418701 C127.58506694 102.40453017 131.3522479 107.02001537 135.06280518 111.70184326 C137.98485207 115.3229967 141.00086379 118.8612327 144.01593018 122.40496826 C147.68380492 126.72130705 151.27391213 131.09647861 154.84796143 135.49090576 C157.37297967 138.55944488 159.94749662 141.58208514 162.52764893 144.60418701 C166.31057385 149.04020304 169.95797629 153.55769345 173.52764893 158.16668701 C177.98316563 163.91195856 182.66408298 169.42264142 187.45245361 174.89227295 C191.3689685 179.36929086 195.1659196 183.92711638 198.91046143 188.54949951 C201.4551875 191.66169064 204.04890809 194.72888443 206.65264893 197.79168701 C212.30139796 204.44187631 217.8208876 211.1929015 223.32452393 217.96356201 C227.38671051 222.94766328 231.49050831 227.89106723 235.65264893 232.79168701 C239.70265404 237.56090396 243.69616748 242.37080817 247.64874268 247.22137451 C255.4605684 256.8003059 263.3123773 266.34398653 271.32012939 275.75994873 C274.88293297 279.95496883 278.36590468 284.21082979 281.84014893 288.47918701 C284.41411437 291.60968553 287.02841796 294.70334335 289.65264893 297.79168701 C295.30122836 304.44202352 300.820884 311.19289707 306.32452393 317.96356201 C310.84676707 323.51212985 315.43148172 329.00083496 320.06622314 334.45526123 C323.71219824 338.75280326 327.28242173 343.10826502 330.84014893 347.47918701 C333.41411487 350.60968613 336.02844359 353.70332111 338.65264893 356.79168701 C342.70277492 361.56079911 346.69617005 366.37081133 350.64874268 371.22137451 C358.4605684 380.8003059 366.3123773 390.34398653 374.32012939 399.75994873 C377.88596913 403.95854376 381.37239502 408.217567 384.84796143 412.49090576 C387.37297967 415.55944488 389.94749662 418.58208514 392.52764893 421.60418701 C396.31057385 426.04020304 399.95797629 430.55769345 403.52764893 435.16668701 C407.98316563 440.91195856 412.66408298 446.42264142 417.45245361 451.89227295 C421.37206536 456.37283092 425.17253014 460.93372092 428.91827393 465.56121826 C431.41423519 468.61135274 433.96804763 471.60753693 436.52764893 474.60418701 C440.31068338 479.04010424 443.95798108 483.55769963 447.52764893 488.16668701 C451.98316563 493.91195856 456.66408298 499.42264142 461.45245361 504.89227295 C465.3689685 509.36929086 469.1659196 513.92711638 472.91046143 518.54949951 C475.4551875 521.66169064 478.04890809 524.72888443 480.65264893 527.79168701 C486.30139796 534.44187631 491.8208876 541.1929015 497.32452393 547.96356201 C501.38670974 552.94766234 505.49046835 557.89110157 509.65264893 562.79168701 C515.30105865 569.44217081 520.82088041 576.19289265 526.32452393 582.96356201 C530.84676707 588.51212985 535.43148172 594.00083496 540.06622314 599.45526123 C543.71219824 603.75280326 547.28242173 608.10826502 550.84014893 612.47918701 C553.41411487 615.60968613 556.02844359 618.70332111 558.65264893 621.79168701 C562.70277492 626.56079911 566.69617005 631.37081133 570.64874268 636.22137451 C578.4605684 645.8003059 586.3123773 655.34398653 594.32012939 664.75994873 C597.88596913 668.95854376 601.37239502 673.217567 604.84796143 677.49090576 C607.37297967 680.55944488 609.94749662 683.58208514 612.52764893 686.60418701 C616.31057385 691.04020304 619.95797629 695.55769345 623.52764893 700.16668701 C627.98316563 705.91195856 632.66408298 711.42264142 637.45245361 716.89227295 C641.37206536 721.37283092 645.17253014 725.93372092 648.91827393 730.56121826 C651.41423438 733.61135176 653.96801562 736.60756501 656.52764893 739.60418701 C660.90209376 744.73263488 665.08668538 749.98669986 669.21392822 755.31536865 C672.55099728 759.59861703 676.07304897 763.65772474 679.78936768 767.61981201 C681.15264893 769.29168701 681.15264893 769.29168701 681.15264893 771.29168701 C666.83589104 771.52577415 652.51943178 771.70119845 638.20114994 771.80980873 C631.55197121 771.8619446 624.90442249 771.93262588 618.25592041 772.04608154 C611.83673437 772.15493534 605.41878479 772.21457083 598.99874687 772.24045944 C596.55262222 772.25890194 594.10656342 772.29491817 591.66096687 772.34898758 C571.45727996 772.77780289 571.45727996 772.77780289 566.68518066 769.10176086 C564.39912102 766.5946574 562.76576478 764.26193495 561.15264893 761.29168701 C560.34053955 760.3261792 559.52843018 759.36067139 558.69171143 758.36590576 C558.0600708 757.57828857 557.42843018 756.79067139 556.77764893 755.97918701 C553.4524683 751.87195171 550.0760226 747.81684875 546.65264893 743.79168701 C542.5314071 738.94228796 538.48273079 734.0400733 534.46514893 729.10418701 C531.891185 725.97369035 529.27695806 722.8799624 526.65264893 719.79168701 C522.53163259 714.9420932 518.48273539 710.04007895 514.46514893 705.10418701 C511.891185 701.97369035 509.27695806 698.8799624 506.65264893 695.79168701 C502.53163259 690.9420932 498.48273539 686.04007895 494.46514893 681.10418701 C491.891185 677.97369035 489.27695806 674.8799624 486.65264893 671.79168701 C482.53163259 666.9420932 478.48273539 662.04007895 474.46514893 657.10418701 C471.891185 653.97369035 469.27695806 650.8799624 466.65264893 647.79168701 C462.53163259 642.9420932 458.48273539 638.04007895 454.46514893 633.10418701 C451.891185 629.97369035 449.27695806 626.8799624 446.65264893 623.79168701 C442.53163259 618.9420932 438.48273539 614.04007895 434.46514893 609.10418701 C431.891185 605.97369035 429.27695806 602.8799624 426.65264893 599.79168701 C422.53163259 594.9420932 418.48273539 590.04007895 414.46514893 585.10418701 C411.891185 581.97369035 409.27695806 578.8799624 406.65264893 575.79168701 C402.53163259 570.9420932 398.48273539 566.04007895 394.46514893 561.10418701 C391.891185 557.97369035 389.27695806 554.8799624 386.65264893 551.79168701 C382.53163259 546.9420932 378.48273539 542.04007895 374.46514893 537.10418701 C371.891185 533.97369035 369.27695806 530.8799624 366.65264893 527.79168701 C362.53163259 522.9420932 358.48273539 518.04007895 354.46514893 513.10418701 C351.891185 509.97369035 349.27695806 506.8799624 346.65264893 503.79168701 C342.53163259 498.9420932 338.48273539 494.04007895 334.46514893 489.10418701 C331.891185 485.97369035 329.27695806 482.8799624 326.65264893 479.79168701 C322.53163259 474.9420932 318.48273539 470.04007895 314.46514893 465.10418701 C311.891185 461.97369035 309.27695806 458.8799624 306.65264893 455.79168701 C302.53163259 450.9420932 298.48273539 446.04007895 294.46514893 441.10418701 C291.891185 437.97369035 289.27695806 434.8799624 286.65264893 431.79168701 C282.53163259 426.9420932 278.48273539 422.04007895 274.46514893 417.10418701 C271.891185 413.97369035 269.27695806 410.8799624 266.65264893 407.79168701 C262.53163259 402.9420932 258.48273539 398.04007895 254.46514893 393.10418701 C251.891185 389.97369035 249.27695806 386.8799624 246.65264893 383.79168701 C242.52859707 378.93852102 238.47599355 374.03355736 234.45733643 369.09246826 C231.93231973 366.02393102 229.35787088 363.00122779 226.77764893 359.97918701 C222.90735474 355.44260575 219.18135853 350.81662747 215.52764893 346.10418701 C211.65185918 341.10990826 207.60347198 336.36403693 203.32452393 331.70574951 C200.26776601 328.30813011 197.41064655 324.76106038 194.53546143 321.20965576 C191.94508787 318.03750979 189.30571455 314.91134683 186.65264893 311.79168701 C182.60111973 307.02137182 178.6071528 302.20942213 174.65264893 297.35809326 C166.65145085 287.54412375 158.6144972 277.76927467 150.34307861 268.18133545 C146.62989953 263.87046154 143.01667782 259.48590704 139.42999268 255.06903076 C136.87060839 251.94772334 134.26671102 248.86718671 131.65264893 245.79168701 C127.53275439 240.94353906 123.48468798 236.04322696 119.46905518 231.10809326 C116.87477705 227.95383605 114.23662501 224.8396233 111.59014893 221.72918701 C108.4035179 217.9831337 105.26473954 214.21362741 102.21514893 210.35418701 C98.48076523 205.64029284 94.57417633 201.08936579 90.64727783 196.53631592 C86.83297623 192.10653294 83.11508445 187.60709134 79.42999268 183.06903076 C76.87060621 179.94772068 74.2666077 176.86727703 71.65264893 173.79168701 C67.60127916 169.02123391 63.60715606 164.20942612 59.65264893 159.35809326 C51.65145085 149.54412375 43.6144972 139.76927467 35.34307861 130.18133545 C31.62989953 125.87046154 28.01667782 121.48590704 24.42999268 117.06903076 C21.87060839 113.94772334 19.26671102 110.86718671 16.65264893 107.79168701 C12.53157101 102.9421465 8.4827341 98.04007737 4.46514893 93.10418701 C1.891185 89.97369035 -0.72304194 86.8799624 -3.34735107 83.79168701 C-7.47140293 78.93852102 -11.52400645 74.03355736 -15.54266357 69.09246826 C-18.06768027 66.02393102 -20.64212912 63.00122779 -23.22235107 59.97918701 C-27.09264526 55.44260575 -30.81864147 50.81662747 -34.47235107 46.10418701 C-38.34586029 41.11284691 -42.3919209 36.36970884 -46.66766357 31.71356201 C-49.76298802 28.27431263 -52.6686441 24.69335886 -55.57781982 21.09637451 C-57.13185067 19.17590266 -58.69757288 17.26484908 -60.27313232 15.36199951 C-61.06074951 14.41067139 -61.8483667 13.45934326 -62.65985107 12.47918701 C-63.36754639 11.6271167 -64.0752417 10.77504639 -64.80438232 9.89715576 C-66.98064356 7.1216945 -68.90540437 4.23436046 -70.84735107 1.29168701 C-59.47494184 1.06160883 -48.10246046 0.83724931 -36.72894287 0.66912842 C-36.05935138 0.65922945 -35.38975988 0.64933048 -34.69987774 0.63913155 C-31.95087734 0.59878412 -29.20187248 0.5588361 -26.45284843 0.52013016 C-17.63343496 0.39572686 -8.81748148 0.22555606 0 0 Z " fill="#FEFEFE" transform="translate(654.8473510742188,568.7083129882813)"/>
<path d="" fill="#FFFFFF" transform="translate(0,0)"/>
<path d="" fill="#FFFFFF" transform="translate(0,0)"/>
<path d="" fill="#FFFFFF" transform="translate(0,0)"/>
<path d="" fill="#FFFFFF" transform="translate(0,0)"/>
<path d="" fill="#FFFFFF" transform="translate(0,0)"/>
<path d="" fill="#FFFFFF" transform="translate(0,0)"/>
<path d="" fill="#FFFFFF" transform="translate(0,0)"/>
<path d="" fill="#FFFFFF" transform="translate(0,0)"/>
<path d="" fill="#FFFFFF" transform="translate(0,0)"/>
<path d="" fill="#FFFFFF" transform="translate(0,0)"/>
<path d="" fill="#FFFFFF" transform="translate(0,0)"/>
<path d="" fill="#FFFFFF" transform="translate(0,0)"/>
<path d="" fill="#FFFFFF" transform="translate(0,0)"/>
<path d="" fill="#FFFFFF" transform="translate(0,0)"/>
<path d="" fill="#FFFFFF" transform="translate(0,0)"/>
<path d="" fill="#FFFFFF" transform="translate(0,0)"/>
<path d="" fill="#FFFFFF" transform="translate(0,0)"/>
<path d="" fill="#FFFFFF" transform="translate(0,0)"/>
<path d="" fill="#FFFFFF" transform="translate(0,0)"/>
<path d="" fill="#FFFFFF" transform="translate(0,0)"/>
<path d="" fill="#FFFFFF" transform="translate(0,0)"/>
<path d="" fill="#FFFFFF" transform="translate(0,0)"/>
<path d="" fill="#FFFFFF" transform="translate(0,0)"/>
<path d="" fill="#FFFFFF" transform="translate(0,0)"/>
<path d="" fill="#FFFFFF" transform="translate(0,0)"/>
<path d="" fill="#FFFFFF" transform="translate(0,0)"/>
<path d="" fill="#FFFFFF" transform="translate(0,0)"/>
<path d="" fill="#FFFFFF" transform="translate(0,0)"/>
<path d="" fill="#FFFFFF" transform="translate(0,0)"/>
<path d="" fill="#FFFFFF" transform="translate(0,0)"/>
<path d="" fill="#FFFFFF" transform="translate(0,0)"/>
<path d="" fill="#FFFFFF" transform="translate(0,0)"/>
<path d="" fill="#FFFFFF" transform="translate(0,0)"/>
<path d="" fill="#FFFFFF" transform="translate(0,0)"/>
<path d="" fill="#FFFFFF" transform="translate(0,0)"/>
<path d="" fill="#FFFFFF" transform="translate(0,0)"/>
<path d="" fill="#FFFFFF" transform="translate(0,0)"/>
<path d="" fill="#FFFFFF" transform="translate(0,0)"/>
<path d="" fill="#FFFFFF" transform="translate(0,0)"/>
<path d="" fill="#FFFFFF" transform="translate(0,0)"/>
<path d="" fill="#FFFFFF" transform="translate(0,0)"/>
<path d="" fill="#FFFFFF" transform="translate(0,0)"/>
<path d="" fill="#FFFFFF" transform="translate(0,0)"/>
<path d="" fill="#FFFFFF" transform="translate(0,0)"/>
<path d="" fill="#FFFFFF" transform="translate(0,0)"/>
<path d="" fill="#FFFFFF" transform="translate(0,0)"/>
<path d="" fill="#FFFFFF" transform="translate(0,0)"/>
<path d="" fill="#FFFFFF" transform="translate(0,0)"/>
<path d="" fill="#FFFFFF" transform="translate(0,0)"/>
<path d="" fill="#FFFFFF" transform="translate(0,0)"/>
<path d="" fill="#FFFFFF" transform="translate(0,0)"/>
<path d="" fill="#FFFFFF" transform="translate(0,0)"/>
<path d="" fill="#FFFFFF" transform="translate(0,0)"/>
<path d="" fill="#FFFFFF" transform="translate(0,0)"/>
<path d="" fill="#FFFFFF" transform="translate(0,0)"/>
<path d="" fill="#FFFFFF" transform="translate(0,0)"/>
<path d="" fill="#FFFFFF" transform="translate(0,0)"/>
</svg>
