<?xml version="1.0" encoding="UTF-8"?>
<svg version="1.1" xmlns="http://www.w3.org/2000/svg" width="512" height="512">
<path d="M0 0 C10.48949178 0.01335579 20.97896267 0.0156988 31.46846181 0.01504987 C44.2408812 0.01436742 57.01328857 0.02133357 69.78570426 0.03049648 C73.38005135 0.03259333 76.97439642 0.03333276 80.56874406 0.03373539 C102.521906 0.03852381 124.46844105 0.06736569 146.41496789 0.65640652 C147.15930043 0.67629246 147.90363296 0.6961784 148.67052102 0.71666694 C218.36106621 2.63910534 218.36106621 2.63910534 234.59441125 18.28653347 C252.38427296 38.05304648 258.03375634 64.81446083 262.3170675 90.20059597 C262.5024508 91.26842312 262.5024508 91.26842312 262.69157922 92.35782254 C267.06504387 118.1011547 266.64301113 144.66438172 266.57780969 170.68399441 C266.56641613 175.27865335 266.57319899 179.87308054 266.58468664 184.4677316 C266.81534041 293.11461704 266.81534041 293.11461704 237.3170675 330.20059597 C236.4508175 331.46903347 236.4508175 331.46903347 235.5670675 332.76309597 C221.3500709 348.16484229 199.04402398 349.76865801 179.33416307 350.61400425 C177.85508187 350.67100656 177.85508187 350.67100656 176.34612024 350.72916043 C175.25338611 350.77172404 174.16065198 350.81428765 173.0348047 350.85814106 C169.29449812 350.99755758 165.55398642 351.12665126 161.81316125 351.25137722 C161.14808958 351.27355384 160.48301791 351.29573045 159.79779255 351.31857908 C113.49039536 352.84137626 67.14025793 352.46482664 20.81459212 352.40119195 C10.60851617 352.38783411 0.40246169 352.3854933 -9.80362183 352.38614208 C-22.2532895 352.38682548 -34.70294488 352.37985468 -47.15260875 352.37069547 C-50.6467711 352.36860276 -54.14093137 352.36785979 -57.63509429 352.36745656 C-194.52019094 352.33696756 -194.52019094 352.33696756 -213.17902625 334.80215847 C-231.93733365 314.82577916 -237.97723404 286.84075806 -241.8704325 260.63809597 C-242.10270545 259.11007351 -242.10270545 259.11007351 -242.33967078 257.55118191 C-245.8134634 232.55045893 -246.03325474 207.41950247 -245.99860632 182.23209012 C-245.9939916 178.60208068 -246.000855 174.9724077 -246.01911414 171.34244168 C-246.61369308 51.9088208 -246.61369308 51.9088208 -212.6829325 17.20059597 C-209.51780818 14.52394754 -206.25990173 12.28954601 -202.6829325 10.20059597 C-202.01133093 9.80227566 -201.33972937 9.40395535 -200.64777625 8.99356472 C-150.49646257 -16.80682208 -54.17273246 -0.07239696 0 0 Z M-53.6829325 80.20059597 C-53.6829325 143.56059597 -53.6829325 206.92059597 -53.6829325 272.20059597 C-42.9562206 266.08709419 -42.9562206 266.08709419 -32.30012 259.86075222 C-31.37926108 259.31486699 -31.37926108 259.31486699 -30.43979895 258.75795376 C-28.47834639 257.59439302 -26.51804825 256.42890706 -24.5579325 255.26309597 C-23.86973425 254.85430203 -23.18153601 254.44550808 -22.47248328 254.02432644 C-12.27069465 247.96313994 -2.10986824 241.83798926 8.02220666 235.66107571 C17.41291834 229.93769604 26.85321617 224.30211045 36.3170675 218.70059597 C47.64584603 211.99467435 58.93304048 205.2257396 70.16960657 198.36636746 C75.96414385 194.83210177 81.77328698 191.32705146 87.61784875 187.87637722 C88.79767406 187.17757926 89.97744396 186.47868773 91.15715539 185.77969754 C93.38578821 184.46169746 95.61791714 183.14958649 97.85393274 181.84415066 C98.83692346 181.26181668 99.81991418 180.67948269 100.8326925 180.07950222 C101.70184289 179.56975857 102.57099329 179.06001492 103.46648157 178.53482449 C104.38252161 177.87438138 104.38252161 177.87438138 105.3170675 177.20059597 C105.3170675 176.54059597 105.3170675 175.88059597 105.3170675 175.20059597 C103.33773739 173.84983691 101.37485762 172.63870691 99.3014425 171.44668972 C98.66772729 171.07427655 98.03401208 170.70186337 97.38109338 170.31816494 C96.00420034 169.50999176 94.62534427 168.70515605 93.24480188 167.90323269 C89.54693243 165.75498611 85.86298029 163.58305315 82.1764425 161.41543972 C81.42520105 160.97473141 80.67395959 160.5340231 79.89995325 160.07995999 C72.99454705 156.02503689 66.15056296 151.87546253 59.3170675 147.70059597 C49.35893163 141.62875291 39.35405193 135.64114609 29.3170675 129.70059597 C19.28010265 123.76005745 9.27541265 117.77202652 -0.6829325 111.70059597 C-11.08128957 105.36321585 -21.5232629 99.10277089 -31.9954325 92.88809597 C-33.02857581 92.27466336 -33.02857581 92.27466336 -34.0825907 91.64883816 C-40.59060832 87.78609552 -47.11156841 83.95566117 -53.6829325 80.20059597 Z " fill="#FEFEFE" transform="translate(245.68293249607086,79.79940402507782)"/>
</svg>
