<?xml version="1.0" standalone="no"?>
<!DOCTYPE svg PUBLIC "-//W3C//DTD SVG 20010904//EN"
 "http://www.w3.org/TR/2001/REC-SVG-20010904/DTD/svg10.dtd">
<svg version="1.0" xmlns="http://www.w3.org/2000/svg"
 width="1024.000000pt" height="1024.000000pt" viewBox="0 0 1024.000000 1024.000000"
 preserveAspectRatio="xMidYMid meet">
<metadata>
Created by potrace 1.16, written by Peter Selinger 2001-2019
</metadata>
<g transform="translate(0.000000,1024.000000) scale(0.100000,-0.100000)"
fill="#000000" stroke="none">
<path d="M0 5120 l0 -5120 5120 0 5120 0 0 5120 0 5120 -5120 0 -5120 0 0
-5120z m5670 2546 c0 -5 -131 -132 -510 -496 -112 -107 -258 -248 -324 -312
l-121 -117 -1007 -1 -1008 0 0 458 c0 252 3 462 7 465 6 7 2963 10 2963 3z
m1130 -83 c1 -49 3 -256 6 -460 l6 -373 -118 0 c-66 0 -124 -4 -131 -8 -7 -4
-164 -156 -350 -338 -186 -181 -383 -372 -438 -424 -122 -116 -129 -124 -116
-147 5 -10 65 -73 133 -140 166 -163 288 -291 288 -301 0 -9 -278 -283 -560
-552 -101 -96 -200 -191 -220 -210 -156 -149 -421 -402 -456 -435 -23 -22 -91
-80 -149 -130 -59 -49 -162 -144 -229 -210 -68 -66 -182 -176 -255 -245 -73
-69 -227 -218 -344 -332 l-212 -207 -477 -1 -478 0 0 470 0 470 140 0 c92 0
140 4 140 11 0 12 107 119 370 369 107 102 209 199 226 215 17 17 66 64 109
105 43 41 100 98 127 126 l48 51 -123 120 c-67 66 -177 174 -245 240 l-123
120 102 94 c99 91 249 235 549 527 80 77 167 160 194 184 28 24 93 84 145 133
52 50 136 128 185 175 50 47 120 114 157 150 60 58 72 66 109 67 37 2 51 11
133 86 51 47 167 158 258 248 301 296 463 453 564 547 l100 92 467 0 468 0 0
-87z m0 -3579 c2 -3 4 -214 5 -469 1 -411 -1 -465 -15 -465 -114 -3 -2935 2
-2938 5 -2 2 38 43 88 92 100 95 157 151 475 463 115 113 254 247 309 298
l101 92 985 -6 c542 -3 987 -8 990 -10z"/>
<path d="M5364 6082 c-14 -8 -183 -163 -234 -212 -19 -19 -62 -59 -95 -89 -33
-30 -134 -127 -225 -215 -172 -167 -469 -451 -648 -619 -57 -54 -121 -108
-143 -120 -21 -12 -39 -26 -39 -30 0 -11 54 -90 72 -104 11 -9 27 1 79 50 35
34 145 138 244 231 99 94 225 213 280 265 136 130 425 403 509 482 38 35 123
117 190 181 l121 118 -40 34 c-41 37 -52 41 -71 28z"/>
</g>
</svg>
